SplineFontDB: 3.2
FontName: XBYas-Italic
FullName: XB Yas Italic
FamilyName: XB Yas
Weight: Book
Copyright: Copyright (c) IRMUG (Iranian Mac User Group), 2007. All rights reserved.
Version: 4.000 2007 initial release
ItalicAngle: 0
UnderlinePosition: -600
UnderlineWidth: 60
Ascent: 1638
Descent: 410
InvalidEm: 0
sfntRevision: 0x00040000
LayerCount: 2
Layer: 0 1 "Back" 1
Layer: 1 1 "Fore" 0
XUID: [1021 420 722297922 7838460]
StyleMap: 0x0001
FSType: 0
OS2Version: 2
OS2_WeightWidthSlopeOnly: 0
OS2_UseTypoMetrics: 0
CreationTime: 1194658560
ModificationTime: 1662231171
PfmFamily: 17
TTFWeight: 400
TTFWidth: 5
LineGap: 0
VLineGap: 0
Panose: 2 0 5 3 8 0 0 9 0 3
OS2TypoAscent: 2100
OS2TypoAOffset: 0
OS2TypoDescent: -1000
OS2TypoDOffset: 0
OS2TypoLinegap: 0
OS2WinAscent: 2100
OS2WinAOffset: 0
OS2WinDescent: 1000
OS2WinDOffset: 0
HheadAscent: 2100
HheadAOffset: 0
HheadDescent: -1000
HheadDOffset: 0
OS2SubXSize: 1434
OS2SubYSize: 1331
OS2SubXOff: 0
OS2SubYOff: 293
OS2SupXSize: 1434
OS2SupYSize: 1331
OS2SupXOff: 0
OS2SupYOff: 928
OS2StrikeYSize: 102
OS2StrikeYPos: 512
OS2CapHeight: 1355
OS2XHeight: 930
OS2Vendor: 'pars'
OS2CodePages: 20000051.41000000
OS2UnicodeRanges: 00002003.80000000.00000008.00000000
Lookup: 6 0 0 "'ccmp' Glyph Composition/Decomposition in Arabic lookup 0" { "'ccmp' Glyph Composition/Decomposition in Arabic lookup 0 contextual 0"  "'ccmp' Glyph Composition/Decomposition in Arabic lookup 0 contextual 1"  "'ccmp' Glyph Composition/Decomposition in Arabic lookup 0 contextual 2"  "'ccmp' Glyph Composition/Decomposition in Arabic lookup 0 contextual 3"  "'ccmp' Glyph Composition/Decomposition in Arabic lookup 0 contextual 4"  "'ccmp' Glyph Composition/Decomposition in Arabic lookup 0 contextual 5"  } ['ccmp' ('arab' <'ARA ' 'DRI ' 'FAR ' 'KUR ' 'PAS ' 'URD ' 'UYG ' 'UZB ' 'dflt' > ) ]

StartChar: .notdef
Encoding: 65536 -1 0
Width: 1122
GlyphClass: 2
Flags: W
LayerCount: 2
Fore
SplineSet
504 299 m 0,0,1
 500 284 500 284 490.5 270.5 c 128,-1,2
 481 257 481 257 468 246.5 c 128,-1,3
 455 236 455 236 439.5 230 c 128,-1,4
 424 224 424 224 408 224 c 0,5,6
 378 224 378 224 362.5 246.5 c 128,-1,7
 347 269 347 269 355 299 c 0,8,9
 363 331 363 331 390.5 352.5 c 128,-1,10
 418 374 418 374 451 374 c 0,11,12
 481 374 481 374 496.5 352.5 c 128,-1,13
 512 331 512 331 504 299 c 0,0,1
741 780 m 0,14,15
 729 737 729 737 698.5 710 c 128,-1,16
 668 683 668 683 631 683 c 0,17,18
 599 683 599 683 584.5 701.5 c 128,-1,19
 570 720 570 720 578 749 c 0,20,21
 584 770 584 770 598 785 c 128,-1,22
 612 800 612 800 627 810.5 c 128,-1,23
 642 821 642 821 654.5 829 c 128,-1,24
 667 837 667 837 668 843 c 0,25,26
 673 863 673 863 657 875 c 128,-1,27
 641 887 641 887 611 887 c 0,28,29
 573 887 573 887 543.5 866 c 128,-1,30
 514 845 514 845 505 813 c 0,31,32
 501 795 501 795 504.5 769 c 128,-1,33
 508 743 508 743 514 718 c 128,-1,34
 520 693 520 693 526 673 c 128,-1,35
 532 653 532 653 532 648 c 0,36,37
 535 619 535 619 532.5 583.5 c 128,-1,38
 530 548 530 548 520 513 c 0,39,40
 514 492 514 492 507 470.5 c 128,-1,41
 500 449 500 449 491 424 c 1,42,-1
 452 424 l 1,43,-1
 457 442 l 1,44,-1
 469 472 l 2,45,46
 478 505 478 505 443 544 c 0,47,48
 388 610 388 610 382 620 c 0,49,50
 351 673 351 673 369 740 c 0,51,52
 380 781 380 781 404 815.5 c 128,-1,53
 428 850 428 850 460.5 875.5 c 128,-1,54
 493 901 493 901 531 915 c 128,-1,55
 569 929 569 929 608 929 c 0,56,57
 643 929 643 929 671.5 918.5 c 128,-1,58
 700 908 700 908 718.5 888.5 c 128,-1,59
 737 869 737 869 743.5 841.5 c 128,-1,60
 750 814 750 814 741 780 c 0,14,15
-60 31 m 1,61,-1
 800 31 l 1,62,-1
 1092 1122 l 1,63,-1
 232 1122 l 1,64,-1
 -60 31 l 1,61,-1
-100 0 m 1,65,-1
 209 1154 l 1,66,-1
 1131 1154 l 1,67,-1
 822 0 l 1,68,-1
 -100 0 l 1,65,-1
EndSplineSet
PairPos2: "'kern' Horizontal Kerning in Arabic lookup 0 subtable" afii57509 dx=0 dy=0 dh=0 dv=0 dx=0 dy=0 dh=260 dv=0
PairPos2: "'kern' Horizontal Kerning in Arabic lookup 0 subtable" uni06AB dx=0 dy=0 dh=0 dv=0 dx=0 dy=0 dh=260 dv=0
PairPos2: "'kern' Horizontal Kerning in Arabic lookup 0 subtable" uni06A9 dx=0 dy=0 dh=0 dv=0 dx=0 dy=0 dh=260 dv=0
PairPos2: "'kern' Horizontal Kerning in Arabic lookup 0 subtable" uniFB94 dx=0 dy=0 dh=0 dv=0 dx=0 dy=0 dh=260 dv=0
PairPos2: "'kern' Horizontal Kerning in Arabic lookup 0 subtable" uniFBD5 dx=0 dy=0 dh=0 dv=0 dx=0 dy=0 dh=260 dv=0
PairPos2: "'kern' Horizontal Kerning in Arabic lookup 0 subtable" uni06AB.ini dx=0 dy=0 dh=0 dv=0 dx=0 dy=0 dh=260 dv=0
PairPos2: "'kern' Horizontal Kerning in Arabic lookup 0 subtable" uniFB90 dx=0 dy=0 dh=0 dv=0 dx=0 dy=0 dh=260 dv=0
PairPos2: "'kern' Horizontal Kerning in Arabic lookup 0 subtable" uniFEDB dx=0 dy=0 dh=0 dv=0 dx=0 dy=0 dh=260 dv=0
PairPos2: "'kern' Horizontal Kerning in Arabic lookup 0 subtable" uni0671 dx=0 dy=0 dh=0 dv=0 dx=0 dy=0 dh=208 dv=0
PairPos2: "'kern' Horizontal Kerning in Arabic lookup 0 subtable" afii57410 dx=0 dy=0 dh=0 dv=0 dx=0 dy=0 dh=208 dv=0
PairPos2: "'kern' Horizontal Kerning in Arabic lookup 0 subtable" afii57415 dx=0 dy=0 dh=0 dv=0 dx=0 dy=0 dh=52 dv=0
EndChar

StartChar: exclam
Encoding: 33 33 4
Width: 541
GlyphClass: 2
Flags: W
LayerCount: 2
Fore
SplineSet
197 210 m 0,0,1
 190 186 190 186 174.5 163 c 128,-1,2
 159 140 159 140 137.5 122 c 128,-1,3
 116 104 116 104 91 93 c 128,-1,4
 66 82 66 82 40 82 c 0,5,6
 18 82 18 82 -0.5 92.5 c 128,-1,7
 -19 103 -19 103 -31 120.5 c 128,-1,8
 -43 138 -43 138 -47 161 c 128,-1,9
 -51 184 -51 184 -44 209 c 0,10,11
 -38 233 -38 233 -22 255.5 c 128,-1,12
 -6 278 -6 278 14.5 295 c 128,-1,13
 35 312 35 312 58 322 c 128,-1,14
 81 332 81 332 103 332 c 0,15,16
 129 332 129 332 149.5 322 c 128,-1,17
 170 312 170 312 182.5 295.5 c 128,-1,18
 195 279 195 279 199 257 c 128,-1,19
 203 235 203 235 197 210 c 0,0,1
478 1260 m 0,20,21
 446 1142 446 1142 333 888 c 0,22,23
 270 746 270 746 225.5 634.5 c 128,-1,24
 181 523 181 523 154 435 c 1,25,-1
 117 435 l 1,26,27
 141 529 141 529 159 642 c 128,-1,28
 177 755 177 755 188 895 c 0,29,30
 215 1166 215 1166 240 1261 c 0,31,32
 250 1298 250 1298 267.5 1330 c 128,-1,33
 285 1362 285 1362 306.5 1385 c 128,-1,34
 328 1408 328 1408 353.5 1421.5 c 128,-1,35
 379 1435 379 1435 405 1435 c 0,36,37
 461 1435 461 1435 480.5 1388 c 128,-1,38
 500 1341 500 1341 478 1260 c 0,20,21
EndSplineSet
PairPos2: "'kern' Horizontal Kerning in Arabic lookup 0 subtable" afii57509 dx=0 dy=0 dh=0 dv=0 dx=0 dy=0 dh=260 dv=0
PairPos2: "'kern' Horizontal Kerning in Arabic lookup 0 subtable" uni06AB dx=0 dy=0 dh=0 dv=0 dx=0 dy=0 dh=260 dv=0
PairPos2: "'kern' Horizontal Kerning in Arabic lookup 0 subtable" uni06A9 dx=0 dy=0 dh=0 dv=0 dx=0 dy=0 dh=260 dv=0
PairPos2: "'kern' Horizontal Kerning in Arabic lookup 0 subtable" uniFB94 dx=0 dy=0 dh=0 dv=0 dx=0 dy=0 dh=260 dv=0
PairPos2: "'kern' Horizontal Kerning in Arabic lookup 0 subtable" uniFBD5 dx=0 dy=0 dh=0 dv=0 dx=0 dy=0 dh=260 dv=0
PairPos2: "'kern' Horizontal Kerning in Arabic lookup 0 subtable" uni06AB.ini dx=0 dy=0 dh=0 dv=0 dx=0 dy=0 dh=260 dv=0
PairPos2: "'kern' Horizontal Kerning in Arabic lookup 0 subtable" uniFB90 dx=0 dy=0 dh=0 dv=0 dx=0 dy=0 dh=260 dv=0
PairPos2: "'kern' Horizontal Kerning in Arabic lookup 0 subtable" uniFEDB dx=0 dy=0 dh=0 dv=0 dx=0 dy=0 dh=260 dv=0
PairPos2: "'kern' Horizontal Kerning in Arabic lookup 0 subtable" uni0671 dx=0 dy=0 dh=0 dv=0 dx=0 dy=0 dh=208 dv=0
PairPos2: "'kern' Horizontal Kerning in Arabic lookup 0 subtable" afii57410 dx=0 dy=0 dh=0 dv=0 dx=0 dy=0 dh=208 dv=0
PairPos2: "'kern' Horizontal Kerning in Arabic lookup 0 subtable" afii57415 dx=0 dy=0 dh=0 dv=0 dx=0 dy=0 dh=52 dv=0
EndChar

StartChar: quotedbl
Encoding: 34 34 5
Width: 836
GlyphClass: 2
Flags: W
LayerCount: 2
Fore
SplineSet
306 793 m 1,0,-1
 259 793 l 1,1,-1
 316 1200 l 2,2,3
 321 1227 321 1227 325 1252.5 c 128,-1,4
 329 1278 329 1278 334 1298 c 0,5,6
 345 1337 345 1337 373.5 1360.5 c 128,-1,7
 402 1384 402 1384 437 1384 c 0,8,9
 484 1384 484 1384 494.5 1357.5 c 128,-1,10
 505 1331 505 1331 492 1283 c 0,11,12
 491 1277 491 1277 487.5 1267 c 128,-1,13
 484 1257 484 1257 480 1245.5 c 128,-1,14
 476 1234 476 1234 471.5 1222.5 c 128,-1,15
 467 1211 467 1211 464 1203 c 2,16,-1
 306 793 l 1,0,-1
556 793 m 1,17,-1
 613 1191 l 2,18,19
 618 1224 618 1224 620 1240.5 c 128,-1,20
 622 1257 622 1257 623 1264.5 c 128,-1,21
 624 1272 624 1272 625 1274.5 c 128,-1,22
 626 1277 626 1277 627 1283 c 0,23,24
 642 1338 642 1338 669.5 1361 c 128,-1,25
 697 1384 697 1384 736 1384 c 0,26,27
 760 1384 760 1384 774 1377 c 128,-1,28
 788 1370 788 1370 794 1356.5 c 128,-1,29
 800 1343 800 1343 798.5 1324 c 128,-1,30
 797 1305 797 1305 791 1282 c 0,31,32
 790 1277 790 1277 788.5 1273.5 c 128,-1,33
 787 1270 787 1270 784.5 1262.5 c 128,-1,34
 782 1255 782 1255 776.5 1240.5 c 128,-1,35
 771 1226 771 1226 761 1200 c 0,36,37
 723 1103 723 1103 682.5 997 c 128,-1,38
 642 891 642 891 605 793 c 1,39,-1
 556 793 l 1,17,-1
EndSplineSet
PairPos2: "'kern' Horizontal Kerning in Arabic lookup 0 subtable" afii57509 dx=0 dy=0 dh=0 dv=0 dx=0 dy=0 dh=260 dv=0
PairPos2: "'kern' Horizontal Kerning in Arabic lookup 0 subtable" uni06AB dx=0 dy=0 dh=0 dv=0 dx=0 dy=0 dh=260 dv=0
PairPos2: "'kern' Horizontal Kerning in Arabic lookup 0 subtable" uni06A9 dx=0 dy=0 dh=0 dv=0 dx=0 dy=0 dh=260 dv=0
PairPos2: "'kern' Horizontal Kerning in Arabic lookup 0 subtable" uniFB94 dx=0 dy=0 dh=0 dv=0 dx=0 dy=0 dh=260 dv=0
PairPos2: "'kern' Horizontal Kerning in Arabic lookup 0 subtable" uniFBD5 dx=0 dy=0 dh=0 dv=0 dx=0 dy=0 dh=260 dv=0
PairPos2: "'kern' Horizontal Kerning in Arabic lookup 0 subtable" uni06AB.ini dx=0 dy=0 dh=0 dv=0 dx=0 dy=0 dh=260 dv=0
PairPos2: "'kern' Horizontal Kerning in Arabic lookup 0 subtable" uniFB90 dx=0 dy=0 dh=0 dv=0 dx=0 dy=0 dh=260 dv=0
PairPos2: "'kern' Horizontal Kerning in Arabic lookup 0 subtable" uniFEDB dx=0 dy=0 dh=0 dv=0 dx=0 dy=0 dh=260 dv=0
PairPos2: "'kern' Horizontal Kerning in Arabic lookup 0 subtable" uni0671 dx=0 dy=0 dh=0 dv=0 dx=0 dy=0 dh=208 dv=0
PairPos2: "'kern' Horizontal Kerning in Arabic lookup 0 subtable" afii57410 dx=0 dy=0 dh=0 dv=0 dx=0 dy=0 dh=208 dv=0
PairPos2: "'kern' Horizontal Kerning in Arabic lookup 0 subtable" afii57415 dx=0 dy=0 dh=0 dv=0 dx=0 dy=0 dh=52 dv=0
EndChar

StartChar: numbersign
Encoding: 35 35 6
Width: 1024
GlyphClass: 2
Flags: W
LayerCount: 2
Fore
SplineSet
507 505 m 1,0,1
 552 590 552 590 598.5 676 c 128,-1,2
 645 762 645 762 690 847 c 1,3,-1
 476 847 l 1,4,5
 431 762 431 762 384.5 676 c 128,-1,6
 338 590 338 590 293 505 c 1,7,-1
 507 505 l 1,0,1
-47 505 m 1,8,-1
 170 505 l 1,9,10
 216 591 216 591 263 677 c 128,-1,11
 310 763 310 763 357 849 c 1,12,-1
 140 849 l 1,13,-1
 176 925 l 1,14,-1
 394 925 l 1,15,16
 420 973 420 973 450 1028 c 128,-1,17
 480 1083 480 1083 510.5 1139 c 128,-1,18
 541 1195 541 1195 571 1250 c 128,-1,19
 601 1305 601 1305 627 1353 c 1,20,-1
 752 1353 l 1,21,-1
 519 925 l 1,22,-1
 733 925 l 1,23,24
 788 1028 788 1028 849 1139 c 128,-1,25
 910 1250 910 1250 964 1353 c 1,26,-1
 1086 1353 l 1,27,-1
 853 925 l 1,28,-1
 1070 925 l 1,29,-1
 1031 849 l 1,30,-1
 814 849 l 1,31,32
 768 763 768 763 721.5 677 c 128,-1,33
 675 591 675 591 630 505 c 1,34,-1
 847 505 l 1,35,-1
 804 428 l 1,36,-1
 590 428 l 1,37,38
 536 326 536 326 475 214.5 c 128,-1,39
 414 103 414 103 360 0 c 1,40,-1
 234 0 l 1,41,-1
 467 428 l 1,42,-1
 253 428 l 1,43,44
 199 326 199 326 138 214.5 c 128,-1,45
 77 103 77 103 23 0 c 1,46,-1
 -99 0 l 1,47,-1
 130 428 l 1,48,-1
 -84 428 l 1,49,-1
 -47 505 l 1,8,-1
EndSplineSet
PairPos2: "'kern' Horizontal Kerning in Arabic lookup 0 subtable" afii57509 dx=0 dy=0 dh=0 dv=0 dx=0 dy=0 dh=260 dv=0
PairPos2: "'kern' Horizontal Kerning in Arabic lookup 0 subtable" uni06AB dx=0 dy=0 dh=0 dv=0 dx=0 dy=0 dh=260 dv=0
PairPos2: "'kern' Horizontal Kerning in Arabic lookup 0 subtable" uni06A9 dx=0 dy=0 dh=0 dv=0 dx=0 dy=0 dh=260 dv=0
PairPos2: "'kern' Horizontal Kerning in Arabic lookup 0 subtable" uniFB94 dx=0 dy=0 dh=0 dv=0 dx=0 dy=0 dh=260 dv=0
PairPos2: "'kern' Horizontal Kerning in Arabic lookup 0 subtable" uniFBD5 dx=0 dy=0 dh=0 dv=0 dx=0 dy=0 dh=260 dv=0
PairPos2: "'kern' Horizontal Kerning in Arabic lookup 0 subtable" uni06AB.ini dx=0 dy=0 dh=0 dv=0 dx=0 dy=0 dh=260 dv=0
PairPos2: "'kern' Horizontal Kerning in Arabic lookup 0 subtable" uniFB90 dx=0 dy=0 dh=0 dv=0 dx=0 dy=0 dh=260 dv=0
PairPos2: "'kern' Horizontal Kerning in Arabic lookup 0 subtable" uniFEDB dx=0 dy=0 dh=0 dv=0 dx=0 dy=0 dh=260 dv=0
PairPos2: "'kern' Horizontal Kerning in Arabic lookup 0 subtable" uni0671 dx=0 dy=0 dh=0 dv=0 dx=0 dy=0 dh=208 dv=0
PairPos2: "'kern' Horizontal Kerning in Arabic lookup 0 subtable" afii57410 dx=0 dy=0 dh=0 dv=0 dx=0 dy=0 dh=208 dv=0
PairPos2: "'kern' Horizontal Kerning in Arabic lookup 0 subtable" afii57415 dx=0 dy=0 dh=0 dv=0 dx=0 dy=0 dh=52 dv=0
EndChar

StartChar: dollar
Encoding: 36 36 7
Width: 1024
GlyphClass: 2
Flags: W
LayerCount: 2
Fore
SplineSet
616 1301 m 1,0,1
 569 1295 569 1295 526 1277 c 128,-1,2
 483 1259 483 1259 448 1232 c 128,-1,3
 413 1205 413 1205 388 1169 c 128,-1,4
 363 1133 363 1133 352 1090 c 0,5,6
 335 1027 335 1027 370.5 961.5 c 128,-1,7
 406 896 406 896 492 836 c 1,8,-1
 616 1301 l 1,0,1
506 110 m 0,9,10
 620 177 620 177 658 314 c 0,11,12
 670 361 670 361 663.5 403 c 128,-1,13
 657 445 657 445 631 481 c 0,14,15
 616 503 616 503 583.5 531.5 c 128,-1,16
 551 560 551 560 500 597 c 1,17,-1
 356 58 l 1,18,19
 398 66 398 66 436.5 79 c 128,-1,20
 475 92 475 92 506 110 c 0,9,10
21 370 m 1,21,22
 19 311 19 311 26.5 262 c 128,-1,23
 34 213 34 213 48 181 c 0,24,25
 78 124 78 124 138.5 92 c 128,-1,26
 199 60 199 60 285 58 c 1,27,-1
 439 634 l 1,28,29
 360 690 360 690 304 737 c 128,-1,30
 248 784 248 784 225 814 c 0,31,32
 149 916 149 916 186 1050 c 0,33,34
 216 1162 216 1162 340 1258 c 0,35,36
 402 1306 402 1306 476 1330.5 c 128,-1,37
 550 1355 550 1355 634 1360 c 1,38,-1
 668 1488 l 1,39,-1
 739 1488 l 1,40,-1
 705 1360 l 1,41,42
 785 1355 785 1355 878 1328 c 0,43,44
 923 1315 923 1315 954 1294.5 c 128,-1,45
 985 1274 985 1274 1005 1251 c 1,46,-1
 943 1022 l 1,47,-1
 911 1022 l 1,48,49
 917 1087 917 1087 903 1138 c 128,-1,50
 889 1189 889 1189 858.5 1224.5 c 128,-1,51
 828 1260 828 1260 784.5 1279.5 c 128,-1,52
 741 1299 741 1299 689 1301 c 1,53,-1
 555 802 l 1,54,55
 648 748 648 748 714 695.5 c 128,-1,56
 780 643 780 643 810 598 c 0,57,58
 839 554 839 554 844 492.5 c 128,-1,59
 849 431 849 431 830 358 c 0,60,61
 811 284 811 284 766 221.5 c 128,-1,62
 721 159 721 159 656.5 111.5 c 128,-1,63
 592 64 592 64 511.5 35 c 128,-1,64
 431 6 431 6 341 0 c 1,65,-1
 292 -181 l 1,66,-1
 221 -181 l 1,67,-1
 270 0 l 1,68,69
 207 2 207 2 153.5 9 c 128,-1,70
 100 16 100 16 62 30 c 0,71,72
 36 39 36 39 0 57.5 c 128,-1,73
 -36 76 -36 76 -82 105 c 1,74,-1
 -11 370 l 1,75,-1
 21 370 l 1,21,22
EndSplineSet
PairPos2: "'kern' Horizontal Kerning in Arabic lookup 0 subtable" afii57509 dx=0 dy=0 dh=0 dv=0 dx=0 dy=0 dh=260 dv=0
PairPos2: "'kern' Horizontal Kerning in Arabic lookup 0 subtable" uni06AB dx=0 dy=0 dh=0 dv=0 dx=0 dy=0 dh=260 dv=0
PairPos2: "'kern' Horizontal Kerning in Arabic lookup 0 subtable" uni06A9 dx=0 dy=0 dh=0 dv=0 dx=0 dy=0 dh=260 dv=0
PairPos2: "'kern' Horizontal Kerning in Arabic lookup 0 subtable" uniFB94 dx=0 dy=0 dh=0 dv=0 dx=0 dy=0 dh=260 dv=0
PairPos2: "'kern' Horizontal Kerning in Arabic lookup 0 subtable" uniFBD5 dx=0 dy=0 dh=0 dv=0 dx=0 dy=0 dh=260 dv=0
PairPos2: "'kern' Horizontal Kerning in Arabic lookup 0 subtable" uni06AB.ini dx=0 dy=0 dh=0 dv=0 dx=0 dy=0 dh=260 dv=0
PairPos2: "'kern' Horizontal Kerning in Arabic lookup 0 subtable" uniFB90 dx=0 dy=0 dh=0 dv=0 dx=0 dy=0 dh=260 dv=0
PairPos2: "'kern' Horizontal Kerning in Arabic lookup 0 subtable" uniFEDB dx=0 dy=0 dh=0 dv=0 dx=0 dy=0 dh=260 dv=0
PairPos2: "'kern' Horizontal Kerning in Arabic lookup 0 subtable" uni0671 dx=0 dy=0 dh=0 dv=0 dx=0 dy=0 dh=208 dv=0
PairPos2: "'kern' Horizontal Kerning in Arabic lookup 0 subtable" afii57410 dx=0 dy=0 dh=0 dv=0 dx=0 dy=0 dh=208 dv=0
PairPos2: "'kern' Horizontal Kerning in Arabic lookup 0 subtable" afii57415 dx=0 dy=0 dh=0 dv=0 dx=0 dy=0 dh=52 dv=0
EndChar

StartChar: percent
Encoding: 37 37 8
Width: 1706
GlyphClass: 2
Flags: W
LayerCount: 2
Fore
SplineSet
836 1134 m 0,0,1
 848 1180 848 1180 846.5 1198.5 c 128,-1,2
 845 1217 845 1217 833 1225.5 c 128,-1,3
 821 1234 821 1234 801 1241 c 128,-1,4
 781 1248 781 1248 755 1269 c 0,5,6
 741 1280 741 1280 734.5 1286.5 c 128,-1,7
 728 1293 728 1293 723 1293 c 0,8,9
 627 1293 627 1293 480 1119 c 0,10,11
 408 1033 408 1033 361.5 953.5 c 128,-1,12
 315 874 315 874 295 802 c 0,13,14
 278 736 278 736 299 699 c 128,-1,15
 320 662 320 662 385 662 c 0,16,17
 505 662 505 662 648 811 c 0,18,19
 719 886 719 886 766 966.5 c 128,-1,20
 813 1047 813 1047 836 1134 c 0,0,1
1463 516 m 0,21,22
 1474 558 1474 558 1472 590.5 c 128,-1,23
 1470 623 1470 623 1456.5 646 c 128,-1,24
 1443 669 1443 669 1419.5 681 c 128,-1,25
 1396 693 1396 693 1363 693 c 0,26,27
 1306 693 1306 693 1239.5 645.5 c 128,-1,28
 1173 598 1173 598 1105 512 c 0,29,30
 1035 423 1035 423 990.5 343.5 c 128,-1,31
 946 264 946 264 928 198 c 256,32,33
 910 132 910 132 938 97.5 c 128,-1,34
 966 63 966 63 1026 63 c 0,35,36
 1147 63 1147 63 1286 222 c 0,37,38
 1428 383 1428 383 1463 516 c 0,21,22
1363 760 m 0,39,40
 1452 760 1452 760 1504 708 c 0,41,42
 1558 656 1558 656 1519 514 c 0,43,44
 1499 437 1499 437 1448 354.5 c 128,-1,45
 1397 272 1397 272 1316 180 c 0,46,47
 1153 -3 1153 -3 966 -3 c 0,48,49
 916 -3 916 -3 875 13.5 c 128,-1,50
 834 30 834 30 809.5 64.5 c 128,-1,51
 785 99 785 99 779 152.5 c 128,-1,52
 773 206 773 206 793 280 c 0,53,54
 816 367 816 367 872 448 c 128,-1,55
 928 529 928 529 1017 606 c 0,56,57
 1195 760 1195 760 1363 760 c 0,39,40
825 1339 m 0,58,59
 846 1331 846 1331 860.5 1313.5 c 128,-1,60
 875 1296 875 1296 889 1279 c 0,61,62
 907 1259 907 1259 946.5 1251 c 128,-1,63
 986 1243 986 1243 1030 1243 c 0,64,65
 1143 1243 1143 1243 1257 1299 c 0,66,67
 1316 1328 1316 1328 1386 1384 c 1,68,-1
 1469 1384 l 1,69,-1
 301 -29 l 1,70,-1
 203 -29 l 1,71,-1
 1257 1248 l 1,72,73
 1213 1230 1213 1230 1185 1219 c 128,-1,74
 1157 1208 1157 1208 1134.5 1202 c 128,-1,75
 1112 1196 1112 1196 1089.5 1194 c 128,-1,76
 1067 1192 1067 1192 1034 1192 c 0,77,78
 990 1192 990 1192 958.5 1196 c 128,-1,79
 927 1200 927 1200 898 1210 c 1,80,81
 898 1197 898 1197 898 1187 c 128,-1,82
 898 1177 898 1177 897 1167.5 c 128,-1,83
 896 1158 896 1158 893 1145.5 c 128,-1,84
 890 1133 890 1133 885 1113 c 0,85,86
 837 934 837 934 669 761 c 0,87,88
 504 590 504 590 329 590 c 0,89,90
 235 590 235 590 178 661 c 0,91,92
 120 731 120 731 158 870 c 0,93,94
 180 953 180 953 235.5 1034 c 128,-1,95
 291 1115 291 1115 379 1195 c 0,96,97
 464 1273 464 1273 554 1313.5 c 128,-1,98
 644 1354 644 1354 729 1355 c 0,99,100
 792 1355 792 1355 825 1339 c 0,58,59
EndSplineSet
Ligature2: "<17013,16013> Roman in Arabic lookup 72 subtable" zero fraction zero
Ligature2: "<17013,16013> Roman in Arabic lookup 72 subtable" zero slash zero
Ligature2: "Ligature Substitution lookup 42 subtable" zero fraction zero
Ligature2: "Ligature Substitution lookup 42 subtable" zero slash zero
PairPos2: "'kern' Horizontal Kerning in Arabic lookup 0 subtable" afii57509 dx=0 dy=0 dh=0 dv=0 dx=0 dy=0 dh=260 dv=0
PairPos2: "'kern' Horizontal Kerning in Arabic lookup 0 subtable" uni06AB dx=0 dy=0 dh=0 dv=0 dx=0 dy=0 dh=260 dv=0
PairPos2: "'kern' Horizontal Kerning in Arabic lookup 0 subtable" uni06A9 dx=0 dy=0 dh=0 dv=0 dx=0 dy=0 dh=260 dv=0
PairPos2: "'kern' Horizontal Kerning in Arabic lookup 0 subtable" uniFB94 dx=0 dy=0 dh=0 dv=0 dx=0 dy=0 dh=260 dv=0
PairPos2: "'kern' Horizontal Kerning in Arabic lookup 0 subtable" uniFBD5 dx=0 dy=0 dh=0 dv=0 dx=0 dy=0 dh=260 dv=0
PairPos2: "'kern' Horizontal Kerning in Arabic lookup 0 subtable" uni06AB.ini dx=0 dy=0 dh=0 dv=0 dx=0 dy=0 dh=260 dv=0
PairPos2: "'kern' Horizontal Kerning in Arabic lookup 0 subtable" uniFB90 dx=0 dy=0 dh=0 dv=0 dx=0 dy=0 dh=260 dv=0
PairPos2: "'kern' Horizontal Kerning in Arabic lookup 0 subtable" uniFEDB dx=0 dy=0 dh=0 dv=0 dx=0 dy=0 dh=260 dv=0
PairPos2: "'kern' Horizontal Kerning in Arabic lookup 0 subtable" uni0671 dx=0 dy=0 dh=0 dv=0 dx=0 dy=0 dh=208 dv=0
PairPos2: "'kern' Horizontal Kerning in Arabic lookup 0 subtable" afii57410 dx=0 dy=0 dh=0 dv=0 dx=0 dy=0 dh=208 dv=0
PairPos2: "'kern' Horizontal Kerning in Arabic lookup 0 subtable" afii57415 dx=0 dy=0 dh=0 dv=0 dx=0 dy=0 dh=52 dv=0
EndChar

StartChar: ampersand
Encoding: 38 38 9
Width: 1593
GlyphClass: 2
Flags: W
LayerCount: 2
Fore
SplineSet
859 954 m 0,0,1
 973 1041 973 1041 999 1142 c 0,2,3
 1009 1180 1009 1180 1006 1211.5 c 128,-1,4
 1003 1243 1003 1243 988 1266 c 128,-1,5
 973 1289 973 1289 947 1302 c 128,-1,6
 921 1315 921 1315 886 1315 c 0,7,8
 811 1315 811 1315 756.5 1266 c 128,-1,9
 702 1217 702 1217 680 1137 c 0,10,11
 663 1075 663 1075 666 1002 c 128,-1,12
 669 929 669 929 684 851 c 1,13,14
 737 877 737 877 782.5 904 c 128,-1,15
 828 931 828 931 859 954 c 0,0,1
504 114 m 0,16,17
 546 129 546 129 591.5 154 c 128,-1,18
 637 179 637 179 682 214 c 1,19,20
 651 271 651 271 628 322 c 128,-1,21
 605 373 605 373 589 414 c 0,22,23
 574 456 574 456 553 527 c 128,-1,24
 532 598 532 598 503 699 c 1,25,26
 433 662 433 662 378 624.5 c 128,-1,27
 323 587 323 587 282 546 c 128,-1,28
 241 505 241 505 213.5 459.5 c 128,-1,29
 186 414 186 414 172 361 c 0,30,31
 158 307 158 307 164 256.5 c 128,-1,32
 170 206 170 206 194 167.5 c 128,-1,33
 218 129 218 129 260 105.5 c 128,-1,34
 302 82 302 82 359 82 c 0,35,36
 387 82 387 82 424 90.5 c 128,-1,37
 461 99 461 99 504 114 c 0,16,17
490 772 m 1,38,39
 487 785 487 785 484.5 805 c 128,-1,40
 482 825 482 825 480.5 846.5 c 128,-1,41
 479 868 479 868 478.5 888.5 c 128,-1,42
 478 909 478 909 478 922 c 0,43,44
 478 954 478 954 482 986.5 c 128,-1,45
 486 1019 486 1019 494 1050 c 0,46,47
 513 1122 513 1122 552.5 1183 c 128,-1,48
 592 1244 592 1244 645.5 1289 c 128,-1,49
 699 1334 699 1334 763 1359 c 128,-1,50
 827 1384 827 1384 894 1384 c 0,51,52
 956 1384 956 1384 1003 1366.5 c 128,-1,53
 1050 1349 1050 1349 1078.5 1316.5 c 128,-1,54
 1107 1284 1107 1284 1116 1238.5 c 128,-1,55
 1125 1193 1125 1193 1110 1136 c 0,56,57
 1074 1004 1074 1004 951 920 c 0,58,59
 892 879 892 879 827 845.5 c 128,-1,60
 762 812 762 812 698 786 c 1,61,62
 701 776 701 776 707 756.5 c 128,-1,63
 713 737 713 737 720 713.5 c 128,-1,64
 727 690 727 690 734.5 664.5 c 128,-1,65
 742 639 742 639 749 617.5 c 128,-1,66
 756 596 756 596 761 580.5 c 128,-1,67
 766 565 766 565 767 561 c 0,68,69
 779 529 779 529 802 479 c 128,-1,70
 825 429 825 429 855 367 c 1,71,72
 918 427 918 427 968 482.5 c 128,-1,73
 1018 538 1018 538 1054 585 c 128,-1,74
 1090 632 1090 632 1111.5 670.5 c 128,-1,75
 1133 709 1133 709 1140 734 c 0,76,77
 1146 757 1146 757 1145 773.5 c 128,-1,78
 1144 790 1144 790 1132 801.5 c 128,-1,79
 1120 813 1120 813 1096.5 819 c 128,-1,80
 1073 825 1073 825 1034 828 c 1,81,-1
 1046 873 l 1,82,-1
 1488 873 l 1,83,-1
 1476 828 l 1,84,85
 1434 824 1434 824 1403 816 c 128,-1,86
 1372 808 1372 808 1346.5 794 c 128,-1,87
 1321 780 1321 780 1299 759 c 128,-1,88
 1277 738 1277 738 1252 708 c 2,89,-1
 1175 613 l 2,90,91
 1134 563 1134 563 1098.5 521.5 c 128,-1,92
 1063 480 1063 480 1040 456 c 0,93,94
 1014 429 1014 429 977 392.5 c 128,-1,95
 940 356 940 356 889 309 c 1,96,97
 903 286 903 286 919.5 262 c 128,-1,98
 936 238 936 238 954 215 c 0,99,100
 996 169 996 169 1045.5 144.5 c 128,-1,101
 1095 120 1095 120 1149 120 c 0,102,103
 1181 120 1181 120 1211.5 128.5 c 128,-1,104
 1242 137 1242 137 1268 152 c 0,105,106
 1285 162 1285 162 1309.5 181.5 c 128,-1,107
 1334 201 1334 201 1365 230 c 1,108,-1
 1389 205 l 1,109,110
 1382 192 1382 192 1364.5 171 c 128,-1,111
 1347 150 1347 150 1325 127 c 128,-1,112
 1303 104 1303 104 1279 82.5 c 128,-1,113
 1255 61 1255 61 1236 47 c 0,114,115
 1186 12 1186 12 1125.5 -9 c 128,-1,116
 1065 -30 1065 -30 1013 -30 c 0,117,118
 915 -30 915 -30 838 31 c 0,119,120
 815 49 815 49 785 80.5 c 128,-1,121
 755 112 755 112 721 157 c 1,122,123
 667 118 667 118 611.5 86 c 128,-1,124
 556 54 556 54 505 31 c 0,125,126
 439 2 439 2 367 -13.5 c 128,-1,127
 295 -29 295 -29 226 -29 c 0,128,129
 146 -29 146 -29 87 -7.5 c 128,-1,130
 28 14 28 14 -7 55.5 c 128,-1,131
 -42 97 -42 97 -51.5 156.5 c 128,-1,132
 -61 216 -61 216 -41 291 c 0,133,134
 -23 357 -23 357 17.5 418 c 128,-1,135
 58 479 58 479 116 534 c 128,-1,136
 174 589 174 589 247 637.5 c 128,-1,137
 320 686 320 686 403 728 c 2,138,-1
 490 772 l 1,38,39
EndSplineSet
PairPos2: "'kern' Horizontal Kerning in Arabic lookup 0 subtable" afii57509 dx=0 dy=0 dh=0 dv=0 dx=0 dy=0 dh=260 dv=0
PairPos2: "'kern' Horizontal Kerning in Arabic lookup 0 subtable" uni06AB dx=0 dy=0 dh=0 dv=0 dx=0 dy=0 dh=260 dv=0
PairPos2: "'kern' Horizontal Kerning in Arabic lookup 0 subtable" uni06A9 dx=0 dy=0 dh=0 dv=0 dx=0 dy=0 dh=260 dv=0
PairPos2: "'kern' Horizontal Kerning in Arabic lookup 0 subtable" uniFB94 dx=0 dy=0 dh=0 dv=0 dx=0 dy=0 dh=260 dv=0
PairPos2: "'kern' Horizontal Kerning in Arabic lookup 0 subtable" uniFBD5 dx=0 dy=0 dh=0 dv=0 dx=0 dy=0 dh=260 dv=0
PairPos2: "'kern' Horizontal Kerning in Arabic lookup 0 subtable" uni06AB.ini dx=0 dy=0 dh=0 dv=0 dx=0 dy=0 dh=260 dv=0
PairPos2: "'kern' Horizontal Kerning in Arabic lookup 0 subtable" uniFB90 dx=0 dy=0 dh=0 dv=0 dx=0 dy=0 dh=260 dv=0
PairPos2: "'kern' Horizontal Kerning in Arabic lookup 0 subtable" uniFEDB dx=0 dy=0 dh=0 dv=0 dx=0 dy=0 dh=260 dv=0
PairPos2: "'kern' Horizontal Kerning in Arabic lookup 0 subtable" uni0671 dx=0 dy=0 dh=0 dv=0 dx=0 dy=0 dh=208 dv=0
PairPos2: "'kern' Horizontal Kerning in Arabic lookup 0 subtable" afii57410 dx=0 dy=0 dh=0 dv=0 dx=0 dy=0 dh=208 dv=0
PairPos2: "'kern' Horizontal Kerning in Arabic lookup 0 subtable" afii57415 dx=0 dy=0 dh=0 dv=0 dx=0 dy=0 dh=52 dv=0
EndChar

StartChar: quotesingle
Encoding: 39 39 10
Width: 369
GlyphClass: 2
Flags: W
LayerCount: 2
Fore
SplineSet
399 1288 m 0,0,1
 397 1280 397 1280 392.5 1268 c 128,-1,2
 388 1256 388 1256 379 1233 c 0,3,4
 338 1126 338 1126 295.5 1013 c 128,-1,5
 253 900 253 900 212 793 c 1,6,-1
 174 793 l 1,7,-1
 231 1200 l 2,8,9
 235 1225 235 1225 238.5 1249 c 128,-1,10
 242 1273 242 1273 249 1298 c 0,11,12
 253 1313 253 1313 260 1328.5 c 128,-1,13
 267 1344 267 1344 278 1356.5 c 128,-1,14
 289 1369 289 1369 306 1376.5 c 128,-1,15
 323 1384 323 1384 347 1384 c 0,16,17
 395 1384 395 1384 403 1358.5 c 128,-1,18
 411 1333 411 1333 399 1288 c 0,0,1
EndSplineSet
PairPos2: "'kern' Horizontal Kerning in Arabic lookup 0 subtable" afii57509 dx=0 dy=0 dh=0 dv=0 dx=0 dy=0 dh=260 dv=0
PairPos2: "'kern' Horizontal Kerning in Arabic lookup 0 subtable" uni06AB dx=0 dy=0 dh=0 dv=0 dx=0 dy=0 dh=260 dv=0
PairPos2: "'kern' Horizontal Kerning in Arabic lookup 0 subtable" uni06A9 dx=0 dy=0 dh=0 dv=0 dx=0 dy=0 dh=260 dv=0
PairPos2: "'kern' Horizontal Kerning in Arabic lookup 0 subtable" uniFB94 dx=0 dy=0 dh=0 dv=0 dx=0 dy=0 dh=260 dv=0
PairPos2: "'kern' Horizontal Kerning in Arabic lookup 0 subtable" uniFBD5 dx=0 dy=0 dh=0 dv=0 dx=0 dy=0 dh=260 dv=0
PairPos2: "'kern' Horizontal Kerning in Arabic lookup 0 subtable" uni06AB.ini dx=0 dy=0 dh=0 dv=0 dx=0 dy=0 dh=260 dv=0
PairPos2: "'kern' Horizontal Kerning in Arabic lookup 0 subtable" uniFB90 dx=0 dy=0 dh=0 dv=0 dx=0 dy=0 dh=260 dv=0
PairPos2: "'kern' Horizontal Kerning in Arabic lookup 0 subtable" uniFEDB dx=0 dy=0 dh=0 dv=0 dx=0 dy=0 dh=260 dv=0
PairPos2: "'kern' Horizontal Kerning in Arabic lookup 0 subtable" uni0671 dx=0 dy=0 dh=0 dv=0 dx=0 dy=0 dh=208 dv=0
PairPos2: "'kern' Horizontal Kerning in Arabic lookup 0 subtable" afii57410 dx=0 dy=0 dh=0 dv=0 dx=0 dy=0 dh=208 dv=0
PairPos2: "'kern' Horizontal Kerning in Arabic lookup 0 subtable" afii57415 dx=0 dy=0 dh=0 dv=0 dx=0 dy=0 dh=52 dv=0
EndChar

StartChar: parenleft
Encoding: 40 40 11
Width: 694
GlyphClass: 2
Flags: W
LayerCount: 2
Fore
SplineSet
234 -529 m 0,0,1
 247 -550 247 -550 241 -568 c 0,2,3
 237 -584 237 -584 222 -584 c 0,4,5
 208 -584 208 -584 200 -571 c 0,6,7
 166 -538 166 -538 135 -495.5 c 128,-1,8
 104 -453 104 -453 78 -402.5 c 128,-1,9
 52 -352 52 -352 31 -295.5 c 128,-1,10
 10 -239 10 -239 -3 -178 c 0,11,12
 -17 -107 -17 -107 -23 -29.5 c 128,-1,13
 -29 48 -29 48 -26.5 128.5 c 128,-1,14
 -24 209 -24 209 -12.5 290.5 c 128,-1,15
 -1 372 -1 372 20 451 c 0,16,17
 61 603 61 603 140 757.5 c 128,-1,18
 219 912 219 912 332 1064 c 0,19,20
 432 1198 432 1198 538 1302.5 c 128,-1,21
 644 1407 644 1407 747 1473 c 0,22,23
 775 1490 775 1490 782 1490 c 0,24,25
 793 1490 793 1490 790 1479 c 0,26,27
 787 1465 787 1465 759 1433 c 0,28,29
 533 1171 533 1171 389 927 c 128,-1,30
 245 683 245 683 182 451 c 0,31,32
 144 309 144 309 131 165.5 c 128,-1,33
 118 22 118 22 127 -121 c 0,34,35
 138 -246 138 -246 164.5 -349 c 128,-1,36
 191 -452 191 -452 234 -529 c 0,0,1
EndSplineSet
Substitution2: "Single Substitution lookup 34 subtable" zerowidthspace
PairPos2: "'kern' Horizontal Kerning in Arabic lookup 0 subtable" afii57509 dx=0 dy=0 dh=0 dv=0 dx=0 dy=0 dh=260 dv=0
PairPos2: "'kern' Horizontal Kerning in Arabic lookup 0 subtable" uni06AB dx=0 dy=0 dh=0 dv=0 dx=0 dy=0 dh=260 dv=0
PairPos2: "'kern' Horizontal Kerning in Arabic lookup 0 subtable" uni06A9 dx=0 dy=0 dh=0 dv=0 dx=0 dy=0 dh=260 dv=0
PairPos2: "'kern' Horizontal Kerning in Arabic lookup 0 subtable" uniFB94 dx=0 dy=0 dh=0 dv=0 dx=0 dy=0 dh=260 dv=0
PairPos2: "'kern' Horizontal Kerning in Arabic lookup 0 subtable" uniFBD5 dx=0 dy=0 dh=0 dv=0 dx=0 dy=0 dh=260 dv=0
PairPos2: "'kern' Horizontal Kerning in Arabic lookup 0 subtable" uni06AB.ini dx=0 dy=0 dh=0 dv=0 dx=0 dy=0 dh=260 dv=0
PairPos2: "'kern' Horizontal Kerning in Arabic lookup 0 subtable" uniFB90 dx=0 dy=0 dh=0 dv=0 dx=0 dy=0 dh=260 dv=0
PairPos2: "'kern' Horizontal Kerning in Arabic lookup 0 subtable" uniFEDB dx=0 dy=0 dh=0 dv=0 dx=0 dy=0 dh=260 dv=0
PairPos2: "'kern' Horizontal Kerning in Arabic lookup 0 subtable" uni0671 dx=0 dy=0 dh=0 dv=0 dx=0 dy=0 dh=208 dv=0
PairPos2: "'kern' Horizontal Kerning in Arabic lookup 0 subtable" afii57410 dx=0 dy=0 dh=0 dv=0 dx=0 dy=0 dh=208 dv=0
PairPos2: "'kern' Horizontal Kerning in Arabic lookup 0 subtable" afii57415 dx=0 dy=0 dh=0 dv=0 dx=0 dy=0 dh=52 dv=0
EndChar

StartChar: parenright
Encoding: 41 41 12
Width: 793
GlyphClass: 2
Flags: W
LayerCount: 2
Fore
SplineSet
300 1437 m 0,0,1
 291 1460 291 1460 295 1476 c 0,2,3
 300 1491 300 1491 310 1491 c 0,4,5
 324 1491 324 1491 337 1479 c 0,6,7
 409 1413 409 1413 459.5 1313.5 c 128,-1,8
 510 1214 510 1214 539 1083 c 0,9,10
 568 940 568 940 563 778 c 128,-1,11
 558 616 558 616 514 454 c 0,12,13
 432 147 432 147 203 -158 c 0,14,15
 101 -295 101 -295 -3.5 -397 c 128,-1,16
 -108 -499 -108 -499 -210 -565 c 0,17,18
 -224 -574 -224 -574 -232.5 -579.5 c 128,-1,19
 -241 -585 -241 -585 -249 -584 c 0,20,21
 -256 -584 -256 -584 -252 -571 c 0,22,23
 -250 -564 -250 -564 -244 -552.5 c 128,-1,24
 -238 -541 -238 -541 -226 -527 c 0,25,26
 230 -4 230 -4 352 454 c 0,27,28
 390 597 390 597 403 739.5 c 128,-1,29
 416 882 416 882 405 1027 c 0,30,31
 395 1154 395 1154 369.5 1256 c 128,-1,32
 344 1358 344 1358 300 1437 c 0,0,1
EndSplineSet
Substitution2: "Single Substitution lookup 34 subtable" zerowidthspace
PairPos2: "'kern' Horizontal Kerning in Arabic lookup 0 subtable" afii57509 dx=0 dy=0 dh=0 dv=0 dx=0 dy=0 dh=260 dv=0
PairPos2: "'kern' Horizontal Kerning in Arabic lookup 0 subtable" uni06AB dx=0 dy=0 dh=0 dv=0 dx=0 dy=0 dh=260 dv=0
PairPos2: "'kern' Horizontal Kerning in Arabic lookup 0 subtable" uni06A9 dx=0 dy=0 dh=0 dv=0 dx=0 dy=0 dh=260 dv=0
PairPos2: "'kern' Horizontal Kerning in Arabic lookup 0 subtable" uniFB94 dx=0 dy=0 dh=0 dv=0 dx=0 dy=0 dh=260 dv=0
PairPos2: "'kern' Horizontal Kerning in Arabic lookup 0 subtable" uniFBD5 dx=0 dy=0 dh=0 dv=0 dx=0 dy=0 dh=260 dv=0
PairPos2: "'kern' Horizontal Kerning in Arabic lookup 0 subtable" uni06AB.ini dx=0 dy=0 dh=0 dv=0 dx=0 dy=0 dh=260 dv=0
PairPos2: "'kern' Horizontal Kerning in Arabic lookup 0 subtable" uniFB90 dx=0 dy=0 dh=0 dv=0 dx=0 dy=0 dh=260 dv=0
PairPos2: "'kern' Horizontal Kerning in Arabic lookup 0 subtable" uniFEDB dx=0 dy=0 dh=0 dv=0 dx=0 dy=0 dh=260 dv=0
PairPos2: "'kern' Horizontal Kerning in Arabic lookup 0 subtable" uni0671 dx=0 dy=0 dh=0 dv=0 dx=0 dy=0 dh=208 dv=0
PairPos2: "'kern' Horizontal Kerning in Arabic lookup 0 subtable" afii57410 dx=0 dy=0 dh=0 dv=0 dx=0 dy=0 dh=208 dv=0
PairPos2: "'kern' Horizontal Kerning in Arabic lookup 0 subtable" afii57415 dx=0 dy=0 dh=0 dv=0 dx=0 dy=0 dh=52 dv=0
EndChar

StartChar: asterisk
Encoding: 42 42 13
Width: 1024
GlyphClass: 2
Flags: W
LayerCount: 2
Fore
SplineSet
271 879 m 0,0,1
 355 896 355 896 419 917.5 c 128,-1,2
 483 939 483 939 530 964 c 1,3,4
 496 987 496 987 441.5 1009.5 c 128,-1,5
 387 1032 387 1032 314 1052 c 0,6,7
 223 1077 223 1077 239 1138 c 0,8,9
 249 1173 249 1173 274.5 1192 c 128,-1,10
 300 1211 300 1211 329 1211 c 0,11,12
 371 1211 371 1211 416 1135 c 0,13,14
 459 1062 459 1062 554 997 c 1,15,-1
 560 1021 l 2,16,17
 583 1104 583 1104 577 1186 c 0,18,19
 575 1228 575 1228 576.5 1257 c 128,-1,20
 578 1286 578 1286 583 1303 c 0,21,22
 594 1343 594 1343 620.5 1363.5 c 128,-1,23
 647 1384 647 1384 678 1384 c 0,24,25
 714 1384 714 1384 726.5 1361 c 128,-1,26
 739 1338 739 1338 729 1302 c 0,27,28
 723 1278 723 1278 672 1193 c 0,29,30
 646 1150 646 1150 627 1101 c 128,-1,31
 608 1052 608 1052 592 992 c 1,32,33
 646 1025 646 1025 672.5 1041 c 128,-1,34
 699 1057 699 1057 712.5 1066 c 128,-1,35
 726 1075 726 1075 735.5 1082.5 c 128,-1,36
 745 1090 745 1090 764 1107 c 0,37,38
 811 1147 811 1147 839.5 1170 c 128,-1,39
 868 1193 868 1193 878 1200 c 0,40,41
 900 1214 900 1214 932 1214 c 0,42,43
 963 1214 963 1214 977 1192 c 128,-1,44
 991 1170 991 1170 982 1138 c 0,45,46
 966 1075 966 1075 870 1056 c 0,47,48
 792 1040 792 1040 725.5 1016.5 c 128,-1,49
 659 993 659 993 602 962 c 1,50,-1
 615 953 l 2,51,52
 631 943 631 943 654 932 c 128,-1,53
 677 921 677 921 704.5 910.5 c 128,-1,54
 732 900 732 900 762.5 891 c 128,-1,55
 793 882 793 882 825 875 c 0,56,57
 866 866 866 866 882.5 844 c 128,-1,58
 899 822 899 822 889 787 c 0,59,60
 878 748 878 748 848.5 731 c 128,-1,61
 819 714 819 714 793 714 c 0,62,63
 751 714 751 714 701 800 c 0,64,65
 676 845 676 845 648 876 c 128,-1,66
 620 907 620 907 587 925 c 2,67,-1
 576 932 l 1,68,-1
 573 919 l 2,69,70
 557 859 557 859 550.5 810.5 c 128,-1,71
 544 762 544 762 548 722 c 0,72,73
 556 644 556 644 551 626 c 0,74,75
 542 592 542 592 512.5 566.5 c 128,-1,76
 483 541 483 541 446 541 c 0,77,78
 412 541 412 541 399.5 565 c 128,-1,79
 387 589 387 589 397 624 c 0,80,81
 398 629 398 629 415 660.5 c 128,-1,82
 432 692 432 692 464 749 c 0,83,84
 487 791 487 791 504 827 c 128,-1,85
 521 863 521 863 528 889 c 0,86,87
 534 913 534 913 534 932 c 1,88,89
 439 887 439 887 341 801 c 0,90,91
 245 717 245 717 198 717 c 0,92,93
 161 717 161 717 149.5 738.5 c 128,-1,94
 138 760 138 760 145 784 c 0,95,96
 164 857 164 857 271 879 c 0,0,1
EndSplineSet
PairPos2: "'kern' Horizontal Kerning in Arabic lookup 0 subtable" afii57509 dx=0 dy=0 dh=0 dv=0 dx=0 dy=0 dh=260 dv=0
PairPos2: "'kern' Horizontal Kerning in Arabic lookup 0 subtable" uni06AB dx=0 dy=0 dh=0 dv=0 dx=0 dy=0 dh=260 dv=0
PairPos2: "'kern' Horizontal Kerning in Arabic lookup 0 subtable" uni06A9 dx=0 dy=0 dh=0 dv=0 dx=0 dy=0 dh=260 dv=0
PairPos2: "'kern' Horizontal Kerning in Arabic lookup 0 subtable" uniFB94 dx=0 dy=0 dh=0 dv=0 dx=0 dy=0 dh=260 dv=0
PairPos2: "'kern' Horizontal Kerning in Arabic lookup 0 subtable" uniFBD5 dx=0 dy=0 dh=0 dv=0 dx=0 dy=0 dh=260 dv=0
PairPos2: "'kern' Horizontal Kerning in Arabic lookup 0 subtable" uni06AB.ini dx=0 dy=0 dh=0 dv=0 dx=0 dy=0 dh=260 dv=0
PairPos2: "'kern' Horizontal Kerning in Arabic lookup 0 subtable" uniFB90 dx=0 dy=0 dh=0 dv=0 dx=0 dy=0 dh=260 dv=0
PairPos2: "'kern' Horizontal Kerning in Arabic lookup 0 subtable" uniFEDB dx=0 dy=0 dh=0 dv=0 dx=0 dy=0 dh=260 dv=0
PairPos2: "'kern' Horizontal Kerning in Arabic lookup 0 subtable" uni0671 dx=0 dy=0 dh=0 dv=0 dx=0 dy=0 dh=208 dv=0
PairPos2: "'kern' Horizontal Kerning in Arabic lookup 0 subtable" afii57410 dx=0 dy=0 dh=0 dv=0 dx=0 dy=0 dh=208 dv=0
PairPos2: "'kern' Horizontal Kerning in Arabic lookup 0 subtable" afii57415 dx=0 dy=0 dh=0 dv=0 dx=0 dy=0 dh=52 dv=0
EndChar

StartChar: plus
Encoding: 43 43 14
Width: 1050
GlyphClass: 2
Flags: W
LayerCount: 2
Fore
SplineSet
532 1036 m 1,0,-1
 674 1036 l 1,1,-1
 554 588 l 1,2,-1
 999 588 l 1,3,-1
 961 446 l 1,4,-1
 516 446 l 1,5,-1
 397 0 l 1,6,-1
 255 0 l 1,7,-1
 374 446 l 1,8,-1
 -73 446 l 1,9,-1
 -35 588 l 1,10,-1
 412 588 l 1,11,-1
 532 1036 l 1,0,-1
EndSplineSet
PairPos2: "'kern' Horizontal Kerning in Arabic lookup 0 subtable" afii57509 dx=0 dy=0 dh=0 dv=0 dx=0 dy=0 dh=260 dv=0
PairPos2: "'kern' Horizontal Kerning in Arabic lookup 0 subtable" uni06AB dx=0 dy=0 dh=0 dv=0 dx=0 dy=0 dh=260 dv=0
PairPos2: "'kern' Horizontal Kerning in Arabic lookup 0 subtable" uni06A9 dx=0 dy=0 dh=0 dv=0 dx=0 dy=0 dh=260 dv=0
PairPos2: "'kern' Horizontal Kerning in Arabic lookup 0 subtable" uniFB94 dx=0 dy=0 dh=0 dv=0 dx=0 dy=0 dh=260 dv=0
PairPos2: "'kern' Horizontal Kerning in Arabic lookup 0 subtable" uniFBD5 dx=0 dy=0 dh=0 dv=0 dx=0 dy=0 dh=260 dv=0
PairPos2: "'kern' Horizontal Kerning in Arabic lookup 0 subtable" uni06AB.ini dx=0 dy=0 dh=0 dv=0 dx=0 dy=0 dh=260 dv=0
PairPos2: "'kern' Horizontal Kerning in Arabic lookup 0 subtable" uniFB90 dx=0 dy=0 dh=0 dv=0 dx=0 dy=0 dh=260 dv=0
PairPos2: "'kern' Horizontal Kerning in Arabic lookup 0 subtable" uniFEDB dx=0 dy=0 dh=0 dv=0 dx=0 dy=0 dh=260 dv=0
PairPos2: "'kern' Horizontal Kerning in Arabic lookup 0 subtable" uni0671 dx=0 dy=0 dh=0 dv=0 dx=0 dy=0 dh=208 dv=0
PairPos2: "'kern' Horizontal Kerning in Arabic lookup 0 subtable" afii57410 dx=0 dy=0 dh=0 dv=0 dx=0 dy=0 dh=208 dv=0
PairPos2: "'kern' Horizontal Kerning in Arabic lookup 0 subtable" afii57415 dx=0 dy=0 dh=0 dv=0 dx=0 dy=0 dh=52 dv=0
EndChar

StartChar: comma
Encoding: 44 44 15
Width: 512
GlyphClass: 2
Flags: W
LayerCount: 2
Fore
SplineSet
-101 -251 m 1,0,1
 -45 -224 -45 -224 -4.5 -193.5 c 128,-1,2
 36 -163 36 -163 63.5 -133 c 128,-1,3
 91 -103 91 -103 106.5 -76 c 128,-1,4
 122 -49 122 -49 128 -29 c 0,5,6
 132 -15 132 -15 124 -11.5 c 128,-1,7
 116 -8 116 -8 106 -8 c 0,8,9
 89 -8 89 -8 71.5 -11.5 c 128,-1,10
 54 -15 54 -15 37 -15 c 0,11,12
 16 -15 16 -15 -2.5 -8 c 128,-1,13
 -21 -1 -21 -1 -33.5 12.5 c 128,-1,14
 -46 26 -46 26 -50 46 c 128,-1,15
 -54 66 -54 66 -47 93 c 0,16,17
 -41 113 -41 113 -29 133.5 c 128,-1,18
 -17 154 -17 154 3 171 c 128,-1,19
 23 188 23 188 49.5 199 c 128,-1,20
 76 210 76 210 110 210 c 0,21,22
 142 210 142 210 168 197.5 c 128,-1,23
 194 185 194 185 210 161 c 128,-1,24
 226 137 226 137 230.5 102 c 128,-1,25
 235 67 235 67 223 22 c 0,26,27
 196 -80 196 -80 100 -167 c 0,28,29
 51 -210 51 -210 3.5 -241 c 128,-1,30
 -44 -272 -44 -272 -92 -292 c 1,31,-1
 -101 -251 l 1,0,1
EndSplineSet
PairPos2: "'kern' Horizontal Kerning in Arabic lookup 0 subtable" afii57509 dx=0 dy=0 dh=0 dv=0 dx=0 dy=0 dh=260 dv=0
PairPos2: "'kern' Horizontal Kerning in Arabic lookup 0 subtable" uni06AB dx=0 dy=0 dh=0 dv=0 dx=0 dy=0 dh=260 dv=0
PairPos2: "'kern' Horizontal Kerning in Arabic lookup 0 subtable" uni06A9 dx=0 dy=0 dh=0 dv=0 dx=0 dy=0 dh=260 dv=0
PairPos2: "'kern' Horizontal Kerning in Arabic lookup 0 subtable" uniFB94 dx=0 dy=0 dh=0 dv=0 dx=0 dy=0 dh=260 dv=0
PairPos2: "'kern' Horizontal Kerning in Arabic lookup 0 subtable" uniFBD5 dx=0 dy=0 dh=0 dv=0 dx=0 dy=0 dh=260 dv=0
PairPos2: "'kern' Horizontal Kerning in Arabic lookup 0 subtable" uni06AB.ini dx=0 dy=0 dh=0 dv=0 dx=0 dy=0 dh=260 dv=0
PairPos2: "'kern' Horizontal Kerning in Arabic lookup 0 subtable" uniFB90 dx=0 dy=0 dh=0 dv=0 dx=0 dy=0 dh=260 dv=0
PairPos2: "'kern' Horizontal Kerning in Arabic lookup 0 subtable" uniFEDB dx=0 dy=0 dh=0 dv=0 dx=0 dy=0 dh=260 dv=0
PairPos2: "'kern' Horizontal Kerning in Arabic lookup 0 subtable" uni0671 dx=0 dy=0 dh=0 dv=0 dx=0 dy=0 dh=208 dv=0
PairPos2: "'kern' Horizontal Kerning in Arabic lookup 0 subtable" afii57410 dx=0 dy=0 dh=0 dv=0 dx=0 dy=0 dh=208 dv=0
PairPos2: "'kern' Horizontal Kerning in Arabic lookup 0 subtable" afii57415 dx=0 dy=0 dh=0 dv=0 dx=0 dy=0 dh=52 dv=0
EndChar

StartChar: hyphen
Encoding: 45 45 16
AltUni2: 0000ad.ffffffff.0 002212.ffffffff.0
Width: 1050
GlyphClass: 2
Flags: W
LayerCount: 2
Fore
SplineSet
887 588 m 1,0,-1
 849 446 l 1,1,-1
 39 446 l 1,2,-1
 77 588 l 1,3,-1
 887 588 l 1,0,-1
EndSplineSet
Substitution2: "<17011,16011>  in Arabic lookup 68 nested-substitutions 0 subtable" hyphenlow
Substitution2: "<17010,16010>  in Arabic lookup 66 nested-substitutions 0 subtable" hyphenlow
Substitution2: "Single Substitution lookup 34 subtable" hyphenlow
PairPos2: "'kern' Horizontal Kerning in Arabic lookup 0 subtable" afii57509 dx=0 dy=0 dh=0 dv=0 dx=0 dy=0 dh=260 dv=0
PairPos2: "'kern' Horizontal Kerning in Arabic lookup 0 subtable" uni06AB dx=0 dy=0 dh=0 dv=0 dx=0 dy=0 dh=260 dv=0
PairPos2: "'kern' Horizontal Kerning in Arabic lookup 0 subtable" uni06A9 dx=0 dy=0 dh=0 dv=0 dx=0 dy=0 dh=260 dv=0
PairPos2: "'kern' Horizontal Kerning in Arabic lookup 0 subtable" uniFB94 dx=0 dy=0 dh=0 dv=0 dx=0 dy=0 dh=260 dv=0
PairPos2: "'kern' Horizontal Kerning in Arabic lookup 0 subtable" uniFBD5 dx=0 dy=0 dh=0 dv=0 dx=0 dy=0 dh=260 dv=0
PairPos2: "'kern' Horizontal Kerning in Arabic lookup 0 subtable" uni06AB.ini dx=0 dy=0 dh=0 dv=0 dx=0 dy=0 dh=260 dv=0
PairPos2: "'kern' Horizontal Kerning in Arabic lookup 0 subtable" uniFB90 dx=0 dy=0 dh=0 dv=0 dx=0 dy=0 dh=260 dv=0
PairPos2: "'kern' Horizontal Kerning in Arabic lookup 0 subtable" uniFEDB dx=0 dy=0 dh=0 dv=0 dx=0 dy=0 dh=260 dv=0
PairPos2: "'kern' Horizontal Kerning in Arabic lookup 0 subtable" uni0671 dx=0 dy=0 dh=0 dv=0 dx=0 dy=0 dh=208 dv=0
PairPos2: "'kern' Horizontal Kerning in Arabic lookup 0 subtable" afii57410 dx=0 dy=0 dh=0 dv=0 dx=0 dy=0 dh=208 dv=0
PairPos2: "'kern' Horizontal Kerning in Arabic lookup 0 subtable" afii57415 dx=0 dy=0 dh=0 dv=0 dx=0 dy=0 dh=52 dv=0
EndChar

StartChar: period
Encoding: 46 46 17
Width: 529
GlyphClass: 2
Flags: W
LayerCount: 2
Fore
SplineSet
196 251 m 0,0,1
 190 230 190 230 176 209 c 128,-1,2
 162 188 162 188 142.5 172 c 128,-1,3
 123 156 123 156 100 146 c 128,-1,4
 77 136 77 136 53 136 c 0,5,6
 31 136 31 136 12 145 c 128,-1,7
 -7 154 -7 154 -19.5 169 c 128,-1,8
 -32 184 -32 184 -36 204.5 c 128,-1,9
 -40 225 -40 225 -34 248 c 0,10,11
 -27 273 -27 273 -11.5 294.5 c 128,-1,12
 4 316 4 316 24.5 332 c 128,-1,13
 45 348 45 348 69 357 c 128,-1,14
 93 366 93 366 115 366 c 0,15,16
 138 366 138 366 156 357 c 128,-1,17
 174 348 174 348 185 332.5 c 128,-1,18
 196 317 196 317 199 296 c 128,-1,19
 202 275 202 275 196 251 c 0,0,1
EndSplineSet
Substitution2: "<17016,16016> Urdu Swash lookup 75 subtable" uni06D4
Substitution2: "<17012,16012> Period to Comma in Arabic lookup 70 nested-substitutions 0 subtable" uni066C
Substitution2: "Single Substitution lookup 34 subtable" uni066C
Substitution2: "'salt' Stylistic Alternatives in Arabic lookup 28 subtable" uni06D4
PairPos2: "'kern' Horizontal Kerning in Arabic lookup 0 subtable" afii57509 dx=0 dy=0 dh=0 dv=0 dx=0 dy=0 dh=260 dv=0
PairPos2: "'kern' Horizontal Kerning in Arabic lookup 0 subtable" uni06AB dx=0 dy=0 dh=0 dv=0 dx=0 dy=0 dh=260 dv=0
PairPos2: "'kern' Horizontal Kerning in Arabic lookup 0 subtable" uni06A9 dx=0 dy=0 dh=0 dv=0 dx=0 dy=0 dh=260 dv=0
PairPos2: "'kern' Horizontal Kerning in Arabic lookup 0 subtable" uniFB94 dx=0 dy=0 dh=0 dv=0 dx=0 dy=0 dh=260 dv=0
PairPos2: "'kern' Horizontal Kerning in Arabic lookup 0 subtable" uniFBD5 dx=0 dy=0 dh=0 dv=0 dx=0 dy=0 dh=260 dv=0
PairPos2: "'kern' Horizontal Kerning in Arabic lookup 0 subtable" uni06AB.ini dx=0 dy=0 dh=0 dv=0 dx=0 dy=0 dh=260 dv=0
PairPos2: "'kern' Horizontal Kerning in Arabic lookup 0 subtable" uniFB90 dx=0 dy=0 dh=0 dv=0 dx=0 dy=0 dh=260 dv=0
PairPos2: "'kern' Horizontal Kerning in Arabic lookup 0 subtable" uniFEDB dx=0 dy=0 dh=0 dv=0 dx=0 dy=0 dh=260 dv=0
PairPos2: "'kern' Horizontal Kerning in Arabic lookup 0 subtable" uni0671 dx=0 dy=0 dh=0 dv=0 dx=0 dy=0 dh=208 dv=0
PairPos2: "'kern' Horizontal Kerning in Arabic lookup 0 subtable" afii57410 dx=0 dy=0 dh=0 dv=0 dx=0 dy=0 dh=208 dv=0
PairPos2: "'kern' Horizontal Kerning in Arabic lookup 0 subtable" afii57415 dx=0 dy=0 dh=0 dv=0 dx=0 dy=0 dh=52 dv=0
EndChar

StartChar: slash
Encoding: 47 47 18
Width: 569
GlyphClass: 2
Flags: W
LayerCount: 2
Fore
SplineSet
628 1384 m 1,0,-1
 730 1384 l 1,1,-1
 -103 -34 l 1,2,-1
 -206 -34 l 1,3,-1
 628 1384 l 1,0,-1
EndSplineSet
Substitution2: "<17016,16016> Urdu Swash lookup 75 subtable" slash
PairPos2: "'kern' Horizontal Kerning in Arabic lookup 0 subtable" afii57509 dx=0 dy=0 dh=0 dv=0 dx=0 dy=0 dh=260 dv=0
PairPos2: "'kern' Horizontal Kerning in Arabic lookup 0 subtable" uni06AB dx=0 dy=0 dh=0 dv=0 dx=0 dy=0 dh=260 dv=0
PairPos2: "'kern' Horizontal Kerning in Arabic lookup 0 subtable" uni06A9 dx=0 dy=0 dh=0 dv=0 dx=0 dy=0 dh=260 dv=0
PairPos2: "'kern' Horizontal Kerning in Arabic lookup 0 subtable" uniFB94 dx=0 dy=0 dh=0 dv=0 dx=0 dy=0 dh=260 dv=0
PairPos2: "'kern' Horizontal Kerning in Arabic lookup 0 subtable" uniFBD5 dx=0 dy=0 dh=0 dv=0 dx=0 dy=0 dh=260 dv=0
PairPos2: "'kern' Horizontal Kerning in Arabic lookup 0 subtable" uni06AB.ini dx=0 dy=0 dh=0 dv=0 dx=0 dy=0 dh=260 dv=0
PairPos2: "'kern' Horizontal Kerning in Arabic lookup 0 subtable" uniFB90 dx=0 dy=0 dh=0 dv=0 dx=0 dy=0 dh=260 dv=0
PairPos2: "'kern' Horizontal Kerning in Arabic lookup 0 subtable" uniFEDB dx=0 dy=0 dh=0 dv=0 dx=0 dy=0 dh=260 dv=0
PairPos2: "'kern' Horizontal Kerning in Arabic lookup 0 subtable" uni0671 dx=0 dy=0 dh=0 dv=0 dx=0 dy=0 dh=208 dv=0
PairPos2: "'kern' Horizontal Kerning in Arabic lookup 0 subtable" afii57410 dx=0 dy=0 dh=0 dv=0 dx=0 dy=0 dh=208 dv=0
PairPos2: "'kern' Horizontal Kerning in Arabic lookup 0 subtable" afii57415 dx=0 dy=0 dh=0 dv=0 dx=0 dy=0 dh=52 dv=0
EndChar

StartChar: zero
Encoding: 48 48 19
Width: 1024
GlyphClass: 2
Flags: W
LayerCount: 2
Fore
SplineSet
723 664 m 0,0,1
 755 785 755 785 772.5 882 c 128,-1,2
 790 979 790 979 794 1052 c 0,3,4
 797 1180 797 1180 757.5 1250 c 128,-1,5
 718 1320 718 1320 635 1320 c 0,6,7
 501 1320 501 1320 390.5 1150.5 c 128,-1,8
 280 981 280 981 192 654 c 0,9,10
 110 347 110 347 136 193 c 128,-1,11
 162 39 162 39 300 39 c 0,12,13
 374 39 374 39 434.5 80.5 c 128,-1,14
 495 122 495 122 545.5 201.5 c 128,-1,15
 596 281 596 281 639.5 397.5 c 128,-1,16
 683 514 683 514 723 664 c 0,0,1
947 1134 m 0,17,18
 997 941 997 941 929 687 c 0,19,20
 876 489 876 489 766 313 c 0,21,22
 563 -19 563 -19 272 -19 c 0,23,24
 170 -19 170 -19 99 31.5 c 128,-1,25
 28 82 28 82 -8.5 173.5 c 128,-1,26
 -45 265 -45 265 -44 394 c 128,-1,27
 -43 523 -43 523 -1 679 c 0,28,29
 34 807 34 807 87 918.5 c 128,-1,30
 140 1030 140 1030 209 1122 c 0,31,32
 304 1247 304 1247 415.5 1311.5 c 128,-1,33
 527 1376 527 1376 655 1376 c 0,34,35
 886 1376 886 1376 947 1134 c 0,17,18
EndSplineSet
Substitution2: "<17016,16016> Urdu Swash lookup 75 subtable" zero
PairPos2: "'kern' Horizontal Kerning in Arabic lookup 0 subtable" afii57509 dx=0 dy=0 dh=0 dv=0 dx=0 dy=0 dh=260 dv=0
PairPos2: "'kern' Horizontal Kerning in Arabic lookup 0 subtable" uni06AB dx=0 dy=0 dh=0 dv=0 dx=0 dy=0 dh=260 dv=0
PairPos2: "'kern' Horizontal Kerning in Arabic lookup 0 subtable" uni06A9 dx=0 dy=0 dh=0 dv=0 dx=0 dy=0 dh=260 dv=0
PairPos2: "'kern' Horizontal Kerning in Arabic lookup 0 subtable" uniFB94 dx=0 dy=0 dh=0 dv=0 dx=0 dy=0 dh=260 dv=0
PairPos2: "'kern' Horizontal Kerning in Arabic lookup 0 subtable" uniFBD5 dx=0 dy=0 dh=0 dv=0 dx=0 dy=0 dh=260 dv=0
PairPos2: "'kern' Horizontal Kerning in Arabic lookup 0 subtable" uni06AB.ini dx=0 dy=0 dh=0 dv=0 dx=0 dy=0 dh=260 dv=0
PairPos2: "'kern' Horizontal Kerning in Arabic lookup 0 subtable" uniFB90 dx=0 dy=0 dh=0 dv=0 dx=0 dy=0 dh=260 dv=0
PairPos2: "'kern' Horizontal Kerning in Arabic lookup 0 subtable" uniFEDB dx=0 dy=0 dh=0 dv=0 dx=0 dy=0 dh=260 dv=0
PairPos2: "'kern' Horizontal Kerning in Arabic lookup 0 subtable" uni0671 dx=0 dy=0 dh=0 dv=0 dx=0 dy=0 dh=208 dv=0
PairPos2: "'kern' Horizontal Kerning in Arabic lookup 0 subtable" afii57410 dx=0 dy=0 dh=0 dv=0 dx=0 dy=0 dh=208 dv=0
PairPos2: "'kern' Horizontal Kerning in Arabic lookup 0 subtable" afii57415 dx=0 dy=0 dh=0 dv=0 dx=0 dy=0 dh=52 dv=0
EndChar

StartChar: one
Encoding: 49 49 20
Width: 1024
GlyphClass: 2
Flags: W
LayerCount: 2
Fore
SplineSet
452 152 m 2,0,1
 442 114 442 114 445 91 c 128,-1,2
 448 68 448 68 466.5 55 c 128,-1,3
 485 42 485 42 521 37 c 128,-1,4
 557 32 557 32 614 30 c 1,5,-1
 606 0 l 1,6,-1
 40 0 l 1,7,-1
 48 32 l 1,8,9
 110 35 110 35 150 42 c 128,-1,10
 190 49 190 49 215.5 65 c 128,-1,11
 241 81 241 81 256 108.5 c 128,-1,12
 271 136 271 136 283 181 c 2,13,-1
 531 1105 l 2,14,15
 543 1153 543 1153 538 1177.5 c 128,-1,16
 533 1202 533 1202 494 1202 c 0,17,18
 481 1202 481 1202 462 1198 c 128,-1,19
 443 1194 443 1194 421.5 1187.5 c 128,-1,20
 400 1181 400 1181 378 1173 c 128,-1,21
 356 1165 356 1165 336 1157 c 1,22,-1
 343 1186 l 1,23,-1
 762 1374 l 1,24,-1
 775 1374 l 1,25,26
 777 1369 777 1369 777 1366.5 c 128,-1,27
 777 1364 777 1364 774 1354 c 2,28,-1
 452 152 l 2,0,1
EndSplineSet
Substitution2: "<17016,16016> Urdu Swash lookup 75 subtable" one
PairPos2: "'kern' Horizontal Kerning in Arabic lookup 0 subtable" afii57509 dx=0 dy=0 dh=0 dv=0 dx=0 dy=0 dh=260 dv=0
PairPos2: "'kern' Horizontal Kerning in Arabic lookup 0 subtable" uni06AB dx=0 dy=0 dh=0 dv=0 dx=0 dy=0 dh=260 dv=0
PairPos2: "'kern' Horizontal Kerning in Arabic lookup 0 subtable" uni06A9 dx=0 dy=0 dh=0 dv=0 dx=0 dy=0 dh=260 dv=0
PairPos2: "'kern' Horizontal Kerning in Arabic lookup 0 subtable" uniFB94 dx=0 dy=0 dh=0 dv=0 dx=0 dy=0 dh=260 dv=0
PairPos2: "'kern' Horizontal Kerning in Arabic lookup 0 subtable" uniFBD5 dx=0 dy=0 dh=0 dv=0 dx=0 dy=0 dh=260 dv=0
PairPos2: "'kern' Horizontal Kerning in Arabic lookup 0 subtable" uni06AB.ini dx=0 dy=0 dh=0 dv=0 dx=0 dy=0 dh=260 dv=0
PairPos2: "'kern' Horizontal Kerning in Arabic lookup 0 subtable" uniFB90 dx=0 dy=0 dh=0 dv=0 dx=0 dy=0 dh=260 dv=0
PairPos2: "'kern' Horizontal Kerning in Arabic lookup 0 subtable" uniFEDB dx=0 dy=0 dh=0 dv=0 dx=0 dy=0 dh=260 dv=0
PairPos2: "'kern' Horizontal Kerning in Arabic lookup 0 subtable" uni0671 dx=0 dy=0 dh=0 dv=0 dx=0 dy=0 dh=208 dv=0
PairPos2: "'kern' Horizontal Kerning in Arabic lookup 0 subtable" afii57410 dx=0 dy=0 dh=0 dv=0 dx=0 dy=0 dh=208 dv=0
PairPos2: "'kern' Horizontal Kerning in Arabic lookup 0 subtable" afii57415 dx=0 dy=0 dh=0 dv=0 dx=0 dy=0 dh=52 dv=0
EndChar

StartChar: two
Encoding: 50 50 21
Width: 1024
GlyphClass: 2
Flags: W
LayerCount: 2
Fore
SplineSet
-133 25 m 1,0,1
 102 216 102 216 262.5 354 c 128,-1,2
 423 492 423 492 512 582 c 0,3,4
 691 761 691 761 736 928 c 0,5,6
 756 1002 756 1002 749 1058.5 c 128,-1,7
 742 1115 742 1115 715 1153 c 128,-1,8
 688 1191 688 1191 644 1210 c 128,-1,9
 600 1229 600 1229 547 1229 c 0,10,11
 480 1229 480 1229 417.5 1203.5 c 128,-1,12
 355 1178 355 1178 299 1129 c 0,13,14
 268 1102 268 1102 235 1059.5 c 128,-1,15
 202 1017 202 1017 165 961 c 1,16,-1
 122 970 l 1,17,18
 234 1201 234 1201 376 1290 c 0,19,20
 520 1380 520 1380 658 1380 c 0,21,22
 743 1380 743 1380 805 1351 c 128,-1,23
 867 1322 867 1322 903.5 1272 c 128,-1,24
 940 1222 940 1222 949.5 1155.5 c 128,-1,25
 959 1089 959 1089 939 1013 c 0,26,27
 894 847 894 847 741 696 c 0,28,29
 664 620 664 620 506.5 486 c 128,-1,30
 349 352 349 352 108 158 c 1,31,-1
 564 158 l 2,32,33
 659 158 659 158 705 181 c 0,34,35
 747 203 747 203 822 293 c 1,36,-1
 846 280 l 1,37,-1
 661 0 l 1,38,-1
 -139 0 l 1,39,-1
 -133 25 l 1,0,1
EndSplineSet
Substitution2: "<17016,16016> Urdu Swash lookup 75 subtable" two
PairPos2: "'kern' Horizontal Kerning in Arabic lookup 0 subtable" afii57509 dx=0 dy=0 dh=0 dv=0 dx=0 dy=0 dh=260 dv=0
PairPos2: "'kern' Horizontal Kerning in Arabic lookup 0 subtable" uni06AB dx=0 dy=0 dh=0 dv=0 dx=0 dy=0 dh=260 dv=0
PairPos2: "'kern' Horizontal Kerning in Arabic lookup 0 subtable" uni06A9 dx=0 dy=0 dh=0 dv=0 dx=0 dy=0 dh=260 dv=0
PairPos2: "'kern' Horizontal Kerning in Arabic lookup 0 subtable" uniFB94 dx=0 dy=0 dh=0 dv=0 dx=0 dy=0 dh=260 dv=0
PairPos2: "'kern' Horizontal Kerning in Arabic lookup 0 subtable" uniFBD5 dx=0 dy=0 dh=0 dv=0 dx=0 dy=0 dh=260 dv=0
PairPos2: "'kern' Horizontal Kerning in Arabic lookup 0 subtable" uni06AB.ini dx=0 dy=0 dh=0 dv=0 dx=0 dy=0 dh=260 dv=0
PairPos2: "'kern' Horizontal Kerning in Arabic lookup 0 subtable" uniFB90 dx=0 dy=0 dh=0 dv=0 dx=0 dy=0 dh=260 dv=0
PairPos2: "'kern' Horizontal Kerning in Arabic lookup 0 subtable" uniFEDB dx=0 dy=0 dh=0 dv=0 dx=0 dy=0 dh=260 dv=0
PairPos2: "'kern' Horizontal Kerning in Arabic lookup 0 subtable" uni0671 dx=0 dy=0 dh=0 dv=0 dx=0 dy=0 dh=208 dv=0
PairPos2: "'kern' Horizontal Kerning in Arabic lookup 0 subtable" afii57410 dx=0 dy=0 dh=0 dv=0 dx=0 dy=0 dh=208 dv=0
PairPos2: "'kern' Horizontal Kerning in Arabic lookup 0 subtable" afii57415 dx=0 dy=0 dh=0 dv=0 dx=0 dy=0 dh=52 dv=0
EndChar

StartChar: three
Encoding: 51 51 22
Width: 1024
GlyphClass: 2
Flags: W
LayerCount: 2
Fore
SplineSet
274 62 m 0,0,1
 343 62 343 62 401.5 86 c 128,-1,2
 460 110 460 110 506 156 c 256,3,4
 552 202 552 202 583 255 c 128,-1,5
 614 308 614 308 629 360 c 0,6,7
 649 435 649 435 639.5 495 c 128,-1,8
 630 555 630 555 594 597 c 128,-1,9
 558 639 558 639 496 661.5 c 128,-1,10
 434 684 434 684 348 684 c 0,11,12
 334 684 334 684 322 683.5 c 128,-1,13
 310 683 310 683 293 681 c 1,14,-1
 298 709 l 1,15,16
 476 768 476 768 586 842 c 0,17,18
 698 916 698 916 731 1039 c 0,19,20
 745 1093 745 1093 736 1134 c 128,-1,21
 727 1175 727 1175 701.5 1203 c 128,-1,22
 676 1231 676 1231 637 1245.5 c 128,-1,23
 598 1260 598 1260 553 1260 c 0,24,25
 510 1260 510 1260 468 1248 c 128,-1,26
 426 1236 426 1236 383 1210 c 128,-1,27
 340 1184 340 1184 295.5 1143 c 128,-1,28
 251 1102 251 1102 203 1044 c 1,29,-1
 173 1051 l 1,30,31
 214 1127 214 1127 268.5 1188.5 c 128,-1,32
 323 1250 323 1250 386.5 1294 c 128,-1,33
 450 1338 450 1338 521 1362 c 128,-1,34
 592 1386 592 1386 664 1386 c 0,35,36
 742 1386 742 1386 795.5 1362.5 c 128,-1,37
 849 1339 849 1339 879.5 1300.5 c 128,-1,38
 910 1262 910 1262 917.5 1211.5 c 128,-1,39
 925 1161 925 1161 910 1107 c 0,40,41
 900 1067 900 1067 880 1031.5 c 128,-1,42
 860 996 860 996 828 962.5 c 128,-1,43
 796 929 796 929 751.5 895.5 c 128,-1,44
 707 862 707 862 647 827 c 1,45,46
 732 785 732 785 774 732 c 0,47,48
 854 627 854 627 810 465 c 0,49,50
 785 373 785 373 723 287 c 128,-1,51
 661 201 661 201 571 130 c 0,52,53
 478 61 478 61 360 23 c 128,-1,54
 242 -15 242 -15 106 -15 c 0,55,56
 43 -15 43 -15 3 -4.5 c 128,-1,57
 -37 6 -37 6 -58 22.5 c 128,-1,58
 -79 39 -79 39 -84.5 59.5 c 128,-1,59
 -90 80 -90 80 -84 101 c 0,60,61
 -81 114 -81 114 -73 127.5 c 128,-1,62
 -65 141 -65 141 -54 151.5 c 128,-1,63
 -43 162 -43 162 -27.5 169 c 128,-1,64
 -12 176 -12 176 6 176 c 0,65,66
 61 176 61 176 136 119 c 0,67,68
 174 92 174 92 209 77 c 128,-1,69
 244 62 244 62 274 62 c 0,0,1
EndSplineSet
Substitution2: "<17016,16016> Urdu Swash lookup 75 subtable" three
PairPos2: "'kern' Horizontal Kerning in Arabic lookup 0 subtable" afii57509 dx=0 dy=0 dh=0 dv=0 dx=0 dy=0 dh=260 dv=0
PairPos2: "'kern' Horizontal Kerning in Arabic lookup 0 subtable" uni06AB dx=0 dy=0 dh=0 dv=0 dx=0 dy=0 dh=260 dv=0
PairPos2: "'kern' Horizontal Kerning in Arabic lookup 0 subtable" uni06A9 dx=0 dy=0 dh=0 dv=0 dx=0 dy=0 dh=260 dv=0
PairPos2: "'kern' Horizontal Kerning in Arabic lookup 0 subtable" uniFB94 dx=0 dy=0 dh=0 dv=0 dx=0 dy=0 dh=260 dv=0
PairPos2: "'kern' Horizontal Kerning in Arabic lookup 0 subtable" uniFBD5 dx=0 dy=0 dh=0 dv=0 dx=0 dy=0 dh=260 dv=0
PairPos2: "'kern' Horizontal Kerning in Arabic lookup 0 subtable" uni06AB.ini dx=0 dy=0 dh=0 dv=0 dx=0 dy=0 dh=260 dv=0
PairPos2: "'kern' Horizontal Kerning in Arabic lookup 0 subtable" uniFB90 dx=0 dy=0 dh=0 dv=0 dx=0 dy=0 dh=260 dv=0
PairPos2: "'kern' Horizontal Kerning in Arabic lookup 0 subtable" uniFEDB dx=0 dy=0 dh=0 dv=0 dx=0 dy=0 dh=260 dv=0
PairPos2: "'kern' Horizontal Kerning in Arabic lookup 0 subtable" uni0671 dx=0 dy=0 dh=0 dv=0 dx=0 dy=0 dh=208 dv=0
PairPos2: "'kern' Horizontal Kerning in Arabic lookup 0 subtable" afii57410 dx=0 dy=0 dh=0 dv=0 dx=0 dy=0 dh=208 dv=0
PairPos2: "'kern' Horizontal Kerning in Arabic lookup 0 subtable" afii57415 dx=0 dy=0 dh=0 dv=0 dx=0 dy=0 dh=52 dv=0
EndChar

StartChar: four
Encoding: 52 52 23
Width: 1024
GlyphClass: 2
Flags: W
LayerCount: 2
Fore
SplineSet
707 1163 m 1,0,1
 539 990 539 990 371.5 819.5 c 128,-1,2
 204 649 204 649 36 475 c 1,3,-1
 523 475 l 1,4,-1
 707 1163 l 1,0,1
830 1374 m 1,5,-1
 927 1374 l 1,6,-1
 686 475 l 1,7,-1
 894 475 l 1,8,-1
 858 341 l 1,9,-1
 650 341 l 1,10,-1
 559 0 l 1,11,-1
 398 0 l 1,12,-1
 489 341 l 1,13,-1
 -86 341 l 1,14,-1
 -50 475 l 1,15,-1
 830 1374 l 1,5,-1
EndSplineSet
Substitution2: "<17016,16016> Urdu Swash lookup 75 subtable" four
PairPos2: "'kern' Horizontal Kerning in Arabic lookup 0 subtable" afii57509 dx=0 dy=0 dh=0 dv=0 dx=0 dy=0 dh=260 dv=0
PairPos2: "'kern' Horizontal Kerning in Arabic lookup 0 subtable" uni06AB dx=0 dy=0 dh=0 dv=0 dx=0 dy=0 dh=260 dv=0
PairPos2: "'kern' Horizontal Kerning in Arabic lookup 0 subtable" uni06A9 dx=0 dy=0 dh=0 dv=0 dx=0 dy=0 dh=260 dv=0
PairPos2: "'kern' Horizontal Kerning in Arabic lookup 0 subtable" uniFB94 dx=0 dy=0 dh=0 dv=0 dx=0 dy=0 dh=260 dv=0
PairPos2: "'kern' Horizontal Kerning in Arabic lookup 0 subtable" uniFBD5 dx=0 dy=0 dh=0 dv=0 dx=0 dy=0 dh=260 dv=0
PairPos2: "'kern' Horizontal Kerning in Arabic lookup 0 subtable" uni06AB.ini dx=0 dy=0 dh=0 dv=0 dx=0 dy=0 dh=260 dv=0
PairPos2: "'kern' Horizontal Kerning in Arabic lookup 0 subtable" uniFB90 dx=0 dy=0 dh=0 dv=0 dx=0 dy=0 dh=260 dv=0
PairPos2: "'kern' Horizontal Kerning in Arabic lookup 0 subtable" uniFEDB dx=0 dy=0 dh=0 dv=0 dx=0 dy=0 dh=260 dv=0
PairPos2: "'kern' Horizontal Kerning in Arabic lookup 0 subtable" uni0671 dx=0 dy=0 dh=0 dv=0 dx=0 dy=0 dh=208 dv=0
PairPos2: "'kern' Horizontal Kerning in Arabic lookup 0 subtable" afii57410 dx=0 dy=0 dh=0 dv=0 dx=0 dy=0 dh=208 dv=0
PairPos2: "'kern' Horizontal Kerning in Arabic lookup 0 subtable" afii57415 dx=0 dy=0 dh=0 dv=0 dx=0 dy=0 dh=52 dv=0
EndChar

StartChar: five
Encoding: 53 53 24
Width: 1024
GlyphClass: 2
Flags: W
LayerCount: 2
Fore
SplineSet
260 56 m 0,0,1
 317 56 317 56 376.5 83.5 c 128,-1,2
 436 111 436 111 488 158.5 c 128,-1,3
 540 206 540 206 580 269.5 c 128,-1,4
 620 333 620 333 639 405 c 0,5,6
 674 533 674 533 628 626.5 c 128,-1,7
 582 720 582 720 464 777 c 0,8,9
 397 807 397 807 329 823.5 c 128,-1,10
 261 840 261 840 196 840 c 0,11,12
 174 840 174 840 168.5 841.5 c 128,-1,13
 163 843 163 843 157 852 c 1,14,15
 161 859 161 859 164 865.5 c 128,-1,16
 167 872 167 872 170 877 c 2,17,-1
 517 1355 l 1,18,-1
 947 1355 l 2,19,20
 963 1355 963 1355 974.5 1357 c 128,-1,21
 986 1359 986 1359 997.5 1365 c 128,-1,22
 1009 1371 1009 1371 1022.5 1381.5 c 128,-1,23
 1036 1392 1036 1392 1055 1408 c 1,24,-1
 1068 1393 l 1,25,-1
 941 1207 l 2,26,27
 935 1198 935 1198 915 1195 c 128,-1,28
 895 1192 895 1192 875 1192 c 2,29,-1
 489 1192 l 1,30,31
 457 1149 457 1149 423.5 1105.5 c 128,-1,32
 390 1062 390 1062 358 1020 c 1,33,34
 435 1006 435 1006 491.5 993 c 128,-1,35
 548 980 548 980 583 967 c 0,36,37
 640 946 640 946 684.5 915.5 c 128,-1,38
 729 885 729 885 759 843 c 0,39,40
 813 771 813 771 825.5 683 c 128,-1,41
 838 595 838 595 811 495 c 0,42,43
 752 274 752 274 555 126 c 0,44,45
 359 -22 359 -22 117 -22 c 0,46,47
 -8 -22 -8 -22 -66 10.5 c 128,-1,48
 -124 43 -124 43 -106 109 c 0,49,50
 -98 140 -98 140 -70.5 162.5 c 128,-1,51
 -43 185 -43 185 2 185 c 0,52,53
 59 185 59 185 135 120 c 0,54,55
 173 88 173 88 204.5 72 c 128,-1,56
 236 56 236 56 260 56 c 0,0,1
EndSplineSet
Substitution2: "<17016,16016> Urdu Swash lookup 75 subtable" five
PairPos2: "'kern' Horizontal Kerning in Arabic lookup 0 subtable" afii57509 dx=0 dy=0 dh=0 dv=0 dx=0 dy=0 dh=260 dv=0
PairPos2: "'kern' Horizontal Kerning in Arabic lookup 0 subtable" uni06AB dx=0 dy=0 dh=0 dv=0 dx=0 dy=0 dh=260 dv=0
PairPos2: "'kern' Horizontal Kerning in Arabic lookup 0 subtable" uni06A9 dx=0 dy=0 dh=0 dv=0 dx=0 dy=0 dh=260 dv=0
PairPos2: "'kern' Horizontal Kerning in Arabic lookup 0 subtable" uniFB94 dx=0 dy=0 dh=0 dv=0 dx=0 dy=0 dh=260 dv=0
PairPos2: "'kern' Horizontal Kerning in Arabic lookup 0 subtable" uniFBD5 dx=0 dy=0 dh=0 dv=0 dx=0 dy=0 dh=260 dv=0
PairPos2: "'kern' Horizontal Kerning in Arabic lookup 0 subtable" uni06AB.ini dx=0 dy=0 dh=0 dv=0 dx=0 dy=0 dh=260 dv=0
PairPos2: "'kern' Horizontal Kerning in Arabic lookup 0 subtable" uniFB90 dx=0 dy=0 dh=0 dv=0 dx=0 dy=0 dh=260 dv=0
PairPos2: "'kern' Horizontal Kerning in Arabic lookup 0 subtable" uniFEDB dx=0 dy=0 dh=0 dv=0 dx=0 dy=0 dh=260 dv=0
PairPos2: "'kern' Horizontal Kerning in Arabic lookup 0 subtable" uni0671 dx=0 dy=0 dh=0 dv=0 dx=0 dy=0 dh=208 dv=0
PairPos2: "'kern' Horizontal Kerning in Arabic lookup 0 subtable" afii57410 dx=0 dy=0 dh=0 dv=0 dx=0 dy=0 dh=208 dv=0
PairPos2: "'kern' Horizontal Kerning in Arabic lookup 0 subtable" afii57415 dx=0 dy=0 dh=0 dv=0 dx=0 dy=0 dh=52 dv=0
EndChar

StartChar: six
Encoding: 54 54 25
Width: 1024
GlyphClass: 2
Flags: W
LayerCount: 2
Fore
SplineSet
696 614 m 0,0,1
 672 785 672 785 505 785 c 0,2,3
 430 785 430 785 371.5 761 c 128,-1,4
 313 737 313 737 275 694 c 0,5,6
 254 667 254 667 234 621.5 c 128,-1,7
 214 576 214 576 197 514 c 0,8,9
 176 434 176 434 172 353 c 128,-1,10
 168 272 168 272 181 196 c 0,11,12
 197 122 197 122 241 81.5 c 128,-1,13
 285 41 285 41 358 41 c 0,14,15
 418 41 418 41 469 70 c 128,-1,16
 520 99 520 99 560 146 c 128,-1,17
 600 193 600 193 629 253.5 c 128,-1,18
 658 314 658 314 675 378 c 0,19,20
 711 511 711 511 696 614 c 0,0,1
329 -22 m 0,21,22
 152 -22 152 -22 51 143 c 0,23,24
 1 226 1 226 -4.5 335.5 c 128,-1,25
 -10 445 -10 445 25 582 c 0,26,27
 121 938 121 938 467 1188 c 1,28,29
 775 1400 775 1400 1087 1400 c 1,30,-1
 1082 1365 l 1,31,32
 1017 1353 1017 1353 959.5 1338 c 128,-1,33
 902 1323 902 1323 850.5 1302.5 c 128,-1,34
 799 1282 799 1282 752 1255 c 128,-1,35
 705 1228 705 1228 660 1192 c 0,36,37
 614 1157 614 1157 567.5 1110.5 c 128,-1,38
 521 1064 521 1064 474 1010 c 0,39,40
 429 956 429 956 392 901 c 128,-1,41
 355 846 355 846 328 794 c 1,42,43
 415 840 415 840 483 860 c 128,-1,44
 551 880 551 880 618 880 c 0,45,46
 697 880 697 880 758 852.5 c 128,-1,47
 819 825 819 825 855 771 c 128,-1,48
 891 717 891 717 899 638 c 128,-1,49
 907 559 907 559 879 455 c 0,50,51
 831 273 831 273 674 125 c 0,52,53
 518 -22 518 -22 329 -22 c 0,21,22
EndSplineSet
Substitution2: "<17016,16016> Urdu Swash lookup 75 subtable" six
PairPos2: "'kern' Horizontal Kerning in Arabic lookup 0 subtable" afii57509 dx=0 dy=0 dh=0 dv=0 dx=0 dy=0 dh=260 dv=0
PairPos2: "'kern' Horizontal Kerning in Arabic lookup 0 subtable" uni06AB dx=0 dy=0 dh=0 dv=0 dx=0 dy=0 dh=260 dv=0
PairPos2: "'kern' Horizontal Kerning in Arabic lookup 0 subtable" uni06A9 dx=0 dy=0 dh=0 dv=0 dx=0 dy=0 dh=260 dv=0
PairPos2: "'kern' Horizontal Kerning in Arabic lookup 0 subtable" uniFB94 dx=0 dy=0 dh=0 dv=0 dx=0 dy=0 dh=260 dv=0
PairPos2: "'kern' Horizontal Kerning in Arabic lookup 0 subtable" uniFBD5 dx=0 dy=0 dh=0 dv=0 dx=0 dy=0 dh=260 dv=0
PairPos2: "'kern' Horizontal Kerning in Arabic lookup 0 subtable" uni06AB.ini dx=0 dy=0 dh=0 dv=0 dx=0 dy=0 dh=260 dv=0
PairPos2: "'kern' Horizontal Kerning in Arabic lookup 0 subtable" uniFB90 dx=0 dy=0 dh=0 dv=0 dx=0 dy=0 dh=260 dv=0
PairPos2: "'kern' Horizontal Kerning in Arabic lookup 0 subtable" uniFEDB dx=0 dy=0 dh=0 dv=0 dx=0 dy=0 dh=260 dv=0
PairPos2: "'kern' Horizontal Kerning in Arabic lookup 0 subtable" uni0671 dx=0 dy=0 dh=0 dv=0 dx=0 dy=0 dh=208 dv=0
PairPos2: "'kern' Horizontal Kerning in Arabic lookup 0 subtable" afii57410 dx=0 dy=0 dh=0 dv=0 dx=0 dy=0 dh=208 dv=0
PairPos2: "'kern' Horizontal Kerning in Arabic lookup 0 subtable" afii57415 dx=0 dy=0 dh=0 dv=0 dx=0 dy=0 dh=52 dv=0
EndChar

StartChar: seven
Encoding: 55 55 26
Width: 1024
GlyphClass: 2
Flags: W
LayerCount: 2
Fore
SplineSet
1082 1355 m 1,0,-1
 1072 1321 l 1,1,-1
 280 -19 l 1,2,-1
 146 -19 l 1,3,-1
 879 1202 l 1,4,-1
 444 1202 l 2,5,6
 395 1202 395 1202 360.5 1195 c 128,-1,7
 326 1188 326 1188 296 1170 c 128,-1,8
 266 1152 266 1152 233.5 1120 c 128,-1,9
 201 1088 201 1088 154 1037 c 1,10,-1
 122 1054 l 1,11,12
 132 1068 132 1068 147.5 1091.5 c 128,-1,13
 163 1115 163 1115 181.5 1143 c 128,-1,14
 200 1171 200 1171 220 1200 c 128,-1,15
 240 1229 240 1229 257 1254.5 c 128,-1,16
 274 1280 274 1280 286.5 1299 c 128,-1,17
 299 1318 299 1318 304 1325 c 256,18,19
 309 1332 309 1332 313.5 1339.5 c 128,-1,20
 318 1347 318 1347 323 1355 c 1,21,-1
 1082 1355 l 1,0,-1
EndSplineSet
Substitution2: "<17016,16016> Urdu Swash lookup 75 subtable" seven
PairPos2: "'kern' Horizontal Kerning in Arabic lookup 0 subtable" afii57509 dx=0 dy=0 dh=0 dv=0 dx=0 dy=0 dh=260 dv=0
PairPos2: "'kern' Horizontal Kerning in Arabic lookup 0 subtable" uni06AB dx=0 dy=0 dh=0 dv=0 dx=0 dy=0 dh=260 dv=0
PairPos2: "'kern' Horizontal Kerning in Arabic lookup 0 subtable" uni06A9 dx=0 dy=0 dh=0 dv=0 dx=0 dy=0 dh=260 dv=0
PairPos2: "'kern' Horizontal Kerning in Arabic lookup 0 subtable" uniFB94 dx=0 dy=0 dh=0 dv=0 dx=0 dy=0 dh=260 dv=0
PairPos2: "'kern' Horizontal Kerning in Arabic lookup 0 subtable" uniFBD5 dx=0 dy=0 dh=0 dv=0 dx=0 dy=0 dh=260 dv=0
PairPos2: "'kern' Horizontal Kerning in Arabic lookup 0 subtable" uni06AB.ini dx=0 dy=0 dh=0 dv=0 dx=0 dy=0 dh=260 dv=0
PairPos2: "'kern' Horizontal Kerning in Arabic lookup 0 subtable" uniFB90 dx=0 dy=0 dh=0 dv=0 dx=0 dy=0 dh=260 dv=0
PairPos2: "'kern' Horizontal Kerning in Arabic lookup 0 subtable" uniFEDB dx=0 dy=0 dh=0 dv=0 dx=0 dy=0 dh=260 dv=0
PairPos2: "'kern' Horizontal Kerning in Arabic lookup 0 subtable" uni0671 dx=0 dy=0 dh=0 dv=0 dx=0 dy=0 dh=208 dv=0
PairPos2: "'kern' Horizontal Kerning in Arabic lookup 0 subtable" afii57410 dx=0 dy=0 dh=0 dv=0 dx=0 dy=0 dh=208 dv=0
PairPos2: "'kern' Horizontal Kerning in Arabic lookup 0 subtable" afii57415 dx=0 dy=0 dh=0 dv=0 dx=0 dy=0 dh=52 dv=0
EndChar

StartChar: eight
Encoding: 56 56 27
Width: 1024
GlyphClass: 2
Flags: W
LayerCount: 2
Fore
SplineSet
700 910 m 0,0,1
 783 987 783 987 812 1094 c 0,2,3
 824 1140 824 1140 820.5 1181.5 c 128,-1,4
 817 1223 817 1223 796 1254 c 128,-1,5
 775 1285 775 1285 735.5 1303 c 128,-1,6
 696 1321 696 1321 637 1321 c 0,7,8
 592 1321 592 1321 549 1305.5 c 128,-1,9
 506 1290 506 1290 470.5 1263 c 128,-1,10
 435 1236 435 1236 409.5 1200 c 128,-1,11
 384 1164 384 1164 373 1123 c 0,12,13
 361 1077 361 1077 368 1033.5 c 128,-1,14
 375 990 375 990 398 949.5 c 128,-1,15
 421 909 421 909 458 872 c 128,-1,16
 495 835 495 835 542 800 c 1,17,18
 651 864 651 864 700 910 c 0,0,1
616 259 m 0,19,20
 644 365 644 365 600 433 c 0,21,22
 578 466 578 466 526.5 518.5 c 128,-1,23
 475 571 475 571 399 637 c 1,24,25
 348 609 348 609 307 572 c 128,-1,26
 266 535 266 535 235.5 495 c 128,-1,27
 205 455 205 455 185 413.5 c 128,-1,28
 165 372 165 372 155 334 c 0,29,30
 137 267 137 267 141 212 c 128,-1,31
 145 157 145 157 167.5 118 c 128,-1,32
 190 79 190 79 230 57.5 c 128,-1,33
 270 36 270 36 324 36 c 0,34,35
 382 36 382 36 430 53.5 c 128,-1,36
 478 71 478 71 515.5 101 c 128,-1,37
 553 131 553 131 578.5 172 c 128,-1,38
 604 213 604 213 616 259 c 0,19,20
220 850 m 0,39,40
 173 947 173 947 204 1063 c 0,41,42
 222 1129 222 1129 266 1186.5 c 128,-1,43
 310 1244 310 1244 373.5 1287 c 128,-1,44
 437 1330 437 1330 516 1354.5 c 128,-1,45
 595 1379 595 1379 683 1379 c 0,46,47
 763 1379 763 1379 821.5 1355.5 c 128,-1,48
 880 1332 880 1332 915 1292 c 128,-1,49
 950 1252 950 1252 961 1199.5 c 128,-1,50
 972 1147 972 1147 956 1089 c 0,51,52
 940 1030 940 1030 903 978 c 128,-1,53
 866 926 866 926 804 879 c 0,54,55
 770 853 770 853 717 823 c 128,-1,56
 664 793 664 793 592 758 c 1,57,58
 658 695 658 695 705 640.5 c 128,-1,59
 752 586 752 586 775 539 c 0,60,61
 823 444 823 444 789 319 c 0,62,63
 770 246 770 246 724.5 184 c 128,-1,64
 679 122 679 122 614.5 76 c 128,-1,65
 550 30 550 30 469.5 4 c 128,-1,66
 389 -22 389 -22 299 -22 c 0,67,68
 219 -22 219 -22 153 1 c 128,-1,69
 87 24 87 24 44.5 67 c 128,-1,70
 2 110 2 110 -13.5 171 c 128,-1,71
 -29 232 -29 232 -9 308 c 0,72,73
 25 434 25 434 131 532 c 0,74,75
 166 564 166 564 222.5 601 c 128,-1,76
 279 638 279 638 354 682 c 1,77,78
 303 735 303 735 269.5 777 c 128,-1,79
 236 819 236 819 220 850 c 0,39,40
EndSplineSet
Substitution2: "<17016,16016> Urdu Swash lookup 75 subtable" eight
PairPos2: "'kern' Horizontal Kerning in Arabic lookup 0 subtable" afii57509 dx=0 dy=0 dh=0 dv=0 dx=0 dy=0 dh=260 dv=0
PairPos2: "'kern' Horizontal Kerning in Arabic lookup 0 subtable" uni06AB dx=0 dy=0 dh=0 dv=0 dx=0 dy=0 dh=260 dv=0
PairPos2: "'kern' Horizontal Kerning in Arabic lookup 0 subtable" uni06A9 dx=0 dy=0 dh=0 dv=0 dx=0 dy=0 dh=260 dv=0
PairPos2: "'kern' Horizontal Kerning in Arabic lookup 0 subtable" uniFB94 dx=0 dy=0 dh=0 dv=0 dx=0 dy=0 dh=260 dv=0
PairPos2: "'kern' Horizontal Kerning in Arabic lookup 0 subtable" uniFBD5 dx=0 dy=0 dh=0 dv=0 dx=0 dy=0 dh=260 dv=0
PairPos2: "'kern' Horizontal Kerning in Arabic lookup 0 subtable" uni06AB.ini dx=0 dy=0 dh=0 dv=0 dx=0 dy=0 dh=260 dv=0
PairPos2: "'kern' Horizontal Kerning in Arabic lookup 0 subtable" uniFB90 dx=0 dy=0 dh=0 dv=0 dx=0 dy=0 dh=260 dv=0
PairPos2: "'kern' Horizontal Kerning in Arabic lookup 0 subtable" uniFEDB dx=0 dy=0 dh=0 dv=0 dx=0 dy=0 dh=260 dv=0
PairPos2: "'kern' Horizontal Kerning in Arabic lookup 0 subtable" uni0671 dx=0 dy=0 dh=0 dv=0 dx=0 dy=0 dh=208 dv=0
PairPos2: "'kern' Horizontal Kerning in Arabic lookup 0 subtable" afii57410 dx=0 dy=0 dh=0 dv=0 dx=0 dy=0 dh=208 dv=0
PairPos2: "'kern' Horizontal Kerning in Arabic lookup 0 subtable" afii57415 dx=0 dy=0 dh=0 dv=0 dx=0 dy=0 dh=52 dv=0
EndChar

StartChar: nine
Encoding: 57 57 28
Width: 1024
GlyphClass: 2
Flags: W
LayerCount: 2
Fore
SplineSet
713 675 m 0,0,1
 716 679 716 679 723.5 700.5 c 128,-1,2
 731 722 731 722 740 750 c 128,-1,3
 749 778 749 778 757.5 807 c 128,-1,4
 766 836 766 836 771 854 c 0,5,6
 798 956 798 956 804 1041.5 c 128,-1,7
 810 1127 810 1127 792 1189 c 128,-1,8
 774 1251 774 1251 732 1285.5 c 128,-1,9
 690 1320 690 1320 622 1320 c 0,10,11
 573 1320 573 1320 527 1298 c 128,-1,12
 481 1276 481 1276 440.5 1231.5 c 128,-1,13
 400 1187 400 1187 366.5 1121 c 128,-1,14
 333 1055 333 1055 310 967 c 0,15,16
 272 824 272 824 293 697 c 0,17,18
 316 574 316 574 464 574 c 0,19,20
 496 574 496 574 536 585 c 128,-1,21
 576 596 576 596 612.5 612 c 128,-1,22
 649 628 649 628 677 645.5 c 128,-1,23
 705 663 705 663 713 675 c 0,0,1
960 812 m 0,24,25
 920 662 920 662 820 503 c 0,26,27
 770 423 770 423 710.5 354 c 128,-1,28
 651 285 651 285 580 223 c 0,29,30
 499 152 499 152 403 99.5 c 128,-1,31
 307 47 307 47 201 12 c 0,32,33
 141 -8 141 -8 67.5 -22.5 c 128,-1,34
 -6 -37 -6 -37 -90 -48 c 1,35,-1
 -89 -6 l 1,36,37
 -35 7 -35 7 13 19.5 c 128,-1,38
 61 32 61 32 98 45 c 0,39,40
 164 69 164 69 222.5 99.5 c 128,-1,41
 281 130 281 130 328 165 c 0,42,43
 394 215 394 215 452.5 272 c 128,-1,44
 511 329 511 329 556 388 c 0,45,46
 604 449 604 449 637.5 501 c 128,-1,47
 671 553 671 553 691 595 c 1,48,49
 682 590 682 590 671.5 582.5 c 128,-1,50
 661 575 661 575 652 570 c 0,51,52
 620 550 620 550 582 533.5 c 128,-1,53
 544 517 544 517 505 505.5 c 128,-1,54
 466 494 466 494 428 487.5 c 128,-1,55
 390 481 390 481 358 481 c 0,56,57
 188 481 188 481 120 601 c 0,58,59
 86 661 86 661 81.5 733.5 c 128,-1,60
 77 806 77 806 99 890 c 0,61,62
 128 997 128 997 183 1086.5 c 128,-1,63
 238 1176 238 1176 311.5 1241 c 128,-1,64
 385 1306 385 1306 472 1342.5 c 128,-1,65
 559 1379 559 1379 652 1379 c 0,66,67
 872 1379 872 1379 946 1203 c 0,68,69
 981 1115 981 1115 985 1018 c 128,-1,70
 989 921 989 921 960 812 c 0,24,25
EndSplineSet
Substitution2: "<17016,16016> Urdu Swash lookup 75 subtable" nine
PairPos2: "'kern' Horizontal Kerning in Arabic lookup 0 subtable" afii57509 dx=0 dy=0 dh=0 dv=0 dx=0 dy=0 dh=260 dv=0
PairPos2: "'kern' Horizontal Kerning in Arabic lookup 0 subtable" uni06AB dx=0 dy=0 dh=0 dv=0 dx=0 dy=0 dh=260 dv=0
PairPos2: "'kern' Horizontal Kerning in Arabic lookup 0 subtable" uni06A9 dx=0 dy=0 dh=0 dv=0 dx=0 dy=0 dh=260 dv=0
PairPos2: "'kern' Horizontal Kerning in Arabic lookup 0 subtable" uniFB94 dx=0 dy=0 dh=0 dv=0 dx=0 dy=0 dh=260 dv=0
PairPos2: "'kern' Horizontal Kerning in Arabic lookup 0 subtable" uniFBD5 dx=0 dy=0 dh=0 dv=0 dx=0 dy=0 dh=260 dv=0
PairPos2: "'kern' Horizontal Kerning in Arabic lookup 0 subtable" uni06AB.ini dx=0 dy=0 dh=0 dv=0 dx=0 dy=0 dh=260 dv=0
PairPos2: "'kern' Horizontal Kerning in Arabic lookup 0 subtable" uniFB90 dx=0 dy=0 dh=0 dv=0 dx=0 dy=0 dh=260 dv=0
PairPos2: "'kern' Horizontal Kerning in Arabic lookup 0 subtable" uniFEDB dx=0 dy=0 dh=0 dv=0 dx=0 dy=0 dh=260 dv=0
PairPos2: "'kern' Horizontal Kerning in Arabic lookup 0 subtable" uni0671 dx=0 dy=0 dh=0 dv=0 dx=0 dy=0 dh=208 dv=0
PairPos2: "'kern' Horizontal Kerning in Arabic lookup 0 subtable" afii57410 dx=0 dy=0 dh=0 dv=0 dx=0 dy=0 dh=208 dv=0
PairPos2: "'kern' Horizontal Kerning in Arabic lookup 0 subtable" afii57415 dx=0 dy=0 dh=0 dv=0 dx=0 dy=0 dh=52 dv=0
EndChar

StartChar: colon
Encoding: 58 58 29
Width: 534
GlyphClass: 2
Flags: W
LayerCount: 2
Fore
SplineSet
339 767 m 0,0,1
 333 743 333 743 318 722 c 128,-1,2
 303 701 303 701 283.5 685 c 128,-1,3
 264 669 264 669 241 659.5 c 128,-1,4
 218 650 218 650 195 650 c 0,5,6
 171 650 171 650 152.5 659 c 128,-1,7
 134 668 134 668 122 683 c 128,-1,8
 110 698 110 698 106 718.5 c 128,-1,9
 102 739 102 739 108 763 c 256,10,11
 114 787 114 787 129.5 808.5 c 128,-1,12
 145 830 145 830 165 845.5 c 128,-1,13
 185 861 185 861 208.5 870.5 c 128,-1,14
 232 880 232 880 256 880 c 0,15,16
 279 880 279 880 297 870 c 128,-1,17
 315 860 315 860 326.5 844.5 c 128,-1,18
 338 829 338 829 341.5 808.5 c 128,-1,19
 345 788 345 788 339 767 c 0,0,1
198 251 m 0,20,21
 192 230 192 230 178 209 c 128,-1,22
 164 188 164 188 144.5 172 c 128,-1,23
 125 156 125 156 102 146 c 128,-1,24
 79 136 79 136 54 136 c 0,25,26
 32 136 32 136 13 145 c 128,-1,27
 -6 154 -6 154 -18.5 169 c 128,-1,28
 -31 184 -31 184 -35.5 204.5 c 128,-1,29
 -40 225 -40 225 -34 248 c 0,30,31
 -28 272 -28 272 -11.5 293.5 c 128,-1,32
 5 315 5 315 26 331 c 128,-1,33
 47 347 47 347 70.5 356.5 c 128,-1,34
 94 366 94 366 116 366 c 0,35,36
 163 366 163 366 187 333.5 c 128,-1,37
 211 301 211 301 198 251 c 0,20,21
EndSplineSet
Substitution2: "<17016,16016> Urdu Swash lookup 75 subtable" colon
PairPos2: "'kern' Horizontal Kerning in Arabic lookup 0 subtable" afii57509 dx=0 dy=0 dh=0 dv=0 dx=0 dy=0 dh=260 dv=0
PairPos2: "'kern' Horizontal Kerning in Arabic lookup 0 subtable" uni06AB dx=0 dy=0 dh=0 dv=0 dx=0 dy=0 dh=260 dv=0
PairPos2: "'kern' Horizontal Kerning in Arabic lookup 0 subtable" uni06A9 dx=0 dy=0 dh=0 dv=0 dx=0 dy=0 dh=260 dv=0
PairPos2: "'kern' Horizontal Kerning in Arabic lookup 0 subtable" uniFB94 dx=0 dy=0 dh=0 dv=0 dx=0 dy=0 dh=260 dv=0
PairPos2: "'kern' Horizontal Kerning in Arabic lookup 0 subtable" uniFBD5 dx=0 dy=0 dh=0 dv=0 dx=0 dy=0 dh=260 dv=0
PairPos2: "'kern' Horizontal Kerning in Arabic lookup 0 subtable" uni06AB.ini dx=0 dy=0 dh=0 dv=0 dx=0 dy=0 dh=260 dv=0
PairPos2: "'kern' Horizontal Kerning in Arabic lookup 0 subtable" uniFB90 dx=0 dy=0 dh=0 dv=0 dx=0 dy=0 dh=260 dv=0
PairPos2: "'kern' Horizontal Kerning in Arabic lookup 0 subtable" uniFEDB dx=0 dy=0 dh=0 dv=0 dx=0 dy=0 dh=260 dv=0
PairPos2: "'kern' Horizontal Kerning in Arabic lookup 0 subtable" uni0671 dx=0 dy=0 dh=0 dv=0 dx=0 dy=0 dh=208 dv=0
PairPos2: "'kern' Horizontal Kerning in Arabic lookup 0 subtable" afii57410 dx=0 dy=0 dh=0 dv=0 dx=0 dy=0 dh=208 dv=0
PairPos2: "'kern' Horizontal Kerning in Arabic lookup 0 subtable" afii57415 dx=0 dy=0 dh=0 dv=0 dx=0 dy=0 dh=52 dv=0
EndChar

StartChar: semicolon
Encoding: 59 59 30
Width: 569
GlyphClass: 2
Flags: W
LayerCount: 2
Fore
SplineSet
193 827 m 256,0,1
 199 851 199 851 214 872 c 128,-1,2
 229 893 229 893 248.5 908.5 c 128,-1,3
 268 924 268 924 291 933 c 128,-1,4
 314 942 314 942 338 942 c 256,5,6
 362 942 362 942 380.5 933 c 128,-1,7
 399 924 399 924 410 908 c 128,-1,8
 421 892 421 892 424.5 871.5 c 128,-1,9
 428 851 428 851 422 827 c 0,10,11
 416 804 416 804 401.5 783 c 128,-1,12
 387 762 387 762 367.5 746.5 c 128,-1,13
 348 731 348 731 324.5 721.5 c 128,-1,14
 301 712 301 712 276 712 c 256,15,16
 251 712 251 712 232.5 721 c 128,-1,17
 214 730 214 730 203 745.5 c 128,-1,18
 192 761 192 761 189.5 782 c 128,-1,19
 187 803 187 803 193 827 c 256,0,1
-61 -251 m 1,20,21
 -5 -224 -5 -224 35.5 -193.5 c 128,-1,22
 76 -163 76 -163 103.5 -133 c 128,-1,23
 131 -103 131 -103 146.5 -76 c 128,-1,24
 162 -49 162 -49 168 -29 c 0,25,26
 172 -15 172 -15 164 -11.5 c 128,-1,27
 156 -8 156 -8 146 -8 c 0,28,29
 129 -8 129 -8 111.5 -11.5 c 128,-1,30
 94 -15 94 -15 77 -15 c 0,31,32
 56 -15 56 -15 37.5 -8 c 128,-1,33
 19 -1 19 -1 6.5 12.5 c 128,-1,34
 -6 26 -6 26 -10 46 c 128,-1,35
 -14 66 -14 66 -7 93 c 0,36,37
 -1 113 -1 113 11.5 133.5 c 128,-1,38
 24 154 24 154 43.5 171 c 128,-1,39
 63 188 63 188 89.5 199 c 128,-1,40
 116 210 116 210 150 210 c 0,41,42
 182 210 182 210 208 197.5 c 128,-1,43
 234 185 234 185 250 161 c 128,-1,44
 266 137 266 137 270.5 102 c 128,-1,45
 275 67 275 67 263 22 c 0,46,47
 250 -28 250 -28 217 -76 c 128,-1,48
 184 -124 184 -124 140.5 -166 c 128,-1,49
 97 -208 97 -208 46.5 -240.5 c 128,-1,50
 -4 -273 -4 -273 -52 -292 c 1,51,-1
 -61 -251 l 1,20,21
EndSplineSet
Substitution2: "<17016,16016> Urdu Swash lookup 75 subtable" semicolon
PairPos2: "'kern' Horizontal Kerning in Arabic lookup 0 subtable" afii57509 dx=0 dy=0 dh=0 dv=0 dx=0 dy=0 dh=260 dv=0
PairPos2: "'kern' Horizontal Kerning in Arabic lookup 0 subtable" uni06AB dx=0 dy=0 dh=0 dv=0 dx=0 dy=0 dh=260 dv=0
PairPos2: "'kern' Horizontal Kerning in Arabic lookup 0 subtable" uni06A9 dx=0 dy=0 dh=0 dv=0 dx=0 dy=0 dh=260 dv=0
PairPos2: "'kern' Horizontal Kerning in Arabic lookup 0 subtable" uniFB94 dx=0 dy=0 dh=0 dv=0 dx=0 dy=0 dh=260 dv=0
PairPos2: "'kern' Horizontal Kerning in Arabic lookup 0 subtable" uniFBD5 dx=0 dy=0 dh=0 dv=0 dx=0 dy=0 dh=260 dv=0
PairPos2: "'kern' Horizontal Kerning in Arabic lookup 0 subtable" uni06AB.ini dx=0 dy=0 dh=0 dv=0 dx=0 dy=0 dh=260 dv=0
PairPos2: "'kern' Horizontal Kerning in Arabic lookup 0 subtable" uniFB90 dx=0 dy=0 dh=0 dv=0 dx=0 dy=0 dh=260 dv=0
PairPos2: "'kern' Horizontal Kerning in Arabic lookup 0 subtable" uniFEDB dx=0 dy=0 dh=0 dv=0 dx=0 dy=0 dh=260 dv=0
PairPos2: "'kern' Horizontal Kerning in Arabic lookup 0 subtable" uni0671 dx=0 dy=0 dh=0 dv=0 dx=0 dy=0 dh=208 dv=0
PairPos2: "'kern' Horizontal Kerning in Arabic lookup 0 subtable" afii57410 dx=0 dy=0 dh=0 dv=0 dx=0 dy=0 dh=208 dv=0
PairPos2: "'kern' Horizontal Kerning in Arabic lookup 0 subtable" afii57415 dx=0 dy=0 dh=0 dv=0 dx=0 dy=0 dh=52 dv=0
EndChar

StartChar: less
Encoding: 60 60 31
Width: 1050
GlyphClass: 2
Flags: W
LayerCount: 2
Fore
SplineSet
878 136 m 1,0,-1
 837 -17 l 1,1,-1
 -61 489 l 1,2,-1
 -46 546 l 1,3,-1
 1124 1053 l 1,4,-1
 1082 899 l 1,5,-1
 217 519 l 1,6,-1
 878 136 l 1,0,-1
EndSplineSet
Substitution2: "<17016,16016> Urdu Swash lookup 75 subtable" less
PairPos2: "'kern' Horizontal Kerning in Arabic lookup 0 subtable" afii57509 dx=0 dy=0 dh=0 dv=0 dx=0 dy=0 dh=260 dv=0
PairPos2: "'kern' Horizontal Kerning in Arabic lookup 0 subtable" uni06AB dx=0 dy=0 dh=0 dv=0 dx=0 dy=0 dh=260 dv=0
PairPos2: "'kern' Horizontal Kerning in Arabic lookup 0 subtable" uni06A9 dx=0 dy=0 dh=0 dv=0 dx=0 dy=0 dh=260 dv=0
PairPos2: "'kern' Horizontal Kerning in Arabic lookup 0 subtable" uniFB94 dx=0 dy=0 dh=0 dv=0 dx=0 dy=0 dh=260 dv=0
PairPos2: "'kern' Horizontal Kerning in Arabic lookup 0 subtable" uniFBD5 dx=0 dy=0 dh=0 dv=0 dx=0 dy=0 dh=260 dv=0
PairPos2: "'kern' Horizontal Kerning in Arabic lookup 0 subtable" uni06AB.ini dx=0 dy=0 dh=0 dv=0 dx=0 dy=0 dh=260 dv=0
PairPos2: "'kern' Horizontal Kerning in Arabic lookup 0 subtable" uniFB90 dx=0 dy=0 dh=0 dv=0 dx=0 dy=0 dh=260 dv=0
PairPos2: "'kern' Horizontal Kerning in Arabic lookup 0 subtable" uniFEDB dx=0 dy=0 dh=0 dv=0 dx=0 dy=0 dh=260 dv=0
PairPos2: "'kern' Horizontal Kerning in Arabic lookup 0 subtable" uni0671 dx=0 dy=0 dh=0 dv=0 dx=0 dy=0 dh=208 dv=0
PairPos2: "'kern' Horizontal Kerning in Arabic lookup 0 subtable" afii57410 dx=0 dy=0 dh=0 dv=0 dx=0 dy=0 dh=208 dv=0
PairPos2: "'kern' Horizontal Kerning in Arabic lookup 0 subtable" afii57415 dx=0 dy=0 dh=0 dv=0 dx=0 dy=0 dh=52 dv=0
EndChar

StartChar: equal
Encoding: 61 61 32
Width: 1050
GlyphClass: 2
Flags: W
LayerCount: 2
Fore
SplineSet
944 382 m 1,0,-1
 906 241 l 1,1,-1
 -128 241 l 1,2,-1
 -90 382 l 1,3,-1
 944 382 l 1,0,-1
1055 795 m 1,4,-1
 1016 653 l 1,5,-1
 -18 653 l 1,6,-1
 21 795 l 1,7,-1
 1055 795 l 1,4,-1
EndSplineSet
Substitution2: "<17016,16016> Urdu Swash lookup 75 subtable" equal
PairPos2: "'kern' Horizontal Kerning in Arabic lookup 0 subtable" afii57509 dx=0 dy=0 dh=0 dv=0 dx=0 dy=0 dh=260 dv=0
PairPos2: "'kern' Horizontal Kerning in Arabic lookup 0 subtable" uni06AB dx=0 dy=0 dh=0 dv=0 dx=0 dy=0 dh=260 dv=0
PairPos2: "'kern' Horizontal Kerning in Arabic lookup 0 subtable" uni06A9 dx=0 dy=0 dh=0 dv=0 dx=0 dy=0 dh=260 dv=0
PairPos2: "'kern' Horizontal Kerning in Arabic lookup 0 subtable" uniFB94 dx=0 dy=0 dh=0 dv=0 dx=0 dy=0 dh=260 dv=0
PairPos2: "'kern' Horizontal Kerning in Arabic lookup 0 subtable" uniFBD5 dx=0 dy=0 dh=0 dv=0 dx=0 dy=0 dh=260 dv=0
PairPos2: "'kern' Horizontal Kerning in Arabic lookup 0 subtable" uni06AB.ini dx=0 dy=0 dh=0 dv=0 dx=0 dy=0 dh=260 dv=0
PairPos2: "'kern' Horizontal Kerning in Arabic lookup 0 subtable" uniFB90 dx=0 dy=0 dh=0 dv=0 dx=0 dy=0 dh=260 dv=0
PairPos2: "'kern' Horizontal Kerning in Arabic lookup 0 subtable" uniFEDB dx=0 dy=0 dh=0 dv=0 dx=0 dy=0 dh=260 dv=0
PairPos2: "'kern' Horizontal Kerning in Arabic lookup 0 subtable" uni0671 dx=0 dy=0 dh=0 dv=0 dx=0 dy=0 dh=208 dv=0
PairPos2: "'kern' Horizontal Kerning in Arabic lookup 0 subtable" afii57410 dx=0 dy=0 dh=0 dv=0 dx=0 dy=0 dh=208 dv=0
PairPos2: "'kern' Horizontal Kerning in Arabic lookup 0 subtable" afii57415 dx=0 dy=0 dh=0 dv=0 dx=0 dy=0 dh=52 dv=0
EndChar

StartChar: greater
Encoding: 62 62 33
Width: 1050
GlyphClass: 2
Flags: W
LayerCount: 2
Fore
SplineSet
711 519 m 1,0,-1
 48 899 l 1,1,-1
 90 1053 l 1,2,-1
 988 546 l 1,3,-1
 973 489 l 1,4,-1
 -197 -17 l 1,5,-1
 -156 136 l 1,6,-1
 711 519 l 1,0,-1
EndSplineSet
Substitution2: "<17016,16016> Urdu Swash lookup 75 subtable" greater
PairPos2: "'kern' Horizontal Kerning in Arabic lookup 0 subtable" afii57509 dx=0 dy=0 dh=0 dv=0 dx=0 dy=0 dh=260 dv=0
PairPos2: "'kern' Horizontal Kerning in Arabic lookup 0 subtable" uni06AB dx=0 dy=0 dh=0 dv=0 dx=0 dy=0 dh=260 dv=0
PairPos2: "'kern' Horizontal Kerning in Arabic lookup 0 subtable" uni06A9 dx=0 dy=0 dh=0 dv=0 dx=0 dy=0 dh=260 dv=0
PairPos2: "'kern' Horizontal Kerning in Arabic lookup 0 subtable" uniFB94 dx=0 dy=0 dh=0 dv=0 dx=0 dy=0 dh=260 dv=0
PairPos2: "'kern' Horizontal Kerning in Arabic lookup 0 subtable" uniFBD5 dx=0 dy=0 dh=0 dv=0 dx=0 dy=0 dh=260 dv=0
PairPos2: "'kern' Horizontal Kerning in Arabic lookup 0 subtable" uni06AB.ini dx=0 dy=0 dh=0 dv=0 dx=0 dy=0 dh=260 dv=0
PairPos2: "'kern' Horizontal Kerning in Arabic lookup 0 subtable" uniFB90 dx=0 dy=0 dh=0 dv=0 dx=0 dy=0 dh=260 dv=0
PairPos2: "'kern' Horizontal Kerning in Arabic lookup 0 subtable" uniFEDB dx=0 dy=0 dh=0 dv=0 dx=0 dy=0 dh=260 dv=0
PairPos2: "'kern' Horizontal Kerning in Arabic lookup 0 subtable" uni0671 dx=0 dy=0 dh=0 dv=0 dx=0 dy=0 dh=208 dv=0
PairPos2: "'kern' Horizontal Kerning in Arabic lookup 0 subtable" afii57410 dx=0 dy=0 dh=0 dv=0 dx=0 dy=0 dh=208 dv=0
PairPos2: "'kern' Horizontal Kerning in Arabic lookup 0 subtable" afii57415 dx=0 dy=0 dh=0 dv=0 dx=0 dy=0 dh=52 dv=0
EndChar

StartChar: question
Encoding: 63 63 34
Width: 909
GlyphClass: 2
Flags: W
LayerCount: 2
Fore
SplineSet
277 -19 m 0,0,1
 229 -19 229 -19 205.5 12.5 c 128,-1,2
 182 44 182 44 195 91 c 0,3,4
 201 114 201 114 215.5 134 c 128,-1,5
 230 154 230 154 249 169 c 128,-1,6
 268 184 268 184 290 192.5 c 128,-1,7
 312 201 312 201 334 201 c 0,8,9
 358 201 358 201 376.5 192.5 c 128,-1,10
 395 184 395 184 406.5 169 c 128,-1,11
 418 154 418 154 421.5 134 c 128,-1,12
 425 114 425 114 419 91 c 256,13,14
 413 68 413 68 398.5 48 c 128,-1,15
 384 28 384 28 364.5 13 c 128,-1,16
 345 -2 345 -2 322.5 -10.5 c 128,-1,17
 300 -19 300 -19 277 -19 c 0,0,1
933 1058 m 0,18,19
 899 930 899 930 693 734 c 0,20,21
 581 628 581 628 505.5 529 c 128,-1,22
 430 430 430 430 391 336 c 1,23,-1
 353 336 l 1,24,25
 358 353 358 353 368.5 381.5 c 128,-1,26
 379 410 379 410 392.5 441.5 c 128,-1,27
 406 473 406 473 421 504 c 128,-1,28
 436 535 436 535 450 559 c 0,29,30
 465 585 465 585 498.5 634 c 128,-1,31
 532 683 532 683 585 758 c 256,32,33
 638 833 638 833 680.5 908.5 c 128,-1,34
 723 984 723 984 740 1047 c 0,35,36
 754 1097 754 1097 753.5 1146 c 128,-1,37
 753 1195 753 1195 736 1233.5 c 128,-1,38
 719 1272 719 1272 682.5 1296 c 128,-1,39
 646 1320 646 1320 586 1320 c 0,40,41
 547 1320 547 1320 508.5 1307.5 c 128,-1,42
 470 1295 470 1295 439.5 1276 c 128,-1,43
 409 1257 409 1257 388 1235 c 128,-1,44
 367 1213 367 1213 362 1195 c 0,45,46
 356 1175 356 1175 384 1127 c 0,47,48
 398 1104 398 1104 403 1083 c 128,-1,49
 408 1062 408 1062 402 1041 c 0,50,51
 398 1024 398 1024 387 1009 c 128,-1,52
 376 994 376 994 362 982.5 c 128,-1,53
 348 971 348 971 330.5 964 c 128,-1,54
 313 957 313 957 295 957 c 0,55,56
 254 957 254 957 231.5 991.5 c 128,-1,57
 209 1026 209 1026 226 1093 c 0,58,59
 254 1196 254 1196 368 1290 c 0,60,61
 482 1383 482 1383 661 1383 c 0,62,63
 738 1383 738 1383 798 1361 c 128,-1,64
 858 1339 858 1339 895 1297 c 128,-1,65
 932 1255 932 1255 943 1195 c 128,-1,66
 954 1135 954 1135 933 1058 c 0,18,19
EndSplineSet
Substitution2: "<17016,16016> Urdu Swash lookup 75 subtable" question
PairPos2: "'kern' Horizontal Kerning in Arabic lookup 0 subtable" afii57509 dx=0 dy=0 dh=0 dv=0 dx=0 dy=0 dh=260 dv=0
PairPos2: "'kern' Horizontal Kerning in Arabic lookup 0 subtable" uni06AB dx=0 dy=0 dh=0 dv=0 dx=0 dy=0 dh=260 dv=0
PairPos2: "'kern' Horizontal Kerning in Arabic lookup 0 subtable" uni06A9 dx=0 dy=0 dh=0 dv=0 dx=0 dy=0 dh=260 dv=0
PairPos2: "'kern' Horizontal Kerning in Arabic lookup 0 subtable" uniFB94 dx=0 dy=0 dh=0 dv=0 dx=0 dy=0 dh=260 dv=0
PairPos2: "'kern' Horizontal Kerning in Arabic lookup 0 subtable" uniFBD5 dx=0 dy=0 dh=0 dv=0 dx=0 dy=0 dh=260 dv=0
PairPos2: "'kern' Horizontal Kerning in Arabic lookup 0 subtable" uni06AB.ini dx=0 dy=0 dh=0 dv=0 dx=0 dy=0 dh=260 dv=0
PairPos2: "'kern' Horizontal Kerning in Arabic lookup 0 subtable" uniFB90 dx=0 dy=0 dh=0 dv=0 dx=0 dy=0 dh=260 dv=0
PairPos2: "'kern' Horizontal Kerning in Arabic lookup 0 subtable" uniFEDB dx=0 dy=0 dh=0 dv=0 dx=0 dy=0 dh=260 dv=0
PairPos2: "'kern' Horizontal Kerning in Arabic lookup 0 subtable" uni0671 dx=0 dy=0 dh=0 dv=0 dx=0 dy=0 dh=208 dv=0
PairPos2: "'kern' Horizontal Kerning in Arabic lookup 0 subtable" afii57410 dx=0 dy=0 dh=0 dv=0 dx=0 dy=0 dh=208 dv=0
PairPos2: "'kern' Horizontal Kerning in Arabic lookup 0 subtable" afii57415 dx=0 dy=0 dh=0 dv=0 dx=0 dy=0 dh=52 dv=0
EndChar

StartChar: at
Encoding: 64 64 35
Width: 1886
GlyphClass: 2
Flags: W
LayerCount: 2
Fore
SplineSet
769 361 m 0,0,1
 887 361 887 361 1010 552 c 0,2,3
 1073 649 1073 649 1110 719 c 128,-1,4
 1147 789 1147 789 1159 834 c 0,5,6
 1173 885 1173 885 1152 915 c 128,-1,7
 1131 945 1131 945 1080 945 c 0,8,9
 980 945 980 945 851 792 c 0,10,11
 721 638 721 638 685 501 c 0,12,13
 668 436 668 436 690.5 398.5 c 128,-1,14
 713 361 713 361 769 361 c 0,0,1
254 161 m 0,15,16
 80 353 80 353 153 630 c 0,17,18
 239 945 239 945 544 1164 c 0,19,20
 698 1274 698 1274 860 1329.5 c 128,-1,21
 1022 1385 1022 1385 1198 1384 c 0,22,23
 1470 1384 1470 1384 1618 1233 c 0,24,25
 1773 1072 1773 1072 1706 824 c 0,26,27
 1652 622 1652 622 1480 455 c 256,28,29
 1308 288 1308 288 1147 288 c 0,30,31
 1105 288 1105 288 1073.5 300 c 128,-1,32
 1042 312 1042 312 1022 333 c 128,-1,33
 1002 354 1002 354 995 382.5 c 128,-1,34
 988 411 988 411 994 444 c 1,35,36
 972 413 972 413 940 384.5 c 128,-1,37
 908 356 908 356 871 334.5 c 128,-1,38
 834 313 834 313 795 300 c 128,-1,39
 756 287 756 287 720 287 c 0,40,41
 663 287 663 287 619.5 306.5 c 128,-1,42
 576 326 576 326 550 363 c 128,-1,43
 524 400 524 400 517 452 c 128,-1,44
 510 504 510 504 528 570 c 0,45,46
 551 656 551 656 604 733 c 128,-1,47
 657 810 657 810 742 881 c 0,48,49
 911 1023 911 1023 1069 1023 c 0,50,51
 1139 1023 1139 1023 1179 987.5 c 128,-1,52
 1219 952 1219 952 1221 899 c 1,53,54
 1236 923 1236 923 1250.5 948.5 c 128,-1,55
 1265 974 1265 974 1280 998 c 1,56,-1
 1445 998 l 1,57,-1
 1344 827 l 2,58,59
 1304 759 1304 759 1268.5 696 c 128,-1,60
 1233 633 1233 633 1206 582.5 c 128,-1,61
 1179 532 1179 532 1162 496.5 c 128,-1,62
 1145 461 1145 461 1142 449 c 0,63,64
 1138 433 1138 433 1140.5 417.5 c 128,-1,65
 1143 402 1143 402 1151 390 c 128,-1,66
 1159 378 1159 378 1173 370.5 c 128,-1,67
 1187 363 1187 363 1205 363 c 0,68,69
 1253 363 1253 363 1311.5 396.5 c 128,-1,70
 1370 430 1370 430 1439 496 c 256,71,72
 1508 562 1508 562 1556 645 c 128,-1,73
 1604 728 1604 728 1629 821 c 0,74,75
 1692 1055 1692 1055 1545 1179 c 0,76,77
 1400 1304 1400 1304 1187 1304 c 0,78,79
 919 1304 919 1304 656 1119 c 0,80,81
 372 920 372 920 294 632 c 0,82,83
 260 503 260 503 280 395 c 128,-1,84
 300 287 300 287 366.5 209 c 128,-1,85
 433 131 433 131 541 87.5 c 128,-1,86
 649 44 649 44 790 44 c 0,87,88
 838 44 838 44 892 51 c 128,-1,89
 946 58 946 58 1006 72 c 0,90,91
 1097 93 1097 93 1179.5 127 c 128,-1,92
 1262 161 1262 161 1339 209 c 1,93,-1
 1363 150 l 1,94,95
 1276 102 1276 102 1194 67 c 128,-1,96
 1112 32 1112 32 1042 12 c 0,97,98
 970 -8 970 -8 894 -18.5 c 128,-1,99
 818 -29 818 -29 742 -29 c 0,100,101
 426 -29 426 -29 254 161 c 0,15,16
EndSplineSet
Substitution2: "<17016,16016> Urdu Swash lookup 75 subtable" at
PairPos2: "'kern' Horizontal Kerning in Arabic lookup 0 subtable" afii57509 dx=0 dy=0 dh=0 dv=0 dx=0 dy=0 dh=260 dv=0
PairPos2: "'kern' Horizontal Kerning in Arabic lookup 0 subtable" uni06AB dx=0 dy=0 dh=0 dv=0 dx=0 dy=0 dh=260 dv=0
PairPos2: "'kern' Horizontal Kerning in Arabic lookup 0 subtable" uni06A9 dx=0 dy=0 dh=0 dv=0 dx=0 dy=0 dh=260 dv=0
PairPos2: "'kern' Horizontal Kerning in Arabic lookup 0 subtable" uniFB94 dx=0 dy=0 dh=0 dv=0 dx=0 dy=0 dh=260 dv=0
PairPos2: "'kern' Horizontal Kerning in Arabic lookup 0 subtable" uniFBD5 dx=0 dy=0 dh=0 dv=0 dx=0 dy=0 dh=260 dv=0
PairPos2: "'kern' Horizontal Kerning in Arabic lookup 0 subtable" uni06AB.ini dx=0 dy=0 dh=0 dv=0 dx=0 dy=0 dh=260 dv=0
PairPos2: "'kern' Horizontal Kerning in Arabic lookup 0 subtable" uniFB90 dx=0 dy=0 dh=0 dv=0 dx=0 dy=0 dh=260 dv=0
PairPos2: "'kern' Horizontal Kerning in Arabic lookup 0 subtable" uniFEDB dx=0 dy=0 dh=0 dv=0 dx=0 dy=0 dh=260 dv=0
PairPos2: "'kern' Horizontal Kerning in Arabic lookup 0 subtable" uni0671 dx=0 dy=0 dh=0 dv=0 dx=0 dy=0 dh=208 dv=0
PairPos2: "'kern' Horizontal Kerning in Arabic lookup 0 subtable" afii57410 dx=0 dy=0 dh=0 dv=0 dx=0 dy=0 dh=208 dv=0
PairPos2: "'kern' Horizontal Kerning in Arabic lookup 0 subtable" afii57415 dx=0 dy=0 dh=0 dv=0 dx=0 dy=0 dh=52 dv=0
EndChar

StartChar: A
Encoding: 65 65 36
Width: 1479
GlyphClass: 2
Flags: W
LayerCount: 2
Fore
SplineSet
854 527 m 1,0,1
 844 593 844 593 833 664 c 128,-1,2
 822 735 822 735 811 807 c 128,-1,3
 800 879 800 879 789 950 c 128,-1,4
 778 1021 778 1021 768 1087 c 1,5,6
 671 947 671 947 576.5 807.5 c 128,-1,7
 482 668 482 668 385 527 c 1,8,-1
 854 527 l 1,0,1
-170 0 m 1,9,-1
 -160 39 l 1,10,11
 -118 44 -118 44 -85 58.5 c 128,-1,12
 -52 73 -52 73 -26 99 c 0,13,14
 2 125 2 125 54 193.5 c 128,-1,15
 106 262 106 262 184 374 c 2,16,-1
 879 1379 l 1,17,-1
 921 1379 l 1,18,-1
 1119 219 l 2,19,20
 1129 165 1129 165 1140 127.5 c 128,-1,21
 1151 90 1151 90 1162 76 c 256,22,23
 1173 62 1173 62 1197.5 53.5 c 128,-1,24
 1222 45 1222 45 1255 39 c 1,25,-1
 1245 0 l 1,26,-1
 723 0 l 1,27,-1
 733 39 l 1,28,29
 780 43 780 43 809 47 c 128,-1,30
 838 51 838 51 855 58.5 c 128,-1,31
 872 66 872 66 880.5 79 c 128,-1,32
 889 92 889 92 895 114 c 0,33,34
 900 134 900 134 898 171 c 128,-1,35
 896 208 896 208 890 253.5 c 128,-1,36
 884 299 884 299 876 348.5 c 128,-1,37
 868 398 868 398 860 442 c 1,38,-1
 326 442 l 1,39,40
 285 379 285 379 255 334.5 c 128,-1,41
 225 290 225 290 204.5 259 c 128,-1,42
 184 228 184 228 171 208 c 128,-1,43
 158 188 158 188 150.5 174 c 128,-1,44
 143 160 143 160 139 149.5 c 128,-1,45
 135 139 135 139 132 128 c 0,46,47
 126 106 126 106 127.5 91 c 128,-1,48
 129 76 129 76 141.5 65.5 c 128,-1,49
 154 55 154 55 179.5 49 c 128,-1,50
 205 43 205 43 247 39 c 1,51,-1
 237 0 l 1,52,-1
 -170 0 l 1,9,-1
EndSplineSet
Substitution2: "<17016,16016> Urdu Swash lookup 75 subtable" A
PairPos2: "'kern' Horizontal Kerning in Arabic lookup 0 subtable" afii57509 dx=0 dy=0 dh=0 dv=0 dx=0 dy=0 dh=260 dv=0
PairPos2: "'kern' Horizontal Kerning in Arabic lookup 0 subtable" uni06AB dx=0 dy=0 dh=0 dv=0 dx=0 dy=0 dh=260 dv=0
PairPos2: "'kern' Horizontal Kerning in Arabic lookup 0 subtable" uni06A9 dx=0 dy=0 dh=0 dv=0 dx=0 dy=0 dh=260 dv=0
PairPos2: "'kern' Horizontal Kerning in Arabic lookup 0 subtable" uniFB94 dx=0 dy=0 dh=0 dv=0 dx=0 dy=0 dh=260 dv=0
PairPos2: "'kern' Horizontal Kerning in Arabic lookup 0 subtable" uniFBD5 dx=0 dy=0 dh=0 dv=0 dx=0 dy=0 dh=260 dv=0
PairPos2: "'kern' Horizontal Kerning in Arabic lookup 0 subtable" uni06AB.ini dx=0 dy=0 dh=0 dv=0 dx=0 dy=0 dh=260 dv=0
PairPos2: "'kern' Horizontal Kerning in Arabic lookup 0 subtable" uniFB90 dx=0 dy=0 dh=0 dv=0 dx=0 dy=0 dh=260 dv=0
PairPos2: "'kern' Horizontal Kerning in Arabic lookup 0 subtable" uniFEDB dx=0 dy=0 dh=0 dv=0 dx=0 dy=0 dh=260 dv=0
PairPos2: "'kern' Horizontal Kerning in Arabic lookup 0 subtable" uni0671 dx=0 dy=0 dh=0 dv=0 dx=0 dy=0 dh=208 dv=0
PairPos2: "'kern' Horizontal Kerning in Arabic lookup 0 subtable" afii57410 dx=0 dy=0 dh=0 dv=0 dx=0 dy=0 dh=208 dv=0
PairPos2: "'kern' Horizontal Kerning in Arabic lookup 0 subtable" afii57415 dx=0 dy=0 dh=0 dv=0 dx=0 dy=0 dh=52 dv=0
EndChar

StartChar: B
Encoding: 66 66 37
Width: 1366
GlyphClass: 2
Flags: W
LayerCount: 2
Fore
SplineSet
815 783 m 0,0,1
 960 841 960 841 1002 997 c 0,2,3
 1049 1176 1049 1176 918 1242 c 0,4,5
 881 1259 881 1259 821 1268 c 128,-1,6
 761 1277 761 1277 676 1277 c 0,7,8
 644 1277 644 1277 625 1275 c 128,-1,9
 606 1273 606 1273 594.5 1266 c 128,-1,10
 583 1259 583 1259 576.5 1245 c 128,-1,11
 570 1231 570 1231 564 1207 c 2,12,-1
 441 747 l 1,13,14
 491 748 491 748 542.5 748 c 128,-1,15
 594 748 594 748 642.5 751 c 128,-1,16
 691 754 691 754 735 761 c 128,-1,17
 779 768 779 768 815 783 c 0,0,1
875 369 m 0,18,19
 922 542 922 542 815 603 c 0,20,21
 707 666 707 666 516 666 c 2,22,-1
 456 666 l 2,23,24
 450 666 450 666 441 666 c 128,-1,25
 432 666 432 666 419 667 c 1,26,-1
 283 159 l 2,27,28
 276 133 276 133 277 117 c 128,-1,29
 278 101 278 101 293 92 c 128,-1,30
 308 83 308 83 340.5 79.5 c 128,-1,31
 373 76 373 76 429 76 c 0,32,33
 585 76 585 76 707 137 c 0,34,35
 830 198 830 198 875 369 c 0,18,19
-155 39 m 1,36,37
 -90 43 -90 43 -49 50.5 c 128,-1,38
 -8 58 -8 58 18 77.5 c 128,-1,39
 44 97 44 97 60 131.5 c 128,-1,40
 76 166 76 166 91 223 c 2,41,-1
 335 1132 l 2,42,43
 365 1244 365 1244 336 1276 c 0,44,45
 308 1311 308 1311 187 1315 c 1,46,-1
 198 1355 l 1,47,-1
 772 1355 l 2,48,49
 895 1355 895 1355 989 1336 c 128,-1,50
 1083 1317 1083 1317 1141 1275.5 c 128,-1,51
 1199 1234 1199 1234 1219 1167 c 128,-1,52
 1239 1100 1239 1100 1213 1004 c 0,53,54
 1193 933 1193 933 1151 877 c 128,-1,55
 1109 821 1109 821 1052 783 c 0,56,57
 1020 765 1020 765 970.5 745.5 c 128,-1,58
 921 726 921 726 867 713 c 1,59,60
 996 677 996 677 1073 600 c 0,61,62
 1152 521 1152 521 1114 377 c 0,63,64
 1065 197 1065 197 911 98.5 c 128,-1,65
 757 0 757 0 503 0 c 2,66,-1
 -165 0 l 1,67,-1
 -155 39 l 1,36,37
EndSplineSet
Substitution2: "<17016,16016> Urdu Swash lookup 75 subtable" B
PairPos2: "'kern' Horizontal Kerning in Arabic lookup 0 subtable" afii57509 dx=0 dy=0 dh=0 dv=0 dx=0 dy=0 dh=260 dv=0
PairPos2: "'kern' Horizontal Kerning in Arabic lookup 0 subtable" uni06AB dx=0 dy=0 dh=0 dv=0 dx=0 dy=0 dh=260 dv=0
PairPos2: "'kern' Horizontal Kerning in Arabic lookup 0 subtable" uni06A9 dx=0 dy=0 dh=0 dv=0 dx=0 dy=0 dh=260 dv=0
PairPos2: "'kern' Horizontal Kerning in Arabic lookup 0 subtable" uniFB94 dx=0 dy=0 dh=0 dv=0 dx=0 dy=0 dh=260 dv=0
PairPos2: "'kern' Horizontal Kerning in Arabic lookup 0 subtable" uniFBD5 dx=0 dy=0 dh=0 dv=0 dx=0 dy=0 dh=260 dv=0
PairPos2: "'kern' Horizontal Kerning in Arabic lookup 0 subtable" uni06AB.ini dx=0 dy=0 dh=0 dv=0 dx=0 dy=0 dh=260 dv=0
PairPos2: "'kern' Horizontal Kerning in Arabic lookup 0 subtable" uniFB90 dx=0 dy=0 dh=0 dv=0 dx=0 dy=0 dh=260 dv=0
PairPos2: "'kern' Horizontal Kerning in Arabic lookup 0 subtable" uniFEDB dx=0 dy=0 dh=0 dv=0 dx=0 dy=0 dh=260 dv=0
PairPos2: "'kern' Horizontal Kerning in Arabic lookup 0 subtable" uni0671 dx=0 dy=0 dh=0 dv=0 dx=0 dy=0 dh=208 dv=0
PairPos2: "'kern' Horizontal Kerning in Arabic lookup 0 subtable" afii57410 dx=0 dy=0 dh=0 dv=0 dx=0 dy=0 dh=208 dv=0
PairPos2: "'kern' Horizontal Kerning in Arabic lookup 0 subtable" afii57415 dx=0 dy=0 dh=0 dv=0 dx=0 dy=0 dh=52 dv=0
EndChar

StartChar: C
Encoding: 67 67 38
AltUni2: 00216d.ffffffff.0
Width: 1366
GlyphClass: 2
Flags: W
LayerCount: 2
Fore
SplineSet
1267 1313 m 0,0,1
 1296 1313 1296 1313 1326 1329 c 128,-1,2
 1356 1345 1356 1345 1375 1379 c 1,3,-1
 1420 1379 l 1,4,-1
 1315 918 l 1,5,-1
 1266 918 l 1,6,7
 1264 985 1264 985 1252 1040.5 c 128,-1,8
 1240 1096 1240 1096 1218 1138 c 0,9,10
 1177 1216 1177 1216 1103 1256 c 128,-1,11
 1029 1296 1029 1296 924 1296 c 0,12,13
 709 1296 709 1296 527 1126 c 0,14,15
 436 1041 436 1041 371.5 925 c 128,-1,16
 307 809 307 809 267 660 c 0,17,18
 195 386 195 386 293 224 c 0,19,20
 392 61 392 61 612 61 c 0,21,22
 773 61 773 61 924 137 c 0,23,24
 968 159 968 159 1018 191 c 128,-1,25
 1068 223 1068 223 1128 268 c 1,26,-1
 1158 228 l 1,27,28
 1065 141 1065 141 947 76 c 0,29,30
 745 -34 745 -34 544 -34 c 0,31,32
 387 -34 387 -34 271.5 18.5 c 128,-1,33
 156 71 156 71 88.5 164 c 128,-1,34
 21 257 21 257 4 385 c 128,-1,35
 -13 513 -13 513 28 664 c 0,36,37
 109 965 109 965 352 1166 c 0,38,39
 481 1273 481 1273 623.5 1326 c 128,-1,40
 766 1379 766 1379 927 1379 c 0,41,42
 1038 1379 1038 1379 1146 1346 c 0,43,44
 1253 1313 1253 1313 1267 1313 c 0,0,1
EndSplineSet
Substitution2: "<17016,16016> Urdu Swash lookup 75 subtable" C
PairPos2: "'kern' Horizontal Kerning in Arabic lookup 0 subtable" afii57509 dx=0 dy=0 dh=0 dv=0 dx=0 dy=0 dh=260 dv=0
PairPos2: "'kern' Horizontal Kerning in Arabic lookup 0 subtable" uni06AB dx=0 dy=0 dh=0 dv=0 dx=0 dy=0 dh=260 dv=0
PairPos2: "'kern' Horizontal Kerning in Arabic lookup 0 subtable" uni06A9 dx=0 dy=0 dh=0 dv=0 dx=0 dy=0 dh=260 dv=0
PairPos2: "'kern' Horizontal Kerning in Arabic lookup 0 subtable" uniFB94 dx=0 dy=0 dh=0 dv=0 dx=0 dy=0 dh=260 dv=0
PairPos2: "'kern' Horizontal Kerning in Arabic lookup 0 subtable" uniFBD5 dx=0 dy=0 dh=0 dv=0 dx=0 dy=0 dh=260 dv=0
PairPos2: "'kern' Horizontal Kerning in Arabic lookup 0 subtable" uni06AB.ini dx=0 dy=0 dh=0 dv=0 dx=0 dy=0 dh=260 dv=0
PairPos2: "'kern' Horizontal Kerning in Arabic lookup 0 subtable" uniFB90 dx=0 dy=0 dh=0 dv=0 dx=0 dy=0 dh=260 dv=0
PairPos2: "'kern' Horizontal Kerning in Arabic lookup 0 subtable" uniFEDB dx=0 dy=0 dh=0 dv=0 dx=0 dy=0 dh=260 dv=0
PairPos2: "'kern' Horizontal Kerning in Arabic lookup 0 subtable" uni0671 dx=0 dy=0 dh=0 dv=0 dx=0 dy=0 dh=208 dv=0
PairPos2: "'kern' Horizontal Kerning in Arabic lookup 0 subtable" afii57410 dx=0 dy=0 dh=0 dv=0 dx=0 dy=0 dh=208 dv=0
PairPos2: "'kern' Horizontal Kerning in Arabic lookup 0 subtable" afii57415 dx=0 dy=0 dh=0 dv=0 dx=0 dy=0 dh=52 dv=0
EndChar

StartChar: D
Encoding: 68 68 39
AltUni2: 00216e.ffffffff.0
Width: 1479
GlyphClass: 2
Flags: W
LayerCount: 2
Fore
SplineSet
367 78 m 0,0,1
 520 78 520 78 648 116.5 c 128,-1,2
 776 155 776 155 876.5 230 c 128,-1,3
 977 305 977 305 1047.5 415.5 c 128,-1,4
 1118 526 1118 526 1157 670 c 0,5,6
 1196 816 1196 816 1182.5 929 c 128,-1,7
 1169 1042 1169 1042 1107.5 1119.5 c 128,-1,8
 1046 1197 1046 1197 938 1237.5 c 128,-1,9
 830 1278 830 1278 681 1278 c 0,10,11
 648 1278 648 1278 625 1275 c 128,-1,12
 602 1272 602 1272 586 1263.5 c 128,-1,13
 570 1255 570 1255 560 1239.5 c 128,-1,14
 550 1224 550 1224 543 1198 c 2,15,-1
 264 159 l 2,16,17
 257 134 257 134 258.5 118 c 128,-1,18
 260 102 260 102 272 93 c 128,-1,19
 284 84 284 84 307 81 c 128,-1,20
 330 78 330 78 367 78 c 0,0,1
-157 39 m 1,21,22
 -102 45 -102 45 -62 55.5 c 128,-1,23
 -22 66 -22 66 0 79 c 0,24,25
 42 110 42 110 72 223 c 2,26,-1
 316 1132 l 2,27,28
 346 1244 346 1244 321 1275 c 0,29,30
 296 1308 296 1308 185 1315 c 1,31,-1
 196 1355 l 1,32,-1
 748 1355 l 2,33,34
 947 1355 947 1355 1088 1309.5 c 128,-1,35
 1229 1264 1229 1264 1309.5 1177 c 128,-1,36
 1390 1090 1390 1090 1409.5 963 c 128,-1,37
 1429 836 1429 836 1385 673 c 0,38,39
 1364 596 1364 596 1329.5 523.5 c 128,-1,40
 1295 451 1295 451 1244 382 c 0,41,42
 1196 315 1196 315 1131 255.5 c 128,-1,43
 1066 196 1066 196 993 149 c 0,44,45
 948 120 948 120 898 97 c 128,-1,46
 848 74 848 74 803 58 c 0,47,48
 718 30 718 30 616 15 c 128,-1,49
 514 0 514 0 402 0 c 2,50,-1
 -167 0 l 1,51,-1
 -157 39 l 1,21,22
EndSplineSet
Substitution2: "<17016,16016> Urdu Swash lookup 75 subtable" D
PairPos2: "'kern' Horizontal Kerning in Arabic lookup 0 subtable" afii57509 dx=0 dy=0 dh=0 dv=0 dx=0 dy=0 dh=260 dv=0
PairPos2: "'kern' Horizontal Kerning in Arabic lookup 0 subtable" uni06AB dx=0 dy=0 dh=0 dv=0 dx=0 dy=0 dh=260 dv=0
PairPos2: "'kern' Horizontal Kerning in Arabic lookup 0 subtable" uni06A9 dx=0 dy=0 dh=0 dv=0 dx=0 dy=0 dh=260 dv=0
PairPos2: "'kern' Horizontal Kerning in Arabic lookup 0 subtable" uniFB94 dx=0 dy=0 dh=0 dv=0 dx=0 dy=0 dh=260 dv=0
PairPos2: "'kern' Horizontal Kerning in Arabic lookup 0 subtable" uniFBD5 dx=0 dy=0 dh=0 dv=0 dx=0 dy=0 dh=260 dv=0
PairPos2: "'kern' Horizontal Kerning in Arabic lookup 0 subtable" uni06AB.ini dx=0 dy=0 dh=0 dv=0 dx=0 dy=0 dh=260 dv=0
PairPos2: "'kern' Horizontal Kerning in Arabic lookup 0 subtable" uniFB90 dx=0 dy=0 dh=0 dv=0 dx=0 dy=0 dh=260 dv=0
PairPos2: "'kern' Horizontal Kerning in Arabic lookup 0 subtable" uniFEDB dx=0 dy=0 dh=0 dv=0 dx=0 dy=0 dh=260 dv=0
PairPos2: "'kern' Horizontal Kerning in Arabic lookup 0 subtable" uni0671 dx=0 dy=0 dh=0 dv=0 dx=0 dy=0 dh=208 dv=0
PairPos2: "'kern' Horizontal Kerning in Arabic lookup 0 subtable" afii57410 dx=0 dy=0 dh=0 dv=0 dx=0 dy=0 dh=208 dv=0
PairPos2: "'kern' Horizontal Kerning in Arabic lookup 0 subtable" afii57415 dx=0 dy=0 dh=0 dv=0 dx=0 dy=0 dh=52 dv=0
EndChar

StartChar: E
Encoding: 69 69 40
Width: 1251
GlyphClass: 2
Flags: W
LayerCount: 2
Fore
SplineSet
-167 39 m 1,0,1
 -49 51 -49 51 -10 79 c 0,2,3
 32 107 32 107 62 223 c 2,4,-1
 306 1132 l 2,5,6
 321 1187 321 1187 323 1221 c 128,-1,7
 325 1255 325 1255 310.5 1274.5 c 128,-1,8
 296 1294 296 1294 263.5 1302.5 c 128,-1,9
 231 1311 231 1311 175 1315 c 1,10,-1
 186 1355 l 1,11,-1
 1274 1355 l 1,12,-1
 1195 1060 l 1,13,-1
 1148 1060 l 1,14,15
 1158 1194 1158 1194 1116 1235 c 0,16,17
 1077 1275 1077 1275 897 1275 c 2,18,-1
 619 1275 l 2,19,20
 597 1275 597 1275 583 1271.5 c 128,-1,21
 569 1268 569 1268 560.5 1260.5 c 128,-1,22
 552 1253 552 1253 546.5 1240 c 128,-1,23
 541 1227 541 1227 536 1207 c 2,24,-1
 414 752 l 1,25,-1
 728 752 l 2,26,27
 858 752 858 752 904 791 c 0,28,29
 951 830 951 830 1005 949 c 1,30,-1
 1054 949 l 1,31,-1
 926 473 l 1,32,-1
 877 473 l 1,33,34
 886 594 886 594 860 630 c 0,35,36
 835 669 835 669 706 669 c 2,37,-1
 392 669 l 1,38,-1
 256 164 l 2,39,40
 241 104 241 104 274 93 c 0,41,42
 293 87 293 87 350.5 85 c 128,-1,43
 408 83 408 83 502 82 c 0,44,45
 602 82 602 82 684 94.5 c 128,-1,46
 766 107 766 107 821 127 c 1,47,48
 875 151 875 151 934.5 205.5 c 128,-1,49
 994 260 994 260 1057 348 c 1,50,-1
 1116 348 l 1,51,-1
 930 0 l 1,52,-1
 -177 0 l 1,53,-1
 -167 39 l 1,0,1
EndSplineSet
Substitution2: "<17016,16016> Urdu Swash lookup 75 subtable" E
PairPos2: "'kern' Horizontal Kerning in Arabic lookup 0 subtable" afii57509 dx=0 dy=0 dh=0 dv=0 dx=0 dy=0 dh=260 dv=0
PairPos2: "'kern' Horizontal Kerning in Arabic lookup 0 subtable" uni06AB dx=0 dy=0 dh=0 dv=0 dx=0 dy=0 dh=260 dv=0
PairPos2: "'kern' Horizontal Kerning in Arabic lookup 0 subtable" uni06A9 dx=0 dy=0 dh=0 dv=0 dx=0 dy=0 dh=260 dv=0
PairPos2: "'kern' Horizontal Kerning in Arabic lookup 0 subtable" uniFB94 dx=0 dy=0 dh=0 dv=0 dx=0 dy=0 dh=260 dv=0
PairPos2: "'kern' Horizontal Kerning in Arabic lookup 0 subtable" uniFBD5 dx=0 dy=0 dh=0 dv=0 dx=0 dy=0 dh=260 dv=0
PairPos2: "'kern' Horizontal Kerning in Arabic lookup 0 subtable" uni06AB.ini dx=0 dy=0 dh=0 dv=0 dx=0 dy=0 dh=260 dv=0
PairPos2: "'kern' Horizontal Kerning in Arabic lookup 0 subtable" uniFB90 dx=0 dy=0 dh=0 dv=0 dx=0 dy=0 dh=260 dv=0
PairPos2: "'kern' Horizontal Kerning in Arabic lookup 0 subtable" uniFEDB dx=0 dy=0 dh=0 dv=0 dx=0 dy=0 dh=260 dv=0
PairPos2: "'kern' Horizontal Kerning in Arabic lookup 0 subtable" uni0671 dx=0 dy=0 dh=0 dv=0 dx=0 dy=0 dh=208 dv=0
PairPos2: "'kern' Horizontal Kerning in Arabic lookup 0 subtable" afii57410 dx=0 dy=0 dh=0 dv=0 dx=0 dy=0 dh=208 dv=0
PairPos2: "'kern' Horizontal Kerning in Arabic lookup 0 subtable" afii57415 dx=0 dy=0 dh=0 dv=0 dx=0 dy=0 dh=52 dv=0
EndChar

StartChar: F
Encoding: 70 70 41
Width: 1139
GlyphClass: 2
Flags: W
LayerCount: 2
Fore
SplineSet
-167 39 m 1,0,1
 -41 53 -41 53 -5 83 c 0,2,3
 33 115 33 115 69 247 c 2,4,-1
 306 1132 l 2,5,6
 321 1187 321 1187 323 1221 c 128,-1,7
 325 1255 325 1255 310.5 1274.5 c 128,-1,8
 296 1294 296 1294 263.5 1302.5 c 128,-1,9
 231 1311 231 1311 175 1315 c 1,10,-1
 186 1355 l 1,11,-1
 1277 1355 l 1,12,-1
 1198 1060 l 1,13,-1
 1146 1060 l 1,14,15
 1161 1200 1161 1200 1114 1237 c 0,16,17
 1065 1275 1065 1275 897 1275 c 2,18,-1
 617 1275 l 2,19,20
 597 1275 597 1275 583.5 1272 c 128,-1,21
 570 1269 570 1269 561.5 1261.5 c 128,-1,22
 553 1254 553 1254 547 1240.5 c 128,-1,23
 541 1227 541 1227 536 1207 c 2,24,-1
 414 752 l 1,25,-1
 709 752 l 2,26,27
 839 752 839 752 885 791 c 0,28,29
 933 831 933 831 985 949 c 1,30,-1
 1035 949 l 1,31,-1
 907 473 l 1,32,-1
 857 473 l 1,33,34
 868 593 868 593 841 630 c 0,35,36
 816 669 816 669 687 669 c 2,37,-1
 392 669 l 1,38,-1
 272 223 l 2,39,40
 257 166 257 166 254.5 132 c 128,-1,41
 252 98 252 98 267 78.5 c 128,-1,42
 282 59 282 59 316 51.5 c 128,-1,43
 350 44 350 44 408 39 c 1,44,-1
 398 0 l 1,45,-1
 -177 0 l 1,46,-1
 -167 39 l 1,0,1
EndSplineSet
Substitution2: "<17016,16016> Urdu Swash lookup 75 subtable" F
PairPos2: "'kern' Horizontal Kerning in Arabic lookup 0 subtable" afii57509 dx=0 dy=0 dh=0 dv=0 dx=0 dy=0 dh=260 dv=0
PairPos2: "'kern' Horizontal Kerning in Arabic lookup 0 subtable" uni06AB dx=0 dy=0 dh=0 dv=0 dx=0 dy=0 dh=260 dv=0
PairPos2: "'kern' Horizontal Kerning in Arabic lookup 0 subtable" uni06A9 dx=0 dy=0 dh=0 dv=0 dx=0 dy=0 dh=260 dv=0
PairPos2: "'kern' Horizontal Kerning in Arabic lookup 0 subtable" uniFB94 dx=0 dy=0 dh=0 dv=0 dx=0 dy=0 dh=260 dv=0
PairPos2: "'kern' Horizontal Kerning in Arabic lookup 0 subtable" uniFBD5 dx=0 dy=0 dh=0 dv=0 dx=0 dy=0 dh=260 dv=0
PairPos2: "'kern' Horizontal Kerning in Arabic lookup 0 subtable" uni06AB.ini dx=0 dy=0 dh=0 dv=0 dx=0 dy=0 dh=260 dv=0
PairPos2: "'kern' Horizontal Kerning in Arabic lookup 0 subtable" uniFB90 dx=0 dy=0 dh=0 dv=0 dx=0 dy=0 dh=260 dv=0
PairPos2: "'kern' Horizontal Kerning in Arabic lookup 0 subtable" uniFEDB dx=0 dy=0 dh=0 dv=0 dx=0 dy=0 dh=260 dv=0
PairPos2: "'kern' Horizontal Kerning in Arabic lookup 0 subtable" uni0671 dx=0 dy=0 dh=0 dv=0 dx=0 dy=0 dh=208 dv=0
PairPos2: "'kern' Horizontal Kerning in Arabic lookup 0 subtable" afii57410 dx=0 dy=0 dh=0 dv=0 dx=0 dy=0 dh=208 dv=0
PairPos2: "'kern' Horizontal Kerning in Arabic lookup 0 subtable" afii57415 dx=0 dy=0 dh=0 dv=0 dx=0 dy=0 dh=52 dv=0
EndChar

StartChar: G
Encoding: 71 71 42
Width: 1479
GlyphClass: 2
Flags: W
LayerCount: 2
Fore
SplineSet
1274 1313 m 0,0,1
 1296 1313 1296 1313 1312 1317.5 c 128,-1,2
 1328 1322 1328 1322 1340.5 1330 c 128,-1,3
 1353 1338 1353 1338 1363.5 1350.5 c 128,-1,4
 1374 1363 1374 1363 1385 1379 c 1,5,-1
 1432 1379 l 1,6,-1
 1316 947 l 1,7,-1
 1283 947 l 1,8,9
 1272 1019 1272 1019 1253.5 1075.5 c 128,-1,10
 1235 1132 1235 1132 1213 1168 c 0,11,12
 1169 1229 1169 1229 1098.5 1262.5 c 128,-1,13
 1028 1296 1028 1296 934 1296 c 0,14,15
 838 1296 838 1296 739.5 1257 c 128,-1,16
 641 1218 641 1218 548 1146 c 0,17,18
 457 1071 457 1071 385 947.5 c 128,-1,19
 313 824 313 824 268 656 c 0,20,21
 194 376 194 376 298 216 c 0,22,23
 405 57 405 57 623 57 c 0,24,25
 660 57 660 57 711.5 64 c 128,-1,26
 763 71 763 71 813 86 c 0,27,28
 854 98 854 98 878 108 c 128,-1,29
 902 118 902 118 915.5 128 c 128,-1,30
 929 138 929 138 935 150 c 128,-1,31
 941 162 941 162 945 178 c 2,32,-1
 1033 504 l 2,33,34
 1064 623 1064 623 1038 650 c 0,35,36
 1013 678 1013 678 901 686 c 1,37,-1
 912 726 l 1,38,-1
 1435 726 l 1,39,-1
 1424 686 l 1,40,41
 1349 682 1349 682 1317 661 c 0,42,43
 1266 629 1266 629 1240 530 c 2,44,-1
 1132 128 l 2,45,46
 1129 116 1129 116 1101 99.5 c 128,-1,47
 1073 83 1073 83 1028 66 c 128,-1,48
 983 49 983 49 926.5 31.5 c 128,-1,49
 870 14 870 14 809 1 c 128,-1,50
 748 -12 748 -12 687 -20.5 c 128,-1,51
 626 -29 626 -29 574 -29 c 0,52,53
 271 -29 271 -29 115 146 c 0,54,55
 -60 339 -60 339 26 664 c 0,56,57
 67 814 67 814 155 944.5 c 128,-1,58
 243 1075 243 1075 363.5 1171.5 c 128,-1,59
 484 1268 484 1268 628.5 1323.5 c 128,-1,60
 773 1379 773 1379 927 1379 c 0,61,62
 1046 1379 1046 1379 1152 1346 c 0,63,64
 1259 1313 1259 1313 1274 1313 c 0,0,1
EndSplineSet
Substitution2: "<17016,16016> Urdu Swash lookup 75 subtable" G
PairPos2: "'kern' Horizontal Kerning in Arabic lookup 0 subtable" afii57509 dx=0 dy=0 dh=0 dv=0 dx=0 dy=0 dh=260 dv=0
PairPos2: "'kern' Horizontal Kerning in Arabic lookup 0 subtable" uni06AB dx=0 dy=0 dh=0 dv=0 dx=0 dy=0 dh=260 dv=0
PairPos2: "'kern' Horizontal Kerning in Arabic lookup 0 subtable" uni06A9 dx=0 dy=0 dh=0 dv=0 dx=0 dy=0 dh=260 dv=0
PairPos2: "'kern' Horizontal Kerning in Arabic lookup 0 subtable" uniFB94 dx=0 dy=0 dh=0 dv=0 dx=0 dy=0 dh=260 dv=0
PairPos2: "'kern' Horizontal Kerning in Arabic lookup 0 subtable" uniFBD5 dx=0 dy=0 dh=0 dv=0 dx=0 dy=0 dh=260 dv=0
PairPos2: "'kern' Horizontal Kerning in Arabic lookup 0 subtable" uni06AB.ini dx=0 dy=0 dh=0 dv=0 dx=0 dy=0 dh=260 dv=0
PairPos2: "'kern' Horizontal Kerning in Arabic lookup 0 subtable" uniFB90 dx=0 dy=0 dh=0 dv=0 dx=0 dy=0 dh=260 dv=0
PairPos2: "'kern' Horizontal Kerning in Arabic lookup 0 subtable" uniFEDB dx=0 dy=0 dh=0 dv=0 dx=0 dy=0 dh=260 dv=0
PairPos2: "'kern' Horizontal Kerning in Arabic lookup 0 subtable" uni0671 dx=0 dy=0 dh=0 dv=0 dx=0 dy=0 dh=208 dv=0
PairPos2: "'kern' Horizontal Kerning in Arabic lookup 0 subtable" afii57410 dx=0 dy=0 dh=0 dv=0 dx=0 dy=0 dh=208 dv=0
PairPos2: "'kern' Horizontal Kerning in Arabic lookup 0 subtable" afii57415 dx=0 dy=0 dh=0 dv=0 dx=0 dy=0 dh=52 dv=0
EndChar

StartChar: H
Encoding: 72 72 43
Width: 1479
GlyphClass: 2
Flags: W
LayerCount: 2
Fore
SplineSet
-157 39 m 1,0,1
 -33 53 -33 53 5 83 c 0,2,3
 43 115 43 115 79 247 c 2,4,-1
 316 1132 l 2,5,6
 331 1186 331 1186 333.5 1220 c 128,-1,7
 336 1254 336 1254 321.5 1274 c 128,-1,8
 307 1294 307 1294 274 1302.5 c 128,-1,9
 241 1311 241 1311 185 1315 c 1,10,-1
 196 1355 l 1,11,-1
 766 1355 l 1,12,-1
 755 1315 l 1,13,14
 697 1311 697 1311 659.5 1302.5 c 128,-1,15
 622 1294 622 1294 597 1274.5 c 128,-1,16
 572 1255 572 1255 556 1221 c 128,-1,17
 540 1187 540 1187 525 1132 c 2,18,-1
 418 735 l 1,19,-1
 1037 735 l 1,20,-1
 1144 1132 l 2,21,22
 1173 1241 1173 1241 1149 1274 c 0,23,24
 1125 1308 1125 1308 1013 1315 c 1,25,-1
 1024 1355 l 1,26,-1
 1594 1355 l 1,27,-1
 1583 1315 l 1,28,29
 1526 1311 1526 1311 1488.5 1303 c 128,-1,30
 1451 1295 1451 1295 1426 1275.5 c 128,-1,31
 1401 1256 1401 1256 1385 1222 c 128,-1,32
 1369 1188 1369 1188 1354 1132 c 2,33,-1
 1110 223 l 2,34,35
 1095 166 1095 166 1093 132 c 128,-1,36
 1091 98 1091 98 1105.5 79 c 128,-1,37
 1120 60 1120 60 1153 52 c 128,-1,38
 1186 44 1186 44 1241 39 c 1,39,-1
 1231 0 l 1,40,-1
 661 0 l 1,41,-1
 671 39 l 1,42,43
 795 51 795 51 833 83 c 256,44,45
 871 115 871 115 907 247 c 2,46,-1
 1013 643 l 1,47,-1
 394 643 l 1,48,-1
 281 223 l 2,49,50
 251 112 251 112 277 80 c 256,51,52
 303 48 303 48 413 39 c 1,53,-1
 403 0 l 1,54,-1
 -167 0 l 1,55,-1
 -157 39 l 1,0,1
EndSplineSet
Substitution2: "<17016,16016> Urdu Swash lookup 75 subtable" H
PairPos2: "'kern' Horizontal Kerning in Arabic lookup 0 subtable" afii57509 dx=0 dy=0 dh=0 dv=0 dx=0 dy=0 dh=260 dv=0
PairPos2: "'kern' Horizontal Kerning in Arabic lookup 0 subtable" uni06AB dx=0 dy=0 dh=0 dv=0 dx=0 dy=0 dh=260 dv=0
PairPos2: "'kern' Horizontal Kerning in Arabic lookup 0 subtable" uni06A9 dx=0 dy=0 dh=0 dv=0 dx=0 dy=0 dh=260 dv=0
PairPos2: "'kern' Horizontal Kerning in Arabic lookup 0 subtable" uniFB94 dx=0 dy=0 dh=0 dv=0 dx=0 dy=0 dh=260 dv=0
PairPos2: "'kern' Horizontal Kerning in Arabic lookup 0 subtable" uniFBD5 dx=0 dy=0 dh=0 dv=0 dx=0 dy=0 dh=260 dv=0
PairPos2: "'kern' Horizontal Kerning in Arabic lookup 0 subtable" uni06AB.ini dx=0 dy=0 dh=0 dv=0 dx=0 dy=0 dh=260 dv=0
PairPos2: "'kern' Horizontal Kerning in Arabic lookup 0 subtable" uniFB90 dx=0 dy=0 dh=0 dv=0 dx=0 dy=0 dh=260 dv=0
PairPos2: "'kern' Horizontal Kerning in Arabic lookup 0 subtable" uniFEDB dx=0 dy=0 dh=0 dv=0 dx=0 dy=0 dh=260 dv=0
PairPos2: "'kern' Horizontal Kerning in Arabic lookup 0 subtable" uni0671 dx=0 dy=0 dh=0 dv=0 dx=0 dy=0 dh=208 dv=0
PairPos2: "'kern' Horizontal Kerning in Arabic lookup 0 subtable" afii57410 dx=0 dy=0 dh=0 dv=0 dx=0 dy=0 dh=208 dv=0
PairPos2: "'kern' Horizontal Kerning in Arabic lookup 0 subtable" afii57415 dx=0 dy=0 dh=0 dv=0 dx=0 dy=0 dh=52 dv=0
EndChar

StartChar: I
Encoding: 73 73 44
Width: 682
GlyphClass: 2
Flags: W
LayerCount: 2
Fore
SplineSet
-158 39 m 1,0,1
 -30 48 -30 48 14 76 c 256,2,3
 58 104 58 104 90 223 c 2,4,-1
 334 1132 l 2,5,6
 365 1245 365 1245 335 1276 c 0,7,8
 306 1309 306 1309 184 1315 c 1,9,-1
 195 1355 l 1,10,-1
 803 1355 l 1,11,-1
 792 1315 l 1,12,13
 667 1309 667 1309 619 1276 c 0,14,15
 575 1245 575 1245 544 1132 c 2,16,-1
 300 223 l 2,17,18
 270 106 270 106 298 76 c 1,19,20
 331 48 331 48 450 39 c 1,21,-1
 440 0 l 1,22,-1
 -168 0 l 1,23,-1
 -158 39 l 1,0,1
EndSplineSet
Substitution2: "<17016,16016> Urdu Swash lookup 75 subtable" I
PairPos2: "'kern' Horizontal Kerning in Arabic lookup 0 subtable" afii57509 dx=0 dy=0 dh=0 dv=0 dx=0 dy=0 dh=260 dv=0
PairPos2: "'kern' Horizontal Kerning in Arabic lookup 0 subtable" uni06AB dx=0 dy=0 dh=0 dv=0 dx=0 dy=0 dh=260 dv=0
PairPos2: "'kern' Horizontal Kerning in Arabic lookup 0 subtable" uni06A9 dx=0 dy=0 dh=0 dv=0 dx=0 dy=0 dh=260 dv=0
PairPos2: "'kern' Horizontal Kerning in Arabic lookup 0 subtable" uniFB94 dx=0 dy=0 dh=0 dv=0 dx=0 dy=0 dh=260 dv=0
PairPos2: "'kern' Horizontal Kerning in Arabic lookup 0 subtable" uniFBD5 dx=0 dy=0 dh=0 dv=0 dx=0 dy=0 dh=260 dv=0
PairPos2: "'kern' Horizontal Kerning in Arabic lookup 0 subtable" uni06AB.ini dx=0 dy=0 dh=0 dv=0 dx=0 dy=0 dh=260 dv=0
PairPos2: "'kern' Horizontal Kerning in Arabic lookup 0 subtable" uniFB90 dx=0 dy=0 dh=0 dv=0 dx=0 dy=0 dh=260 dv=0
PairPos2: "'kern' Horizontal Kerning in Arabic lookup 0 subtable" uniFEDB dx=0 dy=0 dh=0 dv=0 dx=0 dy=0 dh=260 dv=0
PairPos2: "'kern' Horizontal Kerning in Arabic lookup 0 subtable" uni0671 dx=0 dy=0 dh=0 dv=0 dx=0 dy=0 dh=208 dv=0
PairPos2: "'kern' Horizontal Kerning in Arabic lookup 0 subtable" afii57410 dx=0 dy=0 dh=0 dv=0 dx=0 dy=0 dh=208 dv=0
PairPos2: "'kern' Horizontal Kerning in Arabic lookup 0 subtable" afii57415 dx=0 dy=0 dh=0 dv=0 dx=0 dy=0 dh=52 dv=0
EndChar

StartChar: J
Encoding: 74 74 45
Width: 797
GlyphClass: 2
Flags: W
LayerCount: 2
Fore
SplineSet
-24 222 m 0,0,1
 9 222 9 222 29.5 199 c 128,-1,2
 50 176 50 176 56 135 c 0,3,4
 61 95 61 95 72.5 73 c 128,-1,5
 84 51 84 51 102 51 c 0,6,7
 141 51 141 51 166 86 c 128,-1,8
 191 121 191 121 214 207 c 2,9,-1
 462 1132 l 2,10,11
 492 1246 492 1246 464 1277 c 0,12,13
 433 1309 433 1309 321 1315 c 1,14,-1
 332 1355 l 1,15,-1
 921 1355 l 1,16,-1
 910 1315 l 1,17,18
 851 1311 851 1311 811.5 1302.5 c 128,-1,19
 772 1294 772 1294 746 1274 c 128,-1,20
 720 1254 720 1254 703 1220 c 128,-1,21
 686 1186 686 1186 672 1132 c 2,22,-1
 471 381 l 2,23,24
 443 277 443 277 395.5 201 c 128,-1,25
 348 125 348 125 288 75 c 128,-1,26
 228 25 228 25 158.5 0.5 c 128,-1,27
 89 -24 89 -24 17 -24 c 0,28,29
 -31 -24 -31 -24 -65.5 -12 c 128,-1,30
 -100 0 -100 0 -120.5 20 c 128,-1,31
 -141 40 -141 40 -148 65.5 c 128,-1,32
 -155 91 -155 91 -148 119 c 0,33,34
 -140 148 -140 148 -126 168 c 128,-1,35
 -112 188 -112 188 -95 200 c 128,-1,36
 -78 212 -78 212 -59.5 217 c 128,-1,37
 -41 222 -41 222 -24 222 c 0,0,1
EndSplineSet
Substitution2: "<17016,16016> Urdu Swash lookup 75 subtable" J
PairPos2: "'kern' Horizontal Kerning in Arabic lookup 0 subtable" afii57509 dx=0 dy=0 dh=0 dv=0 dx=0 dy=0 dh=260 dv=0
PairPos2: "'kern' Horizontal Kerning in Arabic lookup 0 subtable" uni06AB dx=0 dy=0 dh=0 dv=0 dx=0 dy=0 dh=260 dv=0
PairPos2: "'kern' Horizontal Kerning in Arabic lookup 0 subtable" uni06A9 dx=0 dy=0 dh=0 dv=0 dx=0 dy=0 dh=260 dv=0
PairPos2: "'kern' Horizontal Kerning in Arabic lookup 0 subtable" uniFB94 dx=0 dy=0 dh=0 dv=0 dx=0 dy=0 dh=260 dv=0
PairPos2: "'kern' Horizontal Kerning in Arabic lookup 0 subtable" uniFBD5 dx=0 dy=0 dh=0 dv=0 dx=0 dy=0 dh=260 dv=0
PairPos2: "'kern' Horizontal Kerning in Arabic lookup 0 subtable" uni06AB.ini dx=0 dy=0 dh=0 dv=0 dx=0 dy=0 dh=260 dv=0
PairPos2: "'kern' Horizontal Kerning in Arabic lookup 0 subtable" uniFB90 dx=0 dy=0 dh=0 dv=0 dx=0 dy=0 dh=260 dv=0
PairPos2: "'kern' Horizontal Kerning in Arabic lookup 0 subtable" uniFEDB dx=0 dy=0 dh=0 dv=0 dx=0 dy=0 dh=260 dv=0
PairPos2: "'kern' Horizontal Kerning in Arabic lookup 0 subtable" uni0671 dx=0 dy=0 dh=0 dv=0 dx=0 dy=0 dh=208 dv=0
PairPos2: "'kern' Horizontal Kerning in Arabic lookup 0 subtable" afii57410 dx=0 dy=0 dh=0 dv=0 dx=0 dy=0 dh=208 dv=0
PairPos2: "'kern' Horizontal Kerning in Arabic lookup 0 subtable" afii57415 dx=0 dy=0 dh=0 dv=0 dx=0 dy=0 dh=52 dv=0
EndChar

StartChar: K
Encoding: 75 75 46
AltUni2: 00212a.ffffffff.0
Width: 1479
GlyphClass: 2
Flags: W
LayerCount: 2
Fore
SplineSet
-153 39 m 1,0,1
 -24 50 -24 50 14 83 c 0,2,3
 53 118 53 118 88 247 c 2,4,-1
 325 1132 l 2,5,6
 354 1241 354 1241 329 1274 c 0,7,8
 317 1291 317 1291 283 1301.5 c 128,-1,9
 249 1312 249 1312 189 1315 c 1,10,-1
 200 1355 l 1,11,-1
 785 1355 l 1,12,-1
 774 1315 l 1,13,14
 713 1312 713 1312 673 1303.5 c 128,-1,15
 633 1295 633 1295 607.5 1275 c 128,-1,16
 582 1255 582 1255 566 1220.5 c 128,-1,17
 550 1186 550 1186 535 1132 c 2,18,-1
 423 716 l 1,19,20
 539 797 539 797 633.5 864 c 128,-1,21
 728 931 728 931 803 988 c 0,22,23
 936 1088 936 1088 1008 1154.5 c 128,-1,24
 1080 1221 1080 1221 1088 1249 c 0,25,26
 1094 1269 1094 1269 1088 1282 c 128,-1,27
 1082 1295 1082 1295 1066 1302.5 c 128,-1,28
 1050 1310 1050 1310 1024.5 1312.5 c 128,-1,29
 999 1315 999 1315 966 1315 c 1,30,-1
 977 1355 l 1,31,-1
 1514 1355 l 1,32,-1
 1504 1320 l 1,33,34
 1456 1315 1456 1315 1413 1305 c 128,-1,35
 1370 1295 1370 1295 1338 1281 c 0,36,37
 1307 1268 1307 1268 1260 1235.5 c 128,-1,38
 1213 1203 1213 1203 1150 1154 c 0,39,40
 1027 1059 1027 1059 905 965 c 128,-1,41
 783 871 783 871 660 775 c 1,42,43
 664 770 664 770 689.5 731.5 c 128,-1,44
 715 693 715 693 751.5 637.5 c 128,-1,45
 788 582 788 582 829.5 518.5 c 128,-1,46
 871 455 871 455 907.5 399.5 c 128,-1,47
 944 344 944 344 969 305.5 c 128,-1,48
 994 267 994 267 998 262 c 0,49,50
 1043 195 1043 195 1077 149 c 128,-1,51
 1111 103 1111 103 1131 83 c 0,52,53
 1149 65 1149 65 1182.5 54 c 128,-1,54
 1216 43 1216 43 1259 37 c 1,55,-1
 1250 0 l 1,56,-1
 623 0 l 1,57,-1
 633 39 l 1,58,59
 677 41 677 41 705.5 43.5 c 128,-1,60
 734 46 734 46 752 52 c 128,-1,61
 770 58 770 58 779 67.5 c 128,-1,62
 788 77 788 77 792 93 c 0,63,64
 797 110 797 110 786.5 144.5 c 128,-1,65
 776 179 776 179 747 225 c 2,66,-1
 473 649 l 1,67,68
 452 635 452 635 431.5 620 c 128,-1,69
 411 605 411 605 390 591 c 1,70,-1
 291 223 l 2,71,72
 277 169 277 169 276.5 132.5 c 128,-1,73
 276 96 276 96 287 79 c 1,74,75
 316 50 316 50 427 39 c 1,76,-1
 417 0 l 1,77,-1
 -163 0 l 1,78,-1
 -153 39 l 1,0,1
EndSplineSet
Substitution2: "<17016,16016> Urdu Swash lookup 75 subtable" K
PairPos2: "'kern' Horizontal Kerning in Arabic lookup 0 subtable" afii57509 dx=0 dy=0 dh=0 dv=0 dx=0 dy=0 dh=260 dv=0
PairPos2: "'kern' Horizontal Kerning in Arabic lookup 0 subtable" uni06AB dx=0 dy=0 dh=0 dv=0 dx=0 dy=0 dh=260 dv=0
PairPos2: "'kern' Horizontal Kerning in Arabic lookup 0 subtable" uni06A9 dx=0 dy=0 dh=0 dv=0 dx=0 dy=0 dh=260 dv=0
PairPos2: "'kern' Horizontal Kerning in Arabic lookup 0 subtable" uniFB94 dx=0 dy=0 dh=0 dv=0 dx=0 dy=0 dh=260 dv=0
PairPos2: "'kern' Horizontal Kerning in Arabic lookup 0 subtable" uniFBD5 dx=0 dy=0 dh=0 dv=0 dx=0 dy=0 dh=260 dv=0
PairPos2: "'kern' Horizontal Kerning in Arabic lookup 0 subtable" uni06AB.ini dx=0 dy=0 dh=0 dv=0 dx=0 dy=0 dh=260 dv=0
PairPos2: "'kern' Horizontal Kerning in Arabic lookup 0 subtable" uniFB90 dx=0 dy=0 dh=0 dv=0 dx=0 dy=0 dh=260 dv=0
PairPos2: "'kern' Horizontal Kerning in Arabic lookup 0 subtable" uniFEDB dx=0 dy=0 dh=0 dv=0 dx=0 dy=0 dh=260 dv=0
PairPos2: "'kern' Horizontal Kerning in Arabic lookup 0 subtable" uni0671 dx=0 dy=0 dh=0 dv=0 dx=0 dy=0 dh=208 dv=0
PairPos2: "'kern' Horizontal Kerning in Arabic lookup 0 subtable" afii57410 dx=0 dy=0 dh=0 dv=0 dx=0 dy=0 dh=208 dv=0
PairPos2: "'kern' Horizontal Kerning in Arabic lookup 0 subtable" afii57415 dx=0 dy=0 dh=0 dv=0 dx=0 dy=0 dh=52 dv=0
EndChar

StartChar: L
Encoding: 76 76 47
AltUni2: 00216c.ffffffff.0
Width: 1251
GlyphClass: 2
Flags: W
LayerCount: 2
Fore
SplineSet
-167 39 m 1,0,1
 -49 51 -49 51 -10 79 c 0,2,3
 32 107 32 107 62 223 c 2,4,-1
 306 1132 l 2,5,6
 321 1187 321 1187 323 1221 c 128,-1,7
 325 1255 325 1255 310.5 1274.5 c 128,-1,8
 296 1294 296 1294 263.5 1302.5 c 128,-1,9
 231 1311 231 1311 175 1315 c 1,10,-1
 186 1355 l 1,11,-1
 766 1355 l 1,12,-1
 755 1315 l 1,13,14
 698 1312 698 1312 659 1304 c 128,-1,15
 620 1296 620 1296 593.5 1278 c 128,-1,16
 567 1260 567 1260 550.5 1228.5 c 128,-1,17
 534 1197 534 1197 520 1146 c 2,18,-1
 256 164 l 2,19,20
 249 136 249 136 252 119.5 c 128,-1,21
 255 103 255 103 275 94.5 c 128,-1,22
 295 86 295 86 334.5 84 c 128,-1,23
 374 82 374 82 439 82 c 0,24,25
 570 82 570 82 667.5 94.5 c 128,-1,26
 765 107 765 107 820 127 c 0,27,28
 925 172 925 172 1066 357 c 1,29,-1
 1120 357 l 1,30,-1
 925 0 l 1,31,-1
 -177 0 l 1,32,-1
 -167 39 l 1,0,1
EndSplineSet
Substitution2: "<17016,16016> Urdu Swash lookup 75 subtable" L
PairPos2: "'kern' Horizontal Kerning in Arabic lookup 0 subtable" afii57509 dx=0 dy=0 dh=0 dv=0 dx=0 dy=0 dh=260 dv=0
PairPos2: "'kern' Horizontal Kerning in Arabic lookup 0 subtable" uni06AB dx=0 dy=0 dh=0 dv=0 dx=0 dy=0 dh=260 dv=0
PairPos2: "'kern' Horizontal Kerning in Arabic lookup 0 subtable" uni06A9 dx=0 dy=0 dh=0 dv=0 dx=0 dy=0 dh=260 dv=0
PairPos2: "'kern' Horizontal Kerning in Arabic lookup 0 subtable" uniFB94 dx=0 dy=0 dh=0 dv=0 dx=0 dy=0 dh=260 dv=0
PairPos2: "'kern' Horizontal Kerning in Arabic lookup 0 subtable" uniFBD5 dx=0 dy=0 dh=0 dv=0 dx=0 dy=0 dh=260 dv=0
PairPos2: "'kern' Horizontal Kerning in Arabic lookup 0 subtable" uni06AB.ini dx=0 dy=0 dh=0 dv=0 dx=0 dy=0 dh=260 dv=0
PairPos2: "'kern' Horizontal Kerning in Arabic lookup 0 subtable" uniFB90 dx=0 dy=0 dh=0 dv=0 dx=0 dy=0 dh=260 dv=0
PairPos2: "'kern' Horizontal Kerning in Arabic lookup 0 subtable" uniFEDB dx=0 dy=0 dh=0 dv=0 dx=0 dy=0 dh=260 dv=0
PairPos2: "'kern' Horizontal Kerning in Arabic lookup 0 subtable" uni0671 dx=0 dy=0 dh=0 dv=0 dx=0 dy=0 dh=208 dv=0
PairPos2: "'kern' Horizontal Kerning in Arabic lookup 0 subtable" afii57410 dx=0 dy=0 dh=0 dv=0 dx=0 dy=0 dh=208 dv=0
PairPos2: "'kern' Horizontal Kerning in Arabic lookup 0 subtable" afii57415 dx=0 dy=0 dh=0 dv=0 dx=0 dy=0 dh=52 dv=0
EndChar

StartChar: M
Encoding: 77 77 48
AltUni2: 00216f.ffffffff.0
Width: 1821
GlyphClass: 2
Flags: W
LayerCount: 2
Fore
SplineSet
-167 39 m 1,0,1
 -37 52 -37 52 11 96 c 0,2,3
 60 142 60 142 102 302 c 2,4,-1
 325 1132 l 2,5,6
 354 1242 354 1242 328 1275 c 0,7,8
 303 1309 303 1309 180 1315 c 1,9,-1
 191 1355 l 1,10,-1
 598 1355 l 1,11,-1
 794 325 l 1,12,13
 977 583 977 583 1157.5 840 c 128,-1,14
 1338 1097 1338 1097 1521 1355 c 1,15,-1
 1931 1355 l 1,16,-1
 1920 1315 l 1,17,18
 1862 1311 1862 1311 1824.5 1302.5 c 128,-1,19
 1787 1294 1787 1294 1762.5 1274.5 c 128,-1,20
 1738 1255 1738 1255 1722 1221 c 128,-1,21
 1706 1187 1706 1187 1691 1132 c 2,22,-1
 1447 223 l 2,23,24
 1432 167 1432 167 1429.5 133 c 128,-1,25
 1427 99 1427 99 1441.5 80 c 128,-1,26
 1456 61 1456 61 1489 52.5 c 128,-1,27
 1522 44 1522 44 1578 39 c 1,28,-1
 1568 0 l 1,29,-1
 993 0 l 1,30,-1
 1003 39 l 1,31,32
 1130 50 1130 50 1168 83 c 0,33,34
 1208 117 1208 117 1243 247 c 2,35,-1
 1488 1161 l 1,36,37
 1279 870 1279 870 1072 580.5 c 128,-1,38
 865 291 865 291 656 0 c 1,39,-1
 626 0 l 1,40,-1
 412 1113 l 1,41,-1
 194 302 l 2,42,43
 150 134 150 134 185 84 c 0,44,45
 207 51 207 51 316 39 c 1,46,-1
 306 0 l 1,47,-1
 -177 0 l 1,48,-1
 -167 39 l 1,0,1
EndSplineSet
Substitution2: "<17016,16016> Urdu Swash lookup 75 subtable" M
PairPos2: "'kern' Horizontal Kerning in Arabic lookup 0 subtable" afii57509 dx=0 dy=0 dh=0 dv=0 dx=0 dy=0 dh=260 dv=0
PairPos2: "'kern' Horizontal Kerning in Arabic lookup 0 subtable" uni06AB dx=0 dy=0 dh=0 dv=0 dx=0 dy=0 dh=260 dv=0
PairPos2: "'kern' Horizontal Kerning in Arabic lookup 0 subtable" uni06A9 dx=0 dy=0 dh=0 dv=0 dx=0 dy=0 dh=260 dv=0
PairPos2: "'kern' Horizontal Kerning in Arabic lookup 0 subtable" uniFB94 dx=0 dy=0 dh=0 dv=0 dx=0 dy=0 dh=260 dv=0
PairPos2: "'kern' Horizontal Kerning in Arabic lookup 0 subtable" uniFBD5 dx=0 dy=0 dh=0 dv=0 dx=0 dy=0 dh=260 dv=0
PairPos2: "'kern' Horizontal Kerning in Arabic lookup 0 subtable" uni06AB.ini dx=0 dy=0 dh=0 dv=0 dx=0 dy=0 dh=260 dv=0
PairPos2: "'kern' Horizontal Kerning in Arabic lookup 0 subtable" uniFB90 dx=0 dy=0 dh=0 dv=0 dx=0 dy=0 dh=260 dv=0
PairPos2: "'kern' Horizontal Kerning in Arabic lookup 0 subtable" uniFEDB dx=0 dy=0 dh=0 dv=0 dx=0 dy=0 dh=260 dv=0
PairPos2: "'kern' Horizontal Kerning in Arabic lookup 0 subtable" uni0671 dx=0 dy=0 dh=0 dv=0 dx=0 dy=0 dh=208 dv=0
PairPos2: "'kern' Horizontal Kerning in Arabic lookup 0 subtable" afii57410 dx=0 dy=0 dh=0 dv=0 dx=0 dy=0 dh=208 dv=0
PairPos2: "'kern' Horizontal Kerning in Arabic lookup 0 subtable" afii57415 dx=0 dy=0 dh=0 dv=0 dx=0 dy=0 dh=52 dv=0
EndChar

StartChar: N
Encoding: 78 78 49
Width: 1479
GlyphClass: 2
Flags: W
LayerCount: 2
Fore
SplineSet
-167 39 m 1,0,1
 -37 52 -37 52 11 96 c 0,2,3
 60 142 60 142 102 302 c 2,4,-1
 344 1202 l 1,5,6
 323 1240 323 1240 308 1262.5 c 128,-1,7
 293 1285 293 1285 275.5 1296 c 128,-1,8
 258 1307 258 1307 235 1310.5 c 128,-1,9
 212 1314 212 1314 175 1315 c 1,10,-1
 186 1355 l 1,11,-1
 539 1355 l 1,12,-1
 1060 373 l 1,13,-1
 1243 1054 l 2,14,15
 1288 1220 1288 1220 1251 1272 c 0,16,17
 1229 1304 1229 1304 1118 1315 c 1,18,-1
 1129 1355 l 1,19,-1
 1611 1355 l 1,20,-1
 1600 1315 l 1,21,22
 1542 1309 1542 1309 1498.5 1294 c 128,-1,23
 1455 1279 1455 1279 1429 1258 c 0,24,25
 1377 1211 1377 1211 1335 1054 c 2,26,-1
 1046 -24 l 1,27,-1
 1009 -24 l 1,28,-1
 407 1095 l 1,29,-1
 194 302 l 2,30,31
 150 134 150 134 185 84 c 0,32,33
 209 51 209 51 315 39 c 1,34,-1
 305 0 l 1,35,-1
 -177 0 l 1,36,-1
 -167 39 l 1,0,1
EndSplineSet
Substitution2: "<17016,16016> Urdu Swash lookup 75 subtable" N
PairPos2: "'kern' Horizontal Kerning in Arabic lookup 0 subtable" afii57509 dx=0 dy=0 dh=0 dv=0 dx=0 dy=0 dh=260 dv=0
PairPos2: "'kern' Horizontal Kerning in Arabic lookup 0 subtable" uni06AB dx=0 dy=0 dh=0 dv=0 dx=0 dy=0 dh=260 dv=0
PairPos2: "'kern' Horizontal Kerning in Arabic lookup 0 subtable" uni06A9 dx=0 dy=0 dh=0 dv=0 dx=0 dy=0 dh=260 dv=0
PairPos2: "'kern' Horizontal Kerning in Arabic lookup 0 subtable" uniFB94 dx=0 dy=0 dh=0 dv=0 dx=0 dy=0 dh=260 dv=0
PairPos2: "'kern' Horizontal Kerning in Arabic lookup 0 subtable" uniFBD5 dx=0 dy=0 dh=0 dv=0 dx=0 dy=0 dh=260 dv=0
PairPos2: "'kern' Horizontal Kerning in Arabic lookup 0 subtable" uni06AB.ini dx=0 dy=0 dh=0 dv=0 dx=0 dy=0 dh=260 dv=0
PairPos2: "'kern' Horizontal Kerning in Arabic lookup 0 subtable" uniFB90 dx=0 dy=0 dh=0 dv=0 dx=0 dy=0 dh=260 dv=0
PairPos2: "'kern' Horizontal Kerning in Arabic lookup 0 subtable" uniFEDB dx=0 dy=0 dh=0 dv=0 dx=0 dy=0 dh=260 dv=0
PairPos2: "'kern' Horizontal Kerning in Arabic lookup 0 subtable" uni0671 dx=0 dy=0 dh=0 dv=0 dx=0 dy=0 dh=208 dv=0
PairPos2: "'kern' Horizontal Kerning in Arabic lookup 0 subtable" afii57410 dx=0 dy=0 dh=0 dv=0 dx=0 dy=0 dh=208 dv=0
PairPos2: "'kern' Horizontal Kerning in Arabic lookup 0 subtable" afii57415 dx=0 dy=0 dh=0 dv=0 dx=0 dy=0 dh=52 dv=0
EndChar

StartChar: O
Encoding: 79 79 50
Width: 1479
GlyphClass: 2
Flags: W
LayerCount: 2
Fore
SplineSet
544 47 m 0,0,1
 724 47 724 47 892 197 c 0,2,3
 977 273 977 273 1040.5 392 c 128,-1,4
 1104 511 1104 511 1149 677 c 0,5,6
 1194 845 1194 845 1194 965 c 128,-1,7
 1194 1085 1194 1085 1149 1159 c 0,8,9
 1059 1308 1059 1308 882 1308 c 0,10,11
 699 1308 699 1308 529 1153 c 0,12,13
 363 1001 363 1001 276 677 c 0,14,15
 190 355 190 355 274 201 c 0,16,17
 361 47 361 47 544 47 c 0,0,1
389 1203 m 0,18,19
 624 1384 624 1384 902 1384 c 0,20,21
 1045 1384 1045 1384 1153.5 1332 c 128,-1,22
 1262 1280 1262 1280 1327.5 1186 c 128,-1,23
 1393 1092 1393 1092 1409.5 962.5 c 128,-1,24
 1426 833 1426 833 1384 677 c 0,25,26
 1294 344 1294 344 1030 147 c 0,27,28
 794 -29 794 -29 524 -29 c 0,29,30
 235 -29 235 -29 98 166 c 0,31,32
 -41 365 -41 365 42 677 c 0,33,34
 130 1006 130 1006 389 1203 c 0,18,19
EndSplineSet
Substitution2: "<17016,16016> Urdu Swash lookup 75 subtable" O
PairPos2: "'kern' Horizontal Kerning in Arabic lookup 0 subtable" afii57509 dx=0 dy=0 dh=0 dv=0 dx=0 dy=0 dh=260 dv=0
PairPos2: "'kern' Horizontal Kerning in Arabic lookup 0 subtable" uni06AB dx=0 dy=0 dh=0 dv=0 dx=0 dy=0 dh=260 dv=0
PairPos2: "'kern' Horizontal Kerning in Arabic lookup 0 subtable" uni06A9 dx=0 dy=0 dh=0 dv=0 dx=0 dy=0 dh=260 dv=0
PairPos2: "'kern' Horizontal Kerning in Arabic lookup 0 subtable" uniFB94 dx=0 dy=0 dh=0 dv=0 dx=0 dy=0 dh=260 dv=0
PairPos2: "'kern' Horizontal Kerning in Arabic lookup 0 subtable" uniFBD5 dx=0 dy=0 dh=0 dv=0 dx=0 dy=0 dh=260 dv=0
PairPos2: "'kern' Horizontal Kerning in Arabic lookup 0 subtable" uni06AB.ini dx=0 dy=0 dh=0 dv=0 dx=0 dy=0 dh=260 dv=0
PairPos2: "'kern' Horizontal Kerning in Arabic lookup 0 subtable" uniFB90 dx=0 dy=0 dh=0 dv=0 dx=0 dy=0 dh=260 dv=0
PairPos2: "'kern' Horizontal Kerning in Arabic lookup 0 subtable" uniFEDB dx=0 dy=0 dh=0 dv=0 dx=0 dy=0 dh=260 dv=0
PairPos2: "'kern' Horizontal Kerning in Arabic lookup 0 subtable" uni0671 dx=0 dy=0 dh=0 dv=0 dx=0 dy=0 dh=208 dv=0
PairPos2: "'kern' Horizontal Kerning in Arabic lookup 0 subtable" afii57410 dx=0 dy=0 dh=0 dv=0 dx=0 dy=0 dh=208 dv=0
PairPos2: "'kern' Horizontal Kerning in Arabic lookup 0 subtable" afii57415 dx=0 dy=0 dh=0 dv=0 dx=0 dy=0 dh=52 dv=0
EndChar

StartChar: P
Encoding: 80 80 51
Width: 1139
GlyphClass: 2
Flags: W
LayerCount: 2
Fore
SplineSet
855 1239 m 0,0,1
 777 1277 777 1277 646 1277 c 0,2,3
 616 1277 616 1277 597.5 1275 c 128,-1,4
 579 1273 579 1273 567.5 1266 c 128,-1,5
 556 1259 556 1259 549.5 1245.5 c 128,-1,6
 543 1232 543 1232 537 1210 c 2,7,-1
 394 678 l 1,8,9
 422 676 422 676 437.5 674.5 c 128,-1,10
 453 673 453 673 462.5 672.5 c 128,-1,11
 472 672 472 672 479 671.5 c 128,-1,12
 486 671 486 671 496 671 c 0,13,14
 687 671 687 671 796.5 749 c 128,-1,15
 906 827 906 827 948 983 c 0,16,17
 998 1168 998 1168 855 1239 c 0,0,1
-157 39 m 1,18,19
 -39 49 -39 49 1 85 c 0,20,21
 20 104 20 104 38.5 144.5 c 128,-1,22
 57 185 57 185 74 247 c 2,23,-1
 311 1132 l 2,24,25
 325 1185 325 1185 327.5 1218 c 128,-1,26
 330 1251 330 1251 316.5 1271.5 c 128,-1,27
 303 1292 303 1292 271.5 1301.5 c 128,-1,28
 240 1311 240 1311 185 1315 c 1,29,-1
 196 1355 l 1,30,-1
 736 1355 l 2,31,32
 867 1355 867 1355 960 1328.5 c 128,-1,33
 1053 1302 1053 1302 1107.5 1253.5 c 128,-1,34
 1162 1205 1162 1205 1178.5 1137.5 c 128,-1,35
 1195 1070 1195 1070 1173 988 c 0,36,37
 1118 779 1118 779 939 684 c 0,38,39
 763 590 763 590 531 590 c 0,40,41
 519 590 519 590 499.5 590.5 c 128,-1,42
 480 591 480 591 458 591.5 c 128,-1,43
 436 592 436 592 413 592.5 c 128,-1,44
 390 593 390 593 371 593 c 1,45,-1
 272 223 l 2,46,47
 258 169 258 169 257.5 132 c 128,-1,48
 257 95 257 95 268 78 c 1,49,50
 300 48 300 48 417 39 c 1,51,-1
 407 0 l 1,52,-1
 -167 0 l 1,53,-1
 -157 39 l 1,18,19
EndSplineSet
Substitution2: "<17016,16016> Urdu Swash lookup 75 subtable" P
PairPos2: "'kern' Horizontal Kerning in Arabic lookup 0 subtable" afii57509 dx=0 dy=0 dh=0 dv=0 dx=0 dy=0 dh=260 dv=0
PairPos2: "'kern' Horizontal Kerning in Arabic lookup 0 subtable" uni06AB dx=0 dy=0 dh=0 dv=0 dx=0 dy=0 dh=260 dv=0
PairPos2: "'kern' Horizontal Kerning in Arabic lookup 0 subtable" uni06A9 dx=0 dy=0 dh=0 dv=0 dx=0 dy=0 dh=260 dv=0
PairPos2: "'kern' Horizontal Kerning in Arabic lookup 0 subtable" uniFB94 dx=0 dy=0 dh=0 dv=0 dx=0 dy=0 dh=260 dv=0
PairPos2: "'kern' Horizontal Kerning in Arabic lookup 0 subtable" uniFBD5 dx=0 dy=0 dh=0 dv=0 dx=0 dy=0 dh=260 dv=0
PairPos2: "'kern' Horizontal Kerning in Arabic lookup 0 subtable" uni06AB.ini dx=0 dy=0 dh=0 dv=0 dx=0 dy=0 dh=260 dv=0
PairPos2: "'kern' Horizontal Kerning in Arabic lookup 0 subtable" uniFB90 dx=0 dy=0 dh=0 dv=0 dx=0 dy=0 dh=260 dv=0
PairPos2: "'kern' Horizontal Kerning in Arabic lookup 0 subtable" uniFEDB dx=0 dy=0 dh=0 dv=0 dx=0 dy=0 dh=260 dv=0
PairPos2: "'kern' Horizontal Kerning in Arabic lookup 0 subtable" uni0671 dx=0 dy=0 dh=0 dv=0 dx=0 dy=0 dh=208 dv=0
PairPos2: "'kern' Horizontal Kerning in Arabic lookup 0 subtable" afii57410 dx=0 dy=0 dh=0 dv=0 dx=0 dy=0 dh=208 dv=0
PairPos2: "'kern' Horizontal Kerning in Arabic lookup 0 subtable" afii57415 dx=0 dy=0 dh=0 dv=0 dx=0 dy=0 dh=52 dv=0
EndChar

StartChar: Q
Encoding: 81 81 52
Width: 1479
GlyphClass: 2
Flags: W
LayerCount: 2
Fore
SplineSet
544 47 m 0,0,1
 724 47 724 47 892 197 c 0,2,3
 977 273 977 273 1040.5 392 c 128,-1,4
 1104 511 1104 511 1149 677 c 0,5,6
 1194 845 1194 845 1194 965 c 128,-1,7
 1194 1085 1194 1085 1149 1159 c 0,8,9
 1059 1308 1059 1308 882 1308 c 0,10,11
 699 1308 699 1308 529 1153 c 0,12,13
 363 1001 363 1001 276 677 c 0,14,15
 190 355 190 355 274 201 c 0,16,17
 361 47 361 47 544 47 c 0,0,1
389 1203 m 0,18,19
 624 1384 624 1384 902 1384 c 0,20,21
 1175 1384 1175 1384 1316 1205 c 0,22,23
 1473 1011 1473 1011 1384 677 c 0,24,25
 1314 414 1314 414 1132 234 c 0,26,27
 935 39 935 39 660 -12 c 1,28,29
 698 -101 698 -101 756.5 -164 c 128,-1,30
 815 -227 815 -227 890 -264 c 0,31,32
 932 -285 932 -285 997.5 -300.5 c 128,-1,33
 1063 -316 1063 -316 1141 -326 c 1,34,-1
 1131 -364 l 1,35,-1
 1046 -364 l 2,36,37
 880 -364 880 -364 759 -337.5 c 128,-1,38
 638 -311 638 -311 548 -256 c 0,39,40
 502 -228 502 -228 463 -191 c 128,-1,41
 424 -154 424 -154 392 -106 c 0,42,43
 328 -7 328 -7 321 -5 c 2,44,-1
 298 7 l 2,45,46
 224 46 224 46 170 92.5 c 128,-1,47
 116 139 116 139 84 187 c 0,48,49
 21 281 21 281 11.5 403 c 128,-1,50
 2 525 2 525 42 677 c 0,51,52
 130 1006 130 1006 389 1203 c 0,18,19
EndSplineSet
Substitution2: "<17016,16016> Urdu Swash lookup 75 subtable" Q
PairPos2: "'kern' Horizontal Kerning in Arabic lookup 0 subtable" afii57509 dx=0 dy=0 dh=0 dv=0 dx=0 dy=0 dh=260 dv=0
PairPos2: "'kern' Horizontal Kerning in Arabic lookup 0 subtable" uni06AB dx=0 dy=0 dh=0 dv=0 dx=0 dy=0 dh=260 dv=0
PairPos2: "'kern' Horizontal Kerning in Arabic lookup 0 subtable" uni06A9 dx=0 dy=0 dh=0 dv=0 dx=0 dy=0 dh=260 dv=0
PairPos2: "'kern' Horizontal Kerning in Arabic lookup 0 subtable" uniFB94 dx=0 dy=0 dh=0 dv=0 dx=0 dy=0 dh=260 dv=0
PairPos2: "'kern' Horizontal Kerning in Arabic lookup 0 subtable" uniFBD5 dx=0 dy=0 dh=0 dv=0 dx=0 dy=0 dh=260 dv=0
PairPos2: "'kern' Horizontal Kerning in Arabic lookup 0 subtable" uni06AB.ini dx=0 dy=0 dh=0 dv=0 dx=0 dy=0 dh=260 dv=0
PairPos2: "'kern' Horizontal Kerning in Arabic lookup 0 subtable" uniFB90 dx=0 dy=0 dh=0 dv=0 dx=0 dy=0 dh=260 dv=0
PairPos2: "'kern' Horizontal Kerning in Arabic lookup 0 subtable" uniFEDB dx=0 dy=0 dh=0 dv=0 dx=0 dy=0 dh=260 dv=0
PairPos2: "'kern' Horizontal Kerning in Arabic lookup 0 subtable" uni0671 dx=0 dy=0 dh=0 dv=0 dx=0 dy=0 dh=208 dv=0
PairPos2: "'kern' Horizontal Kerning in Arabic lookup 0 subtable" afii57410 dx=0 dy=0 dh=0 dv=0 dx=0 dy=0 dh=208 dv=0
PairPos2: "'kern' Horizontal Kerning in Arabic lookup 0 subtable" afii57415 dx=0 dy=0 dh=0 dv=0 dx=0 dy=0 dh=52 dv=0
EndChar

StartChar: R
Encoding: 82 82 53
Width: 1366
GlyphClass: 2
Flags: W
LayerCount: 2
Fore
SplineSet
723 748 m 0,0,1
 902 815 902 815 952 999 c 0,2,3
 990 1139 990 1139 920 1207 c 128,-1,4
 850 1275 850 1275 674 1275 c 0,5,6
 631 1275 631 1275 605 1272.5 c 128,-1,7
 579 1270 579 1270 564.5 1262.5 c 128,-1,8
 550 1255 550 1255 543 1241.5 c 128,-1,9
 536 1228 536 1228 530 1205 c 2,10,-1
 396 702 l 1,11,12
 505 706 505 706 588 717.5 c 128,-1,13
 671 729 671 729 723 748 c 0,0,1
-167 39 m 1,14,15
 -107 44 -107 44 -67.5 56 c 128,-1,16
 -28 68 -28 68 -8 85 c 0,17,18
 11 103 11 103 29.5 144 c 128,-1,19
 48 185 48 185 65 247 c 2,20,-1
 302 1132 l 2,21,22
 316 1186 316 1186 318.5 1219.5 c 128,-1,23
 321 1253 321 1253 307.5 1272.5 c 128,-1,24
 294 1292 294 1292 262 1301.5 c 128,-1,25
 230 1311 230 1311 175 1315 c 1,26,-1
 186 1355 l 1,27,-1
 753 1355 l 2,28,29
 1011 1355 1011 1355 1116.5 1262 c 128,-1,30
 1222 1169 1222 1169 1176 997 c 0,31,32
 1155 919 1155 919 1113.5 860.5 c 128,-1,33
 1072 802 1072 802 1012.5 760 c 128,-1,34
 953 718 953 718 878 692 c 128,-1,35
 803 666 803 666 715 653 c 1,36,37
 718 648 718 648 731 624.5 c 128,-1,38
 744 601 744 601 763.5 565.5 c 128,-1,39
 783 530 783 530 807.5 485.5 c 128,-1,40
 832 441 832 441 857 395 c 128,-1,41
 882 349 882 349 906 304.5 c 128,-1,42
 930 260 930 260 949.5 224.5 c 128,-1,43
 969 189 969 189 982 165.5 c 128,-1,44
 995 142 995 142 997 137 c 0,45,46
 1023 90 1023 90 1057 67.5 c 128,-1,47
 1091 45 1091 45 1149 39 c 1,48,-1
 1139 0 l 1,49,-1
 808 0 l 1,50,-1
 488 629 l 1,51,52
 461 628 461 628 431.5 626.5 c 128,-1,53
 402 625 402 625 375 624 c 1,54,-1
 267 223 l 2,55,56
 253 169 253 169 252.5 132.5 c 128,-1,57
 252 96 252 96 263 79 c 1,58,59
 292 50 292 50 403 39 c 1,60,-1
 393 0 l 1,61,-1
 -177 0 l 1,62,-1
 -167 39 l 1,14,15
EndSplineSet
Substitution2: "<17016,16016> Urdu Swash lookup 75 subtable" R
PairPos2: "'kern' Horizontal Kerning in Arabic lookup 0 subtable" afii57509 dx=0 dy=0 dh=0 dv=0 dx=0 dy=0 dh=260 dv=0
PairPos2: "'kern' Horizontal Kerning in Arabic lookup 0 subtable" uni06AB dx=0 dy=0 dh=0 dv=0 dx=0 dy=0 dh=260 dv=0
PairPos2: "'kern' Horizontal Kerning in Arabic lookup 0 subtable" uni06A9 dx=0 dy=0 dh=0 dv=0 dx=0 dy=0 dh=260 dv=0
PairPos2: "'kern' Horizontal Kerning in Arabic lookup 0 subtable" uniFB94 dx=0 dy=0 dh=0 dv=0 dx=0 dy=0 dh=260 dv=0
PairPos2: "'kern' Horizontal Kerning in Arabic lookup 0 subtable" uniFBD5 dx=0 dy=0 dh=0 dv=0 dx=0 dy=0 dh=260 dv=0
PairPos2: "'kern' Horizontal Kerning in Arabic lookup 0 subtable" uni06AB.ini dx=0 dy=0 dh=0 dv=0 dx=0 dy=0 dh=260 dv=0
PairPos2: "'kern' Horizontal Kerning in Arabic lookup 0 subtable" uniFB90 dx=0 dy=0 dh=0 dv=0 dx=0 dy=0 dh=260 dv=0
PairPos2: "'kern' Horizontal Kerning in Arabic lookup 0 subtable" uniFEDB dx=0 dy=0 dh=0 dv=0 dx=0 dy=0 dh=260 dv=0
PairPos2: "'kern' Horizontal Kerning in Arabic lookup 0 subtable" uni0671 dx=0 dy=0 dh=0 dv=0 dx=0 dy=0 dh=208 dv=0
PairPos2: "'kern' Horizontal Kerning in Arabic lookup 0 subtable" afii57410 dx=0 dy=0 dh=0 dv=0 dx=0 dy=0 dh=208 dv=0
PairPos2: "'kern' Horizontal Kerning in Arabic lookup 0 subtable" afii57415 dx=0 dy=0 dh=0 dv=0 dx=0 dy=0 dh=52 dv=0
EndChar

StartChar: S
Encoding: 83 83 54
Width: 1139
GlyphClass: 2
Flags: W
LayerCount: 2
Fore
SplineSet
44 413 m 1,0,1
 52 344 52 344 67 290 c 128,-1,2
 82 236 82 236 106 194 c 0,3,4
 190 51 190 51 370 51 c 0,5,6
 418 51 418 51 466 67 c 128,-1,7
 514 83 514 83 555 113 c 128,-1,8
 596 143 596 143 627 186.5 c 128,-1,9
 658 230 658 230 673 285 c 0,10,11
 700 385 700 385 647 457 c 0,12,13
 635 474 635 474 604.5 501 c 128,-1,14
 574 528 574 528 532 562 c 128,-1,15
 490 596 490 596 440.5 633.5 c 128,-1,16
 391 671 391 671 341 707 c 0,17,18
 248 776 248 776 218.5 853.5 c 128,-1,19
 189 931 189 931 214 1023 c 0,20,21
 235 1100 235 1100 279 1166 c 128,-1,22
 323 1232 323 1232 385.5 1280.5 c 128,-1,23
 448 1329 448 1329 524.5 1356.5 c 128,-1,24
 601 1384 601 1384 686 1384 c 0,25,26
 755 1384 755 1384 845 1349 c 0,27,28
 934 1315 934 1315 949 1315 c 0,29,30
 987 1315 987 1315 1005.5 1333 c 128,-1,31
 1024 1351 1024 1351 1041 1384 c 1,32,-1
 1084 1384 l 1,33,-1
 1012 947 l 1,34,-1
 961 947 l 1,35,36
 966 1143 966 1143 875 1221 c 0,37,38
 787 1299 787 1299 679 1299 c 0,39,40
 639 1299 639 1299 597.5 1286 c 128,-1,41
 556 1273 556 1273 521 1249 c 128,-1,42
 486 1225 486 1225 459.5 1190.5 c 128,-1,43
 433 1156 433 1156 421 1113 c 0,44,45
 411 1074 411 1074 414 1041.5 c 128,-1,46
 417 1009 417 1009 433.5 979 c 128,-1,47
 450 949 450 949 479 920.5 c 128,-1,48
 508 892 508 892 550 861 c 2,49,-1
 700 750 l 2,50,51
 769 699 769 699 817 650.5 c 128,-1,52
 865 602 865 602 886 559 c 0,53,54
 930 469 930 469 899 351 c 0,55,56
 877 271 877 271 826 202 c 128,-1,57
 775 133 775 133 704 82 c 128,-1,58
 633 31 633 31 546 2 c 128,-1,59
 459 -27 459 -27 365 -27 c 0,60,61
 269 -27 269 -27 176 9 c 0,62,63
 82 45 82 45 68 45 c 0,64,65
 33 45 33 45 14 23 c 128,-1,66
 -5 1 -5 1 -15 -24 c 1,67,-1
 -61 -24 l 1,68,-1
 -5 413 l 1,69,-1
 44 413 l 1,0,1
EndSplineSet
Substitution2: "<17016,16016> Urdu Swash lookup 75 subtable" S
PairPos2: "'kern' Horizontal Kerning in Arabic lookup 0 subtable" afii57509 dx=0 dy=0 dh=0 dv=0 dx=0 dy=0 dh=260 dv=0
PairPos2: "'kern' Horizontal Kerning in Arabic lookup 0 subtable" uni06AB dx=0 dy=0 dh=0 dv=0 dx=0 dy=0 dh=260 dv=0
PairPos2: "'kern' Horizontal Kerning in Arabic lookup 0 subtable" uni06A9 dx=0 dy=0 dh=0 dv=0 dx=0 dy=0 dh=260 dv=0
PairPos2: "'kern' Horizontal Kerning in Arabic lookup 0 subtable" uniFB94 dx=0 dy=0 dh=0 dv=0 dx=0 dy=0 dh=260 dv=0
PairPos2: "'kern' Horizontal Kerning in Arabic lookup 0 subtable" uniFBD5 dx=0 dy=0 dh=0 dv=0 dx=0 dy=0 dh=260 dv=0
PairPos2: "'kern' Horizontal Kerning in Arabic lookup 0 subtable" uni06AB.ini dx=0 dy=0 dh=0 dv=0 dx=0 dy=0 dh=260 dv=0
PairPos2: "'kern' Horizontal Kerning in Arabic lookup 0 subtable" uniFB90 dx=0 dy=0 dh=0 dv=0 dx=0 dy=0 dh=260 dv=0
PairPos2: "'kern' Horizontal Kerning in Arabic lookup 0 subtable" uniFEDB dx=0 dy=0 dh=0 dv=0 dx=0 dy=0 dh=260 dv=0
PairPos2: "'kern' Horizontal Kerning in Arabic lookup 0 subtable" uni0671 dx=0 dy=0 dh=0 dv=0 dx=0 dy=0 dh=208 dv=0
PairPos2: "'kern' Horizontal Kerning in Arabic lookup 0 subtable" afii57410 dx=0 dy=0 dh=0 dv=0 dx=0 dy=0 dh=208 dv=0
PairPos2: "'kern' Horizontal Kerning in Arabic lookup 0 subtable" afii57415 dx=0 dy=0 dh=0 dv=0 dx=0 dy=0 dh=52 dv=0
EndChar

StartChar: T
Encoding: 84 84 55
Width: 1251
GlyphClass: 2
Flags: W
LayerCount: 2
Fore
SplineSet
191 1355 m 1,0,-1
 1360 1355 l 1,1,-1
 1266 1006 l 1,2,-1
 1226 1006 l 1,3,4
 1233 1168 1233 1168 1191 1218 c 256,5,6
 1149 1268 1149 1268 973 1268 c 2,7,-1
 860 1268 l 1,8,-1
 580 223 l 2,9,10
 550 106 550 106 578 76 c 1,11,12
 611 48 611 48 730 39 c 1,13,-1
 720 0 l 1,14,-1
 121 0 l 1,15,-1
 131 39 l 1,16,17
 266 50 266 50 304 82 c 0,18,19
 345 116 345 116 381 247 c 2,20,-1
 654 1268 l 1,21,-1
 541 1268 l 2,22,23
 372 1268 372 1268 298 1219 c 256,24,25
 224 1170 224 1170 149 1006 c 1,26,-1
 97 1006 l 1,27,-1
 191 1355 l 1,0,-1
EndSplineSet
Substitution2: "<17016,16016> Urdu Swash lookup 75 subtable" T
PairPos2: "'kern' Horizontal Kerning in Arabic lookup 0 subtable" afii57509 dx=0 dy=0 dh=0 dv=0 dx=0 dy=0 dh=260 dv=0
PairPos2: "'kern' Horizontal Kerning in Arabic lookup 0 subtable" uni06AB dx=0 dy=0 dh=0 dv=0 dx=0 dy=0 dh=260 dv=0
PairPos2: "'kern' Horizontal Kerning in Arabic lookup 0 subtable" uni06A9 dx=0 dy=0 dh=0 dv=0 dx=0 dy=0 dh=260 dv=0
PairPos2: "'kern' Horizontal Kerning in Arabic lookup 0 subtable" uniFB94 dx=0 dy=0 dh=0 dv=0 dx=0 dy=0 dh=260 dv=0
PairPos2: "'kern' Horizontal Kerning in Arabic lookup 0 subtable" uniFBD5 dx=0 dy=0 dh=0 dv=0 dx=0 dy=0 dh=260 dv=0
PairPos2: "'kern' Horizontal Kerning in Arabic lookup 0 subtable" uni06AB.ini dx=0 dy=0 dh=0 dv=0 dx=0 dy=0 dh=260 dv=0
PairPos2: "'kern' Horizontal Kerning in Arabic lookup 0 subtable" uniFB90 dx=0 dy=0 dh=0 dv=0 dx=0 dy=0 dh=260 dv=0
PairPos2: "'kern' Horizontal Kerning in Arabic lookup 0 subtable" uniFEDB dx=0 dy=0 dh=0 dv=0 dx=0 dy=0 dh=260 dv=0
PairPos2: "'kern' Horizontal Kerning in Arabic lookup 0 subtable" uni0671 dx=0 dy=0 dh=0 dv=0 dx=0 dy=0 dh=208 dv=0
PairPos2: "'kern' Horizontal Kerning in Arabic lookup 0 subtable" afii57410 dx=0 dy=0 dh=0 dv=0 dx=0 dy=0 dh=208 dv=0
PairPos2: "'kern' Horizontal Kerning in Arabic lookup 0 subtable" afii57415 dx=0 dy=0 dh=0 dv=0 dx=0 dy=0 dh=52 dv=0
EndChar

StartChar: U
Encoding: 85 85 56
Width: 1479
GlyphClass: 2
Flags: W
LayerCount: 2
Fore
SplineSet
773 1355 m 1,0,-1
 762 1315 l 1,1,2
 643 1308 643 1308 598 1275 c 0,3,4
 555 1243 555 1243 525 1132 c 2,5,-1
 350 478 l 2,6,7
 329 400 329 400 323.5 336.5 c 128,-1,8
 318 273 318 273 327 228 c 0,9,10
 347 150 347 150 414 107.5 c 128,-1,11
 481 65 481 65 593 65 c 0,12,13
 844 65 844 65 973 232 c 0,14,15
 1046 326 1046 326 1098 521 c 2,16,-1
 1241 1054 l 2,17,18
 1285 1220 1285 1220 1256 1261 c 0,19,20
 1242 1283 1242 1283 1209.5 1297 c 128,-1,21
 1177 1311 1177 1311 1120 1315 c 1,22,-1
 1131 1355 l 1,23,-1
 1606 1355 l 1,24,-1
 1595 1315 l 1,25,26
 1536 1308 1536 1308 1492 1294 c 128,-1,27
 1448 1280 1448 1280 1423 1257 c 0,28,29
 1400 1235 1400 1235 1377 1183.5 c 128,-1,30
 1354 1132 1354 1132 1333 1054 c 2,31,-1
 1190 521 l 2,32,33
 1151 376 1151 376 1091 272 c 128,-1,34
 1031 168 1031 168 947.5 101 c 128,-1,35
 864 34 864 34 758 2.5 c 128,-1,36
 652 -29 652 -29 522 -29 c 0,37,38
 268 -29 268 -29 171.5 102.5 c 128,-1,39
 75 234 75 234 145 493 c 2,40,-1
 316 1132 l 2,41,42
 346 1241 346 1241 319 1274 c 0,43,44
 292 1306 292 1306 180 1315 c 1,45,-1
 191 1355 l 1,46,-1
 773 1355 l 1,0,-1
EndSplineSet
Substitution2: "<17016,16016> Urdu Swash lookup 75 subtable" U
PairPos2: "'kern' Horizontal Kerning in Arabic lookup 0 subtable" afii57509 dx=0 dy=0 dh=0 dv=0 dx=0 dy=0 dh=260 dv=0
PairPos2: "'kern' Horizontal Kerning in Arabic lookup 0 subtable" uni06AB dx=0 dy=0 dh=0 dv=0 dx=0 dy=0 dh=260 dv=0
PairPos2: "'kern' Horizontal Kerning in Arabic lookup 0 subtable" uni06A9 dx=0 dy=0 dh=0 dv=0 dx=0 dy=0 dh=260 dv=0
PairPos2: "'kern' Horizontal Kerning in Arabic lookup 0 subtable" uniFB94 dx=0 dy=0 dh=0 dv=0 dx=0 dy=0 dh=260 dv=0
PairPos2: "'kern' Horizontal Kerning in Arabic lookup 0 subtable" uniFBD5 dx=0 dy=0 dh=0 dv=0 dx=0 dy=0 dh=260 dv=0
PairPos2: "'kern' Horizontal Kerning in Arabic lookup 0 subtable" uni06AB.ini dx=0 dy=0 dh=0 dv=0 dx=0 dy=0 dh=260 dv=0
PairPos2: "'kern' Horizontal Kerning in Arabic lookup 0 subtable" uniFB90 dx=0 dy=0 dh=0 dv=0 dx=0 dy=0 dh=260 dv=0
PairPos2: "'kern' Horizontal Kerning in Arabic lookup 0 subtable" uniFEDB dx=0 dy=0 dh=0 dv=0 dx=0 dy=0 dh=260 dv=0
PairPos2: "'kern' Horizontal Kerning in Arabic lookup 0 subtable" uni0671 dx=0 dy=0 dh=0 dv=0 dx=0 dy=0 dh=208 dv=0
PairPos2: "'kern' Horizontal Kerning in Arabic lookup 0 subtable" afii57410 dx=0 dy=0 dh=0 dv=0 dx=0 dy=0 dh=208 dv=0
PairPos2: "'kern' Horizontal Kerning in Arabic lookup 0 subtable" afii57415 dx=0 dy=0 dh=0 dv=0 dx=0 dy=0 dh=52 dv=0
EndChar

StartChar: V
Encoding: 86 86 57
Width: 1479
GlyphClass: 2
Flags: W
LayerCount: 2
Fore
SplineSet
742 1355 m 1,0,-1
 731 1315 l 1,1,2
 686 1314 686 1314 655 1310.5 c 128,-1,3
 624 1307 624 1307 604 1298 c 128,-1,4
 584 1289 584 1289 573 1275 c 128,-1,5
 562 1261 562 1261 556 1239 c 0,6,7
 552 1224 552 1224 552 1206.5 c 128,-1,8
 552 1189 552 1189 555.5 1164 c 128,-1,9
 559 1139 559 1139 565.5 1105 c 128,-1,10
 572 1071 572 1071 581 1021 c 2,11,-1
 710 311 l 1,12,13
 725 334 725 334 763 393.5 c 128,-1,14
 801 453 801 453 851.5 530.5 c 128,-1,15
 902 608 902 608 957.5 695 c 128,-1,16
 1013 782 1013 782 1063.5 859.5 c 128,-1,17
 1114 937 1114 937 1152 996.5 c 128,-1,18
 1190 1056 1190 1056 1205 1079 c 0,19,20
 1236 1128 1236 1128 1256 1164.5 c 128,-1,21
 1276 1201 1276 1201 1282 1222 c 0,22,23
 1295 1270 1295 1270 1268 1292 c 128,-1,24
 1241 1314 1241 1314 1158 1315 c 1,25,-1
 1169 1355 l 1,26,-1
 1589 1355 l 1,27,-1
 1579 1318 l 1,28,29
 1538 1312 1538 1312 1508 1300.5 c 128,-1,30
 1478 1289 1478 1289 1451.5 1267 c 128,-1,31
 1425 1245 1425 1245 1398.5 1211 c 128,-1,32
 1372 1177 1372 1177 1338 1127 c 2,33,-1
 578 -24 l 1,34,-1
 545 -24 l 1,35,-1
 343 1101 l 2,36,37
 331 1169 331 1169 316.5 1215 c 128,-1,38
 302 1261 302 1261 287 1278 c 0,39,40
 258 1314 258 1314 186 1318 c 1,41,-1
 196 1355 l 1,42,-1
 742 1355 l 1,0,-1
EndSplineSet
Substitution2: "<17016,16016> Urdu Swash lookup 75 subtable" V
PairPos2: "'kern' Horizontal Kerning in Arabic lookup 0 subtable" afii57509 dx=0 dy=0 dh=0 dv=0 dx=0 dy=0 dh=260 dv=0
PairPos2: "'kern' Horizontal Kerning in Arabic lookup 0 subtable" uni06AB dx=0 dy=0 dh=0 dv=0 dx=0 dy=0 dh=260 dv=0
PairPos2: "'kern' Horizontal Kerning in Arabic lookup 0 subtable" uni06A9 dx=0 dy=0 dh=0 dv=0 dx=0 dy=0 dh=260 dv=0
PairPos2: "'kern' Horizontal Kerning in Arabic lookup 0 subtable" uniFB94 dx=0 dy=0 dh=0 dv=0 dx=0 dy=0 dh=260 dv=0
PairPos2: "'kern' Horizontal Kerning in Arabic lookup 0 subtable" uniFBD5 dx=0 dy=0 dh=0 dv=0 dx=0 dy=0 dh=260 dv=0
PairPos2: "'kern' Horizontal Kerning in Arabic lookup 0 subtable" uni06AB.ini dx=0 dy=0 dh=0 dv=0 dx=0 dy=0 dh=260 dv=0
PairPos2: "'kern' Horizontal Kerning in Arabic lookup 0 subtable" uniFB90 dx=0 dy=0 dh=0 dv=0 dx=0 dy=0 dh=260 dv=0
PairPos2: "'kern' Horizontal Kerning in Arabic lookup 0 subtable" uniFEDB dx=0 dy=0 dh=0 dv=0 dx=0 dy=0 dh=260 dv=0
PairPos2: "'kern' Horizontal Kerning in Arabic lookup 0 subtable" uni0671 dx=0 dy=0 dh=0 dv=0 dx=0 dy=0 dh=208 dv=0
PairPos2: "'kern' Horizontal Kerning in Arabic lookup 0 subtable" afii57410 dx=0 dy=0 dh=0 dv=0 dx=0 dy=0 dh=208 dv=0
PairPos2: "'kern' Horizontal Kerning in Arabic lookup 0 subtable" afii57415 dx=0 dy=0 dh=0 dv=0 dx=0 dy=0 dh=52 dv=0
EndChar

StartChar: W
Encoding: 87 87 58
Width: 1933
GlyphClass: 2
Flags: W
LayerCount: 2
Fore
SplineSet
676 1355 m 1,0,-1
 665 1315 l 1,1,2
 590 1313 590 1313 556.5 1296.5 c 128,-1,3
 523 1280 523 1280 513 1243 c 0,4,5
 508 1223 508 1223 508.5 1202.5 c 128,-1,6
 509 1182 509 1182 511 1155 c 0,7,8
 532 965 532 965 556 772.5 c 128,-1,9
 580 580 580 580 600 389 c 1,10,11
 693 533 693 533 785.5 676.5 c 128,-1,12
 878 820 878 820 971 964 c 1,13,14
 970 972 970 972 967.5 991 c 128,-1,15
 965 1010 965 1010 962 1035 c 128,-1,16
 959 1060 959 1060 955.5 1087.5 c 128,-1,17
 952 1115 952 1115 949 1140 c 128,-1,18
 946 1165 946 1165 943.5 1184 c 128,-1,19
 941 1203 941 1203 940 1210 c 0,20,21
 936 1239 936 1239 927.5 1258.5 c 128,-1,22
 919 1278 919 1278 901.5 1290 c 128,-1,23
 884 1302 884 1302 857 1308 c 128,-1,24
 830 1314 830 1314 790 1315 c 1,25,-1
 801 1355 l 1,26,-1
 1351 1355 l 1,27,-1
 1340 1315 l 1,28,29
 1293 1314 1293 1314 1262 1310 c 128,-1,30
 1231 1306 1231 1306 1211.5 1297 c 128,-1,31
 1192 1288 1192 1288 1182 1273 c 128,-1,32
 1172 1258 1172 1258 1166 1235 c 0,33,34
 1163 1225 1163 1225 1162 1218.5 c 128,-1,35
 1161 1212 1161 1212 1161 1203.5 c 128,-1,36
 1161 1195 1161 1195 1162.5 1182.5 c 128,-1,37
 1164 1170 1164 1170 1167 1148 c 2,38,-1
 1256 384 l 2,39,40
 1259 389 1259 389 1279 420.5 c 128,-1,41
 1299 452 1299 452 1330 500 c 128,-1,42
 1361 548 1361 548 1399 608 c 128,-1,43
 1437 668 1437 668 1476.5 730 c 128,-1,44
 1516 792 1516 792 1554 852 c 128,-1,45
 1592 912 1592 912 1623 959.5 c 128,-1,46
 1654 1007 1654 1007 1674 1038.5 c 128,-1,47
 1694 1070 1694 1070 1697 1075 c 0,48,49
 1725 1120 1725 1120 1745 1159.5 c 128,-1,50
 1765 1199 1765 1199 1771 1222 c 0,51,52
 1783 1267 1783 1267 1756.5 1290 c 128,-1,53
 1730 1313 1730 1313 1652 1315 c 1,54,-1
 1663 1355 l 1,55,-1
 2071 1355 l 1,56,-1
 2060 1315 l 1,57,58
 1988 1306 1988 1306 1944.5 1276.5 c 128,-1,59
 1901 1247 1901 1247 1865 1191 c 0,60,61
 1769 1039 1769 1039 1675 887.5 c 128,-1,62
 1581 736 1581 736 1484 583 c 2,63,-1
 1336 349 l 2,64,65
 1311 307 1311 307 1282.5 259 c 128,-1,66
 1254 211 1254 211 1224.5 162.5 c 128,-1,67
 1195 114 1195 114 1166.5 66 c 128,-1,68
 1138 18 1138 18 1113 -24 c 1,69,-1
 1081 -24 l 1,70,-1
 1062 214 l 1,71,72
 1043 369 1043 369 1024 526.5 c 128,-1,73
 1005 684 1005 684 987 840 c 1,74,75
 849 623 849 623 713.5 408 c 128,-1,76
 578 193 578 193 441 -24 c 1,77,-1
 408 -24 l 1,78,-1
 376 402 l 2,79,80
 375 416 375 416 371.5 453 c 128,-1,81
 368 490 368 490 363 538.5 c 128,-1,82
 358 587 358 587 352.5 641.5 c 128,-1,83
 347 696 347 696 342.5 744.5 c 128,-1,84
 338 793 338 793 334 830 c 128,-1,85
 330 867 330 867 329 881 c 0,86,87
 301 1171 301 1171 273 1242 c 0,88,89
 249 1311 249 1311 161 1315 c 1,90,-1
 172 1355 l 1,91,-1
 676 1355 l 1,0,-1
EndSplineSet
Substitution2: "<17016,16016> Urdu Swash lookup 75 subtable" W
PairPos2: "'kern' Horizontal Kerning in Arabic lookup 0 subtable" afii57509 dx=0 dy=0 dh=0 dv=0 dx=0 dy=0 dh=260 dv=0
PairPos2: "'kern' Horizontal Kerning in Arabic lookup 0 subtable" uni06AB dx=0 dy=0 dh=0 dv=0 dx=0 dy=0 dh=260 dv=0
PairPos2: "'kern' Horizontal Kerning in Arabic lookup 0 subtable" uni06A9 dx=0 dy=0 dh=0 dv=0 dx=0 dy=0 dh=260 dv=0
PairPos2: "'kern' Horizontal Kerning in Arabic lookup 0 subtable" uniFB94 dx=0 dy=0 dh=0 dv=0 dx=0 dy=0 dh=260 dv=0
PairPos2: "'kern' Horizontal Kerning in Arabic lookup 0 subtable" uniFBD5 dx=0 dy=0 dh=0 dv=0 dx=0 dy=0 dh=260 dv=0
PairPos2: "'kern' Horizontal Kerning in Arabic lookup 0 subtable" uni06AB.ini dx=0 dy=0 dh=0 dv=0 dx=0 dy=0 dh=260 dv=0
PairPos2: "'kern' Horizontal Kerning in Arabic lookup 0 subtable" uniFB90 dx=0 dy=0 dh=0 dv=0 dx=0 dy=0 dh=260 dv=0
PairPos2: "'kern' Horizontal Kerning in Arabic lookup 0 subtable" uniFEDB dx=0 dy=0 dh=0 dv=0 dx=0 dy=0 dh=260 dv=0
PairPos2: "'kern' Horizontal Kerning in Arabic lookup 0 subtable" uni0671 dx=0 dy=0 dh=0 dv=0 dx=0 dy=0 dh=208 dv=0
PairPos2: "'kern' Horizontal Kerning in Arabic lookup 0 subtable" afii57410 dx=0 dy=0 dh=0 dv=0 dx=0 dy=0 dh=208 dv=0
PairPos2: "'kern' Horizontal Kerning in Arabic lookup 0 subtable" afii57415 dx=0 dy=0 dh=0 dv=0 dx=0 dy=0 dh=52 dv=0
EndChar

StartChar: X
Encoding: 88 88 59
Width: 1479
GlyphClass: 2
Flags: W
LayerCount: 2
Fore
SplineSet
-169 39 m 1,0,1
 -127 44 -127 44 -92 55 c 128,-1,2
 -57 66 -57 66 -31 83 c 0,3,4
 -4 102 -4 102 52.5 150.5 c 128,-1,5
 109 199 109 199 190 274 c 0,6,7
 293 370 293 370 401.5 470 c 128,-1,8
 510 570 510 570 613 666 c 1,9,10
 579 746 579 746 543.5 830 c 128,-1,11
 508 914 508 914 475 994 c 0,12,13
 431 1098 431 1098 397 1165 c 128,-1,14
 363 1232 363 1232 340 1258 c 0,15,16
 295 1310 295 1310 197 1315 c 1,17,-1
 208 1355 l 1,18,-1
 827 1355 l 1,19,-1
 816 1315 l 1,20,21
 725 1312 725 1312 696 1303 c 0,22,23
 651 1289 651 1289 641 1247 c 0,24,25
 635 1224 635 1224 639 1198.5 c 128,-1,26
 643 1173 643 1173 659 1135 c 2,27,-1
 789 829 l 1,28,29
 798 837 798 837 821.5 858.5 c 128,-1,30
 845 880 845 880 876 908.5 c 128,-1,31
 907 937 907 937 942 969 c 128,-1,32
 977 1001 977 1001 1008.5 1029.5 c 128,-1,33
 1040 1058 1040 1058 1063.5 1079.5 c 128,-1,34
 1087 1101 1087 1101 1096 1109 c 0,35,36
 1153 1161 1153 1161 1179.5 1192 c 128,-1,37
 1206 1223 1206 1223 1212 1246 c 0,38,39
 1217 1265 1217 1265 1214 1278 c 128,-1,40
 1211 1291 1211 1291 1197 1299 c 128,-1,41
 1183 1307 1183 1307 1156.5 1310.5 c 128,-1,42
 1130 1314 1130 1314 1089 1315 c 1,43,-1
 1100 1355 l 1,44,-1
 1587 1355 l 1,45,-1
 1576 1315 l 1,46,47
 1535 1314 1535 1314 1501 1308 c 128,-1,48
 1467 1302 1467 1302 1441 1289 c 0,49,50
 1402 1270 1402 1270 1345.5 1227 c 128,-1,51
 1289 1184 1289 1184 1221 1121 c 2,52,-1
 823 753 l 1,53,54
 825 748 825 748 836 722.5 c 128,-1,55
 847 697 847 697 863.5 658 c 128,-1,56
 880 619 880 619 901 570.5 c 128,-1,57
 922 522 922 522 943.5 472 c 128,-1,58
 965 422 965 422 986 373.5 c 128,-1,59
 1007 325 1007 325 1023.5 286 c 128,-1,60
 1040 247 1040 247 1051 221.5 c 128,-1,61
 1062 196 1062 196 1064 191 c 0,62,63
 1101 101 1101 101 1138 75 c 1,64,-1
 1137 75 l 1,65,66
 1172 51 1172 51 1251 39 c 1,67,-1
 1241 0 l 1,68,-1
 633 0 l 1,69,-1
 644 42 l 1,70,71
 688 43 688 43 718.5 46.5 c 128,-1,72
 749 50 749 50 769.5 57 c 128,-1,73
 790 64 790 64 801 76 c 128,-1,74
 812 88 812 88 817 106 c 0,75,76
 821 121 821 121 817 147.5 c 128,-1,77
 813 174 813 174 799 211 c 256,78,79
 785 248 785 248 747.5 341.5 c 128,-1,80
 710 435 710 435 647 590 c 1,81,82
 641 584 641 584 620 564 c 128,-1,83
 599 544 599 544 569 516 c 128,-1,84
 539 488 539 488 502.5 453.5 c 128,-1,85
 466 419 466 419 428.5 383.5 c 128,-1,86
 391 348 391 348 355.5 314 c 128,-1,87
 320 280 320 280 291.5 253 c 128,-1,88
 263 226 263 226 245 208.5 c 128,-1,89
 227 191 227 191 224 188 c 0,90,91
 179 139 179 139 173 116 c 0,92,93
 168 97 168 97 172.5 83.5 c 128,-1,94
 177 70 177 70 192.5 61 c 128,-1,95
 208 52 208 52 236.5 47 c 128,-1,96
 265 42 265 42 308 39 c 1,97,-1
 298 0 l 1,98,-1
 -179 0 l 1,99,-1
 -169 39 l 1,0,1
EndSplineSet
Substitution2: "<17016,16016> Urdu Swash lookup 75 subtable" X
PairPos2: "'kern' Horizontal Kerning in Arabic lookup 0 subtable" afii57509 dx=0 dy=0 dh=0 dv=0 dx=0 dy=0 dh=260 dv=0
PairPos2: "'kern' Horizontal Kerning in Arabic lookup 0 subtable" uni06AB dx=0 dy=0 dh=0 dv=0 dx=0 dy=0 dh=260 dv=0
PairPos2: "'kern' Horizontal Kerning in Arabic lookup 0 subtable" uni06A9 dx=0 dy=0 dh=0 dv=0 dx=0 dy=0 dh=260 dv=0
PairPos2: "'kern' Horizontal Kerning in Arabic lookup 0 subtable" uniFB94 dx=0 dy=0 dh=0 dv=0 dx=0 dy=0 dh=260 dv=0
PairPos2: "'kern' Horizontal Kerning in Arabic lookup 0 subtable" uniFBD5 dx=0 dy=0 dh=0 dv=0 dx=0 dy=0 dh=260 dv=0
PairPos2: "'kern' Horizontal Kerning in Arabic lookup 0 subtable" uni06AB.ini dx=0 dy=0 dh=0 dv=0 dx=0 dy=0 dh=260 dv=0
PairPos2: "'kern' Horizontal Kerning in Arabic lookup 0 subtable" uniFB90 dx=0 dy=0 dh=0 dv=0 dx=0 dy=0 dh=260 dv=0
PairPos2: "'kern' Horizontal Kerning in Arabic lookup 0 subtable" uniFEDB dx=0 dy=0 dh=0 dv=0 dx=0 dy=0 dh=260 dv=0
PairPos2: "'kern' Horizontal Kerning in Arabic lookup 0 subtable" uni0671 dx=0 dy=0 dh=0 dv=0 dx=0 dy=0 dh=208 dv=0
PairPos2: "'kern' Horizontal Kerning in Arabic lookup 0 subtable" afii57410 dx=0 dy=0 dh=0 dv=0 dx=0 dy=0 dh=208 dv=0
PairPos2: "'kern' Horizontal Kerning in Arabic lookup 0 subtable" afii57415 dx=0 dy=0 dh=0 dv=0 dx=0 dy=0 dh=52 dv=0
EndChar

StartChar: Y
Encoding: 89 89 60
Width: 1479
GlyphClass: 2
Flags: W
LayerCount: 2
Fore
SplineSet
782 1355 m 1,0,-1
 771 1315 l 1,1,2
 765 1315 765 1315 759 1315.5 c 128,-1,3
 753 1316 753 1316 747 1316 c 0,4,5
 687 1316 687 1316 653.5 1301.5 c 128,-1,6
 620 1287 620 1287 609 1249 c 0,7,8
 606 1238 606 1238 607.5 1216.5 c 128,-1,9
 609 1195 609 1195 620 1166 c 0,10,11
 665 1054 665 1054 710.5 940 c 128,-1,12
 756 826 756 826 801 714 c 1,13,14
 811 725 811 725 831.5 748 c 128,-1,15
 852 771 852 771 880 802 c 128,-1,16
 908 833 908 833 941.5 869.5 c 128,-1,17
 975 906 975 906 1009 944 c 128,-1,18
 1043 982 1043 982 1076 1018.5 c 128,-1,19
 1109 1055 1109 1055 1137 1086 c 128,-1,20
 1165 1117 1165 1117 1186 1140 c 128,-1,21
 1207 1163 1207 1163 1216 1173 c 0,22,23
 1242 1202 1242 1202 1252.5 1220.5 c 128,-1,24
 1263 1239 1263 1239 1265 1248 c 0,25,26
 1270 1267 1270 1267 1266 1279.5 c 128,-1,27
 1262 1292 1262 1292 1248 1299.5 c 128,-1,28
 1234 1307 1234 1307 1207.5 1310.5 c 128,-1,29
 1181 1314 1181 1314 1141 1315 c 1,30,-1
 1152 1355 l 1,31,-1
 1601 1355 l 1,32,-1
 1590 1315 l 1,33,34
 1552 1313 1552 1313 1514.5 1299 c 128,-1,35
 1477 1285 1477 1285 1435.5 1257 c 128,-1,36
 1394 1229 1394 1229 1347.5 1185.5 c 128,-1,37
 1301 1142 1301 1142 1245 1081 c 2,38,-1
 820 620 l 1,39,-1
 713 223 l 2,40,41
 698 165 698 165 697.5 127 c 128,-1,42
 697 89 697 89 712 75 c 0,43,44
 742 48 742 48 875 39 c 1,45,-1
 865 0 l 1,46,-1
 237 0 l 1,47,-1
 247 39 l 1,48,49
 387 46 387 46 430 80 c 256,50,51
 473 114 473 114 509 247 c 2,52,-1
 604 601 l 2,53,54
 602 605 602 605 590 635 c 128,-1,55
 578 665 578 665 560.5 707 c 128,-1,56
 543 749 543 749 523 798 c 128,-1,57
 503 847 503 847 485.5 889 c 128,-1,58
 468 931 468 931 456 960.5 c 128,-1,59
 444 990 444 990 442 994 c 0,60,61
 403 1089 403 1089 369 1157 c 128,-1,62
 335 1225 335 1225 316 1253 c 0,63,64
 296 1282 296 1282 266 1297.5 c 128,-1,65
 236 1313 236 1313 197 1315 c 1,66,-1
 208 1355 l 1,67,-1
 782 1355 l 1,0,-1
EndSplineSet
Substitution2: "<17016,16016> Urdu Swash lookup 75 subtable" Y
PairPos2: "'kern' Horizontal Kerning in Arabic lookup 0 subtable" afii57509 dx=0 dy=0 dh=0 dv=0 dx=0 dy=0 dh=260 dv=0
PairPos2: "'kern' Horizontal Kerning in Arabic lookup 0 subtable" uni06AB dx=0 dy=0 dh=0 dv=0 dx=0 dy=0 dh=260 dv=0
PairPos2: "'kern' Horizontal Kerning in Arabic lookup 0 subtable" uni06A9 dx=0 dy=0 dh=0 dv=0 dx=0 dy=0 dh=260 dv=0
PairPos2: "'kern' Horizontal Kerning in Arabic lookup 0 subtable" uniFB94 dx=0 dy=0 dh=0 dv=0 dx=0 dy=0 dh=260 dv=0
PairPos2: "'kern' Horizontal Kerning in Arabic lookup 0 subtable" uniFBD5 dx=0 dy=0 dh=0 dv=0 dx=0 dy=0 dh=260 dv=0
PairPos2: "'kern' Horizontal Kerning in Arabic lookup 0 subtable" uni06AB.ini dx=0 dy=0 dh=0 dv=0 dx=0 dy=0 dh=260 dv=0
PairPos2: "'kern' Horizontal Kerning in Arabic lookup 0 subtable" uniFB90 dx=0 dy=0 dh=0 dv=0 dx=0 dy=0 dh=260 dv=0
PairPos2: "'kern' Horizontal Kerning in Arabic lookup 0 subtable" uniFEDB dx=0 dy=0 dh=0 dv=0 dx=0 dy=0 dh=260 dv=0
PairPos2: "'kern' Horizontal Kerning in Arabic lookup 0 subtable" uni0671 dx=0 dy=0 dh=0 dv=0 dx=0 dy=0 dh=208 dv=0
PairPos2: "'kern' Horizontal Kerning in Arabic lookup 0 subtable" afii57410 dx=0 dy=0 dh=0 dv=0 dx=0 dy=0 dh=208 dv=0
PairPos2: "'kern' Horizontal Kerning in Arabic lookup 0 subtable" afii57415 dx=0 dy=0 dh=0 dv=0 dx=0 dy=0 dh=52 dv=0
EndChar

StartChar: Z
Encoding: 90 90 61
Width: 1251
GlyphClass: 2
Flags: W
LayerCount: 2
Fore
SplineSet
-180 25 m 1,0,-1
 1051 1275 l 1,1,-1
 581 1275 l 2,2,3
 406 1275 406 1275 306 1186 c 0,4,5
 247 1133 247 1133 187 1004 c 1,6,-1
 132 1004 l 1,7,-1
 267 1355 l 1,8,-1
 1348 1355 l 1,9,-1
 1341 1330 l 1,10,-1
 119 80 l 1,11,-1
 643 80 l 2,12,13
 819 80 819 80 925 165 c 0,14,15
 991 220 991 220 1069 361 c 1,16,-1
 1119 361 l 1,17,-1
 973 0 l 1,18,-1
 -186 0 l 1,19,-1
 -180 25 l 1,0,-1
EndSplineSet
Substitution2: "<17016,16016> Urdu Swash lookup 75 subtable" Z
PairPos2: "'kern' Horizontal Kerning in Arabic lookup 0 subtable" afii57509 dx=0 dy=0 dh=0 dv=0 dx=0 dy=0 dh=260 dv=0
PairPos2: "'kern' Horizontal Kerning in Arabic lookup 0 subtable" uni06AB dx=0 dy=0 dh=0 dv=0 dx=0 dy=0 dh=260 dv=0
PairPos2: "'kern' Horizontal Kerning in Arabic lookup 0 subtable" uni06A9 dx=0 dy=0 dh=0 dv=0 dx=0 dy=0 dh=260 dv=0
PairPos2: "'kern' Horizontal Kerning in Arabic lookup 0 subtable" uniFB94 dx=0 dy=0 dh=0 dv=0 dx=0 dy=0 dh=260 dv=0
PairPos2: "'kern' Horizontal Kerning in Arabic lookup 0 subtable" uniFBD5 dx=0 dy=0 dh=0 dv=0 dx=0 dy=0 dh=260 dv=0
PairPos2: "'kern' Horizontal Kerning in Arabic lookup 0 subtable" uni06AB.ini dx=0 dy=0 dh=0 dv=0 dx=0 dy=0 dh=260 dv=0
PairPos2: "'kern' Horizontal Kerning in Arabic lookup 0 subtable" uniFB90 dx=0 dy=0 dh=0 dv=0 dx=0 dy=0 dh=260 dv=0
PairPos2: "'kern' Horizontal Kerning in Arabic lookup 0 subtable" uniFEDB dx=0 dy=0 dh=0 dv=0 dx=0 dy=0 dh=260 dv=0
PairPos2: "'kern' Horizontal Kerning in Arabic lookup 0 subtable" uni0671 dx=0 dy=0 dh=0 dv=0 dx=0 dy=0 dh=208 dv=0
PairPos2: "'kern' Horizontal Kerning in Arabic lookup 0 subtable" afii57410 dx=0 dy=0 dh=0 dv=0 dx=0 dy=0 dh=208 dv=0
PairPos2: "'kern' Horizontal Kerning in Arabic lookup 0 subtable" afii57415 dx=0 dy=0 dh=0 dv=0 dx=0 dy=0 dh=52 dv=0
EndChar

StartChar: bracketleft
Encoding: 91 91 62
Width: 625
GlyphClass: 2
Flags: W
LayerCount: 2
Fore
SplineSet
-245 -543 m 1,0,-1
 304 1509 l 1,1,-1
 729 1509 l 1,2,-1
 694 1380 l 1,3,-1
 407 1380 l 1,4,-1
 -73 -411 l 1,5,-1
 214 -411 l 1,6,-1
 179 -543 l 1,7,-1
 -245 -543 l 1,0,-1
EndSplineSet
Substitution2: "<17016,16016> Urdu Swash lookup 75 subtable" bracketleft
PairPos2: "'kern' Horizontal Kerning in Arabic lookup 0 subtable" afii57509 dx=0 dy=0 dh=0 dv=0 dx=0 dy=0 dh=260 dv=0
PairPos2: "'kern' Horizontal Kerning in Arabic lookup 0 subtable" uni06AB dx=0 dy=0 dh=0 dv=0 dx=0 dy=0 dh=260 dv=0
PairPos2: "'kern' Horizontal Kerning in Arabic lookup 0 subtable" uni06A9 dx=0 dy=0 dh=0 dv=0 dx=0 dy=0 dh=260 dv=0
PairPos2: "'kern' Horizontal Kerning in Arabic lookup 0 subtable" uniFB94 dx=0 dy=0 dh=0 dv=0 dx=0 dy=0 dh=260 dv=0
PairPos2: "'kern' Horizontal Kerning in Arabic lookup 0 subtable" uniFBD5 dx=0 dy=0 dh=0 dv=0 dx=0 dy=0 dh=260 dv=0
PairPos2: "'kern' Horizontal Kerning in Arabic lookup 0 subtable" uni06AB.ini dx=0 dy=0 dh=0 dv=0 dx=0 dy=0 dh=260 dv=0
PairPos2: "'kern' Horizontal Kerning in Arabic lookup 0 subtable" uniFB90 dx=0 dy=0 dh=0 dv=0 dx=0 dy=0 dh=260 dv=0
PairPos2: "'kern' Horizontal Kerning in Arabic lookup 0 subtable" uniFEDB dx=0 dy=0 dh=0 dv=0 dx=0 dy=0 dh=260 dv=0
PairPos2: "'kern' Horizontal Kerning in Arabic lookup 0 subtable" uni0671 dx=0 dy=0 dh=0 dv=0 dx=0 dy=0 dh=208 dv=0
PairPos2: "'kern' Horizontal Kerning in Arabic lookup 0 subtable" afii57410 dx=0 dy=0 dh=0 dv=0 dx=0 dy=0 dh=208 dv=0
PairPos2: "'kern' Horizontal Kerning in Arabic lookup 0 subtable" afii57415 dx=0 dy=0 dh=0 dv=0 dx=0 dy=0 dh=52 dv=0
EndChar

StartChar: backslash
Encoding: 92 92 63
Width: 569
GlyphClass: 2
Flags: W
LayerCount: 2
Fore
SplineSet
244 1384 m 1,0,-1
 433 0 l 1,1,-1
 296 0 l 1,2,-1
 105 1384 l 1,3,-1
 244 1384 l 1,0,-1
EndSplineSet
Substitution2: "<17016,16016> Urdu Swash lookup 75 subtable" backslash
PairPos2: "'kern' Horizontal Kerning in Arabic lookup 0 subtable" afii57509 dx=0 dy=0 dh=0 dv=0 dx=0 dy=0 dh=260 dv=0
PairPos2: "'kern' Horizontal Kerning in Arabic lookup 0 subtable" uni06AB dx=0 dy=0 dh=0 dv=0 dx=0 dy=0 dh=260 dv=0
PairPos2: "'kern' Horizontal Kerning in Arabic lookup 0 subtable" uni06A9 dx=0 dy=0 dh=0 dv=0 dx=0 dy=0 dh=260 dv=0
PairPos2: "'kern' Horizontal Kerning in Arabic lookup 0 subtable" uniFB94 dx=0 dy=0 dh=0 dv=0 dx=0 dy=0 dh=260 dv=0
PairPos2: "'kern' Horizontal Kerning in Arabic lookup 0 subtable" uniFBD5 dx=0 dy=0 dh=0 dv=0 dx=0 dy=0 dh=260 dv=0
PairPos2: "'kern' Horizontal Kerning in Arabic lookup 0 subtable" uni06AB.ini dx=0 dy=0 dh=0 dv=0 dx=0 dy=0 dh=260 dv=0
PairPos2: "'kern' Horizontal Kerning in Arabic lookup 0 subtable" uniFB90 dx=0 dy=0 dh=0 dv=0 dx=0 dy=0 dh=260 dv=0
PairPos2: "'kern' Horizontal Kerning in Arabic lookup 0 subtable" uniFEDB dx=0 dy=0 dh=0 dv=0 dx=0 dy=0 dh=260 dv=0
PairPos2: "'kern' Horizontal Kerning in Arabic lookup 0 subtable" uni0671 dx=0 dy=0 dh=0 dv=0 dx=0 dy=0 dh=208 dv=0
PairPos2: "'kern' Horizontal Kerning in Arabic lookup 0 subtable" afii57410 dx=0 dy=0 dh=0 dv=0 dx=0 dy=0 dh=208 dv=0
PairPos2: "'kern' Horizontal Kerning in Arabic lookup 0 subtable" afii57415 dx=0 dy=0 dh=0 dv=0 dx=0 dy=0 dh=52 dv=0
EndChar

StartChar: bracketright
Encoding: 93 93 64
Width: 725
GlyphClass: 2
Flags: W
LayerCount: 2
Fore
SplineSet
-245 -543 m 1,0,-1
 -210 -411 l 1,1,-1
 74 -411 l 1,2,-1
 554 1380 l 1,3,-1
 269 1380 l 1,4,-1
 304 1509 l 1,5,-1
 729 1509 l 1,6,-1
 179 -543 l 1,7,-1
 -245 -543 l 1,0,-1
EndSplineSet
Substitution2: "<17016,16016> Urdu Swash lookup 75 subtable" bracketright
PairPos2: "'kern' Horizontal Kerning in Arabic lookup 0 subtable" afii57509 dx=0 dy=0 dh=0 dv=0 dx=0 dy=0 dh=260 dv=0
PairPos2: "'kern' Horizontal Kerning in Arabic lookup 0 subtable" uni06AB dx=0 dy=0 dh=0 dv=0 dx=0 dy=0 dh=260 dv=0
PairPos2: "'kern' Horizontal Kerning in Arabic lookup 0 subtable" uni06A9 dx=0 dy=0 dh=0 dv=0 dx=0 dy=0 dh=260 dv=0
PairPos2: "'kern' Horizontal Kerning in Arabic lookup 0 subtable" uniFB94 dx=0 dy=0 dh=0 dv=0 dx=0 dy=0 dh=260 dv=0
PairPos2: "'kern' Horizontal Kerning in Arabic lookup 0 subtable" uniFBD5 dx=0 dy=0 dh=0 dv=0 dx=0 dy=0 dh=260 dv=0
PairPos2: "'kern' Horizontal Kerning in Arabic lookup 0 subtable" uni06AB.ini dx=0 dy=0 dh=0 dv=0 dx=0 dy=0 dh=260 dv=0
PairPos2: "'kern' Horizontal Kerning in Arabic lookup 0 subtable" uniFB90 dx=0 dy=0 dh=0 dv=0 dx=0 dy=0 dh=260 dv=0
PairPos2: "'kern' Horizontal Kerning in Arabic lookup 0 subtable" uniFEDB dx=0 dy=0 dh=0 dv=0 dx=0 dy=0 dh=260 dv=0
PairPos2: "'kern' Horizontal Kerning in Arabic lookup 0 subtable" uni0671 dx=0 dy=0 dh=0 dv=0 dx=0 dy=0 dh=208 dv=0
PairPos2: "'kern' Horizontal Kerning in Arabic lookup 0 subtable" afii57410 dx=0 dy=0 dh=0 dv=0 dx=0 dy=0 dh=208 dv=0
PairPos2: "'kern' Horizontal Kerning in Arabic lookup 0 subtable" afii57415 dx=0 dy=0 dh=0 dv=0 dx=0 dy=0 dh=52 dv=0
EndChar

StartChar: asciicircum
Encoding: 94 94 65
Width: 961
GlyphClass: 2
Flags: W
LayerCount: 2
Fore
SplineSet
678 1384 m 1,0,-1
 831 518 l 1,1,-1
 693 518 l 1,2,-1
 592 1163 l 1,3,4
 480 1002 480 1002 367.5 841 c 128,-1,5
 255 680 255 680 142 518 c 1,6,-1
 4 518 l 1,7,-1
 621 1384 l 1,8,-1
 678 1384 l 1,0,-1
EndSplineSet
Substitution2: "<17016,16016> Urdu Swash lookup 75 subtable" asciicircum
PairPos2: "'kern' Horizontal Kerning in Arabic lookup 0 subtable" afii57509 dx=0 dy=0 dh=0 dv=0 dx=0 dy=0 dh=260 dv=0
PairPos2: "'kern' Horizontal Kerning in Arabic lookup 0 subtable" uni06AB dx=0 dy=0 dh=0 dv=0 dx=0 dy=0 dh=260 dv=0
PairPos2: "'kern' Horizontal Kerning in Arabic lookup 0 subtable" uni06A9 dx=0 dy=0 dh=0 dv=0 dx=0 dy=0 dh=260 dv=0
PairPos2: "'kern' Horizontal Kerning in Arabic lookup 0 subtable" uniFB94 dx=0 dy=0 dh=0 dv=0 dx=0 dy=0 dh=260 dv=0
PairPos2: "'kern' Horizontal Kerning in Arabic lookup 0 subtable" uniFBD5 dx=0 dy=0 dh=0 dv=0 dx=0 dy=0 dh=260 dv=0
PairPos2: "'kern' Horizontal Kerning in Arabic lookup 0 subtable" uni06AB.ini dx=0 dy=0 dh=0 dv=0 dx=0 dy=0 dh=260 dv=0
PairPos2: "'kern' Horizontal Kerning in Arabic lookup 0 subtable" uniFB90 dx=0 dy=0 dh=0 dv=0 dx=0 dy=0 dh=260 dv=0
PairPos2: "'kern' Horizontal Kerning in Arabic lookup 0 subtable" uniFEDB dx=0 dy=0 dh=0 dv=0 dx=0 dy=0 dh=260 dv=0
PairPos2: "'kern' Horizontal Kerning in Arabic lookup 0 subtable" uni0671 dx=0 dy=0 dh=0 dv=0 dx=0 dy=0 dh=208 dv=0
PairPos2: "'kern' Horizontal Kerning in Arabic lookup 0 subtable" afii57410 dx=0 dy=0 dh=0 dv=0 dx=0 dy=0 dh=208 dv=0
PairPos2: "'kern' Horizontal Kerning in Arabic lookup 0 subtable" afii57415 dx=0 dy=0 dh=0 dv=0 dx=0 dy=0 dh=52 dv=0
EndChar

StartChar: underscore
Encoding: 95 95 66
Width: 1024
GlyphClass: 2
Flags: W
LayerCount: 2
Fore
SplineSet
-268 -256 m 1,0,-1
 -240 -153 l 1,1,-1
 782 -153 l 1,2,-1
 754 -256 l 1,3,-1
 -268 -256 l 1,0,-1
EndSplineSet
Substitution2: "<17016,16016> Urdu Swash lookup 75 subtable" underscore
PairPos2: "'kern' Horizontal Kerning in Arabic lookup 0 subtable" afii57509 dx=0 dy=0 dh=0 dv=0 dx=0 dy=0 dh=260 dv=0
PairPos2: "'kern' Horizontal Kerning in Arabic lookup 0 subtable" uni06AB dx=0 dy=0 dh=0 dv=0 dx=0 dy=0 dh=260 dv=0
PairPos2: "'kern' Horizontal Kerning in Arabic lookup 0 subtable" uni06A9 dx=0 dy=0 dh=0 dv=0 dx=0 dy=0 dh=260 dv=0
PairPos2: "'kern' Horizontal Kerning in Arabic lookup 0 subtable" uniFB94 dx=0 dy=0 dh=0 dv=0 dx=0 dy=0 dh=260 dv=0
PairPos2: "'kern' Horizontal Kerning in Arabic lookup 0 subtable" uniFBD5 dx=0 dy=0 dh=0 dv=0 dx=0 dy=0 dh=260 dv=0
PairPos2: "'kern' Horizontal Kerning in Arabic lookup 0 subtable" uni06AB.ini dx=0 dy=0 dh=0 dv=0 dx=0 dy=0 dh=260 dv=0
PairPos2: "'kern' Horizontal Kerning in Arabic lookup 0 subtable" uniFB90 dx=0 dy=0 dh=0 dv=0 dx=0 dy=0 dh=260 dv=0
PairPos2: "'kern' Horizontal Kerning in Arabic lookup 0 subtable" uniFEDB dx=0 dy=0 dh=0 dv=0 dx=0 dy=0 dh=260 dv=0
PairPos2: "'kern' Horizontal Kerning in Arabic lookup 0 subtable" uni0671 dx=0 dy=0 dh=0 dv=0 dx=0 dy=0 dh=208 dv=0
PairPos2: "'kern' Horizontal Kerning in Arabic lookup 0 subtable" afii57410 dx=0 dy=0 dh=0 dv=0 dx=0 dy=0 dh=208 dv=0
PairPos2: "'kern' Horizontal Kerning in Arabic lookup 0 subtable" afii57415 dx=0 dy=0 dh=0 dv=0 dx=0 dy=0 dh=52 dv=0
EndChar

StartChar: grave
Encoding: 96 96 67
Width: 682
GlyphClass: 2
Flags: W
LayerCount: 2
Fore
SplineSet
576 1037 m 1,0,-1
 489 1037 l 1,1,-1
 227 1235 l 2,2,3
 200 1256 200 1256 190.5 1276 c 128,-1,4
 181 1296 181 1296 189 1323 c 0,5,6
 197 1353 197 1353 223 1371.5 c 128,-1,7
 249 1390 249 1390 277 1390 c 0,8,9
 304 1390 304 1390 322 1375.5 c 128,-1,10
 340 1361 340 1361 355 1341 c 2,11,-1
 576 1037 l 1,0,-1
EndSplineSet
Substitution2: "<17016,16016> Urdu Swash lookup 75 subtable" grave
PairPos2: "'kern' Horizontal Kerning in Arabic lookup 0 subtable" afii57509 dx=0 dy=0 dh=0 dv=0 dx=0 dy=0 dh=260 dv=0
PairPos2: "'kern' Horizontal Kerning in Arabic lookup 0 subtable" uni06AB dx=0 dy=0 dh=0 dv=0 dx=0 dy=0 dh=260 dv=0
PairPos2: "'kern' Horizontal Kerning in Arabic lookup 0 subtable" uni06A9 dx=0 dy=0 dh=0 dv=0 dx=0 dy=0 dh=260 dv=0
PairPos2: "'kern' Horizontal Kerning in Arabic lookup 0 subtable" uniFB94 dx=0 dy=0 dh=0 dv=0 dx=0 dy=0 dh=260 dv=0
PairPos2: "'kern' Horizontal Kerning in Arabic lookup 0 subtable" uniFBD5 dx=0 dy=0 dh=0 dv=0 dx=0 dy=0 dh=260 dv=0
PairPos2: "'kern' Horizontal Kerning in Arabic lookup 0 subtable" uni06AB.ini dx=0 dy=0 dh=0 dv=0 dx=0 dy=0 dh=260 dv=0
PairPos2: "'kern' Horizontal Kerning in Arabic lookup 0 subtable" uniFB90 dx=0 dy=0 dh=0 dv=0 dx=0 dy=0 dh=260 dv=0
PairPos2: "'kern' Horizontal Kerning in Arabic lookup 0 subtable" uniFEDB dx=0 dy=0 dh=0 dv=0 dx=0 dy=0 dh=260 dv=0
PairPos2: "'kern' Horizontal Kerning in Arabic lookup 0 subtable" uni0671 dx=0 dy=0 dh=0 dv=0 dx=0 dy=0 dh=208 dv=0
PairPos2: "'kern' Horizontal Kerning in Arabic lookup 0 subtable" afii57410 dx=0 dy=0 dh=0 dv=0 dx=0 dy=0 dh=208 dv=0
PairPos2: "'kern' Horizontal Kerning in Arabic lookup 0 subtable" afii57415 dx=0 dy=0 dh=0 dv=0 dx=0 dy=0 dh=52 dv=0
EndChar

StartChar: a
Encoding: 97 97 68
Width: 909
GlyphClass: 2
Flags: W
LayerCount: 2
Fore
SplineSet
534 553 m 1,0,1
 356 501 356 501 252 427 c 128,-1,2
 148 353 148 353 126 269 c 0,3,4
 116 233 116 233 119 203.5 c 128,-1,5
 122 174 122 174 135.5 153 c 128,-1,6
 149 132 149 132 173 120 c 128,-1,7
 197 108 197 108 228 108 c 0,8,9
 260 108 260 108 295.5 118 c 128,-1,10
 331 128 331 128 362.5 145 c 128,-1,11
 394 162 394 162 418 186 c 128,-1,12
 442 210 442 210 449 238 c 2,13,-1
 534 553 l 1,0,1
137 442 m 0,14,15
 189 471 189 471 293.5 512 c 128,-1,16
 398 553 398 553 548 605 c 1,17,-1
 570 689 l 2,18,19
 584 738 584 738 588 774.5 c 128,-1,20
 592 811 592 811 588 831 c 0,21,22
 578 862 578 862 547.5 879.5 c 128,-1,23
 517 897 517 897 466 897 c 0,24,25
 416 897 416 897 362 871 c 1,26,-1
 363 871 l 1,27,28
 309 844 309 844 297 798 c 0,29,30
 296 795 296 795 295 784 c 128,-1,31
 294 773 294 773 292.5 760 c 128,-1,32
 291 747 291 747 289.5 735.5 c 128,-1,33
 288 724 288 724 287 721 c 0,34,35
 276 679 276 679 246.5 654 c 128,-1,36
 217 629 217 629 174 629 c 0,37,38
 151 629 151 629 136 637 c 128,-1,39
 121 645 121 645 113 658.5 c 128,-1,40
 105 672 105 672 103.5 689.5 c 128,-1,41
 102 707 102 707 107 725 c 0,42,43
 126 797 126 797 231 872 c 0,44,45
 340 949 340 949 507 949 c 0,46,47
 583 949 583 949 634.5 931 c 128,-1,48
 686 913 686 913 713 874 c 128,-1,49
 740 835 740 835 742 772.5 c 128,-1,50
 744 710 744 710 720 621 c 2,51,-1
 613 221 l 2,52,53
 595 154 595 154 602 128.5 c 128,-1,54
 609 103 609 103 642 103 c 0,55,56
 654 103 654 103 662 104 c 128,-1,57
 670 105 670 105 679 109 c 128,-1,58
 688 113 688 113 702.5 121.5 c 128,-1,59
 717 130 717 130 743 145 c 1,60,-1
 729 90 l 1,61,62
 676 41 676 41 622 14.5 c 128,-1,63
 568 -12 568 -12 518 -12 c 0,64,65
 484 -12 484 -12 463 -0.5 c 128,-1,66
 442 11 442 11 431.5 30.5 c 128,-1,67
 421 50 421 50 420 77 c 128,-1,68
 419 104 419 104 425 135 c 1,69,70
 365 93 365 93 317 64.5 c 128,-1,71
 269 36 269 36 228.5 18.5 c 128,-1,72
 188 1 188 1 152.5 -7 c 128,-1,73
 117 -15 117 -15 82 -15 c 0,74,75
 39 -15 39 -15 5 1 c 128,-1,76
 -29 17 -29 17 -50.5 45.5 c 128,-1,77
 -72 74 -72 74 -78 113.5 c 128,-1,78
 -84 153 -84 153 -72 200 c 0,79,80
 -52 274 -52 274 0 333.5 c 128,-1,81
 52 393 52 393 137 442 c 0,14,15
EndSplineSet
Substitution2: "<17016,16016> Urdu Swash lookup 75 subtable" a
PairPos2: "'kern' Horizontal Kerning in Arabic lookup 0 subtable" afii57509 dx=0 dy=0 dh=0 dv=0 dx=0 dy=0 dh=260 dv=0
PairPos2: "'kern' Horizontal Kerning in Arabic lookup 0 subtable" uni06AB dx=0 dy=0 dh=0 dv=0 dx=0 dy=0 dh=260 dv=0
PairPos2: "'kern' Horizontal Kerning in Arabic lookup 0 subtable" uni06A9 dx=0 dy=0 dh=0 dv=0 dx=0 dy=0 dh=260 dv=0
PairPos2: "'kern' Horizontal Kerning in Arabic lookup 0 subtable" uniFB94 dx=0 dy=0 dh=0 dv=0 dx=0 dy=0 dh=260 dv=0
PairPos2: "'kern' Horizontal Kerning in Arabic lookup 0 subtable" uniFBD5 dx=0 dy=0 dh=0 dv=0 dx=0 dy=0 dh=260 dv=0
PairPos2: "'kern' Horizontal Kerning in Arabic lookup 0 subtable" uni06AB.ini dx=0 dy=0 dh=0 dv=0 dx=0 dy=0 dh=260 dv=0
PairPos2: "'kern' Horizontal Kerning in Arabic lookup 0 subtable" uniFB90 dx=0 dy=0 dh=0 dv=0 dx=0 dy=0 dh=260 dv=0
PairPos2: "'kern' Horizontal Kerning in Arabic lookup 0 subtable" uniFEDB dx=0 dy=0 dh=0 dv=0 dx=0 dy=0 dh=260 dv=0
PairPos2: "'kern' Horizontal Kerning in Arabic lookup 0 subtable" uni0671 dx=0 dy=0 dh=0 dv=0 dx=0 dy=0 dh=208 dv=0
PairPos2: "'kern' Horizontal Kerning in Arabic lookup 0 subtable" afii57410 dx=0 dy=0 dh=0 dv=0 dx=0 dy=0 dh=208 dv=0
PairPos2: "'kern' Horizontal Kerning in Arabic lookup 0 subtable" afii57415 dx=0 dy=0 dh=0 dv=0 dx=0 dy=0 dh=52 dv=0
EndChar

StartChar: b
Encoding: 98 98 69
Width: 1024
GlyphClass: 2
Flags: W
LayerCount: 2
Fore
SplineSet
320 51 m 0,0,1
 460 51 460 51 554 156 c 0,2,3
 651 262 651 262 690 408 c 0,4,5
 729 558 729 558 701 683 c 0,6,7
 673 809 673 809 531 809 c 0,8,9
 498 809 498 809 458.5 797.5 c 128,-1,10
 419 786 419 786 383.5 766 c 128,-1,11
 348 746 348 746 320.5 717.5 c 128,-1,12
 293 689 293 689 284 656 c 2,13,-1
 148 147 l 1,14,15
 146 120 146 120 163.5 102 c 128,-1,16
 181 84 181 84 208 72.5 c 128,-1,17
 235 61 235 61 265.5 56 c 128,-1,18
 296 51 296 51 320 51 c 0,0,1
147 1270 m 1,19,-1
 156 1306 l 1,20,21
 216 1319 216 1319 274 1334.5 c 128,-1,22
 332 1350 332 1350 378.5 1363.5 c 128,-1,23
 425 1377 425 1377 454 1386.5 c 128,-1,24
 483 1396 483 1396 485 1396 c 1,25,26
 484 1393 484 1393 484 1390 c 128,-1,27
 484 1387 484 1387 483 1383 c 2,28,-1
 321 779 l 1,29,30
 352 817 352 817 391.5 847 c 128,-1,31
 431 877 431 877 474.5 898 c 128,-1,32
 518 919 518 919 564 930.5 c 128,-1,33
 610 942 610 942 654 942 c 0,34,35
 728 942 728 942 783.5 909 c 128,-1,36
 839 876 839 876 871.5 817 c 128,-1,37
 904 758 904 758 909.5 675.5 c 128,-1,38
 915 593 915 593 889 495 c 0,39,40
 861 391 861 391 801 298 c 128,-1,41
 741 205 741 205 658 134.5 c 128,-1,42
 575 64 575 64 473.5 22.5 c 128,-1,43
 372 -19 372 -19 261 -19 c 0,44,45
 208 -19 208 -19 154 -7 c 128,-1,46
 100 5 100 5 57 24.5 c 128,-1,47
 14 44 14 44 -10.5 67.5 c 128,-1,48
 -35 91 -35 91 -29 114 c 2,49,-1
 254 1169 l 2,50,51
 262 1197 262 1197 264 1217 c 128,-1,52
 266 1237 266 1237 260 1250 c 128,-1,53
 254 1263 254 1263 238.5 1269 c 128,-1,54
 223 1275 223 1275 194 1275 c 2,55,-1
 147 1270 l 1,19,-1
EndSplineSet
Substitution2: "<17016,16016> Urdu Swash lookup 75 subtable" b
PairPos2: "'kern' Horizontal Kerning in Arabic lookup 0 subtable" afii57509 dx=0 dy=0 dh=0 dv=0 dx=0 dy=0 dh=260 dv=0
PairPos2: "'kern' Horizontal Kerning in Arabic lookup 0 subtable" uni06AB dx=0 dy=0 dh=0 dv=0 dx=0 dy=0 dh=260 dv=0
PairPos2: "'kern' Horizontal Kerning in Arabic lookup 0 subtable" uni06A9 dx=0 dy=0 dh=0 dv=0 dx=0 dy=0 dh=260 dv=0
PairPos2: "'kern' Horizontal Kerning in Arabic lookup 0 subtable" uniFB94 dx=0 dy=0 dh=0 dv=0 dx=0 dy=0 dh=260 dv=0
PairPos2: "'kern' Horizontal Kerning in Arabic lookup 0 subtable" uniFBD5 dx=0 dy=0 dh=0 dv=0 dx=0 dy=0 dh=260 dv=0
PairPos2: "'kern' Horizontal Kerning in Arabic lookup 0 subtable" uni06AB.ini dx=0 dy=0 dh=0 dv=0 dx=0 dy=0 dh=260 dv=0
PairPos2: "'kern' Horizontal Kerning in Arabic lookup 0 subtable" uniFB90 dx=0 dy=0 dh=0 dv=0 dx=0 dy=0 dh=260 dv=0
PairPos2: "'kern' Horizontal Kerning in Arabic lookup 0 subtable" uniFEDB dx=0 dy=0 dh=0 dv=0 dx=0 dy=0 dh=260 dv=0
PairPos2: "'kern' Horizontal Kerning in Arabic lookup 0 subtable" uni0671 dx=0 dy=0 dh=0 dv=0 dx=0 dy=0 dh=208 dv=0
PairPos2: "'kern' Horizontal Kerning in Arabic lookup 0 subtable" afii57410 dx=0 dy=0 dh=0 dv=0 dx=0 dy=0 dh=208 dv=0
PairPos2: "'kern' Horizontal Kerning in Arabic lookup 0 subtable" afii57415 dx=0 dy=0 dh=0 dv=0 dx=0 dy=0 dh=52 dv=0
EndChar

StartChar: c
Encoding: 99 99 70
AltUni2: 00217d.ffffffff.0
Width: 909
GlyphClass: 2
Flags: W
LayerCount: 2
Fore
SplineSet
812 737 m 0,0,1
 808 721 808 721 798 704.5 c 128,-1,2
 788 688 788 688 773 675 c 128,-1,3
 758 662 758 662 738 654 c 128,-1,4
 718 646 718 646 694 646 c 0,5,6
 660 646 660 646 638.5 670 c 128,-1,7
 617 694 617 694 618 741 c 2,8,-1
 619 789 l 2,9,10
 621 842 621 842 594 863 c 128,-1,11
 567 884 567 884 513 884 c 0,12,13
 458 884 458 884 402 858 c 128,-1,14
 346 832 346 832 296.5 785 c 128,-1,15
 247 738 247 738 207.5 671 c 128,-1,16
 168 604 168 604 146 521 c 0,17,18
 106 372 106 372 160 252 c 0,19,20
 216 132 216 132 361 132 c 0,21,22
 404 132 404 132 443.5 142.5 c 128,-1,23
 483 153 483 153 523.5 175.5 c 128,-1,24
 564 198 564 198 607 235 c 128,-1,25
 650 272 650 272 699 324 c 1,26,-1
 724 306 l 1,27,28
 679 245 679 245 637 197.5 c 128,-1,29
 595 150 595 150 554 115 c 0,30,31
 396 -19 396 -19 237 -19 c 0,32,33
 80 -19 80 -19 -7 104 c 0,34,35
 -93 227 -93 227 -36 438 c 0,36,37
 -9 540 -9 540 50.5 632 c 128,-1,38
 110 724 110 724 190 793 c 128,-1,39
 270 862 270 862 365.5 903 c 128,-1,40
 461 944 461 944 561 944 c 0,41,42
 623 944 623 944 673.5 926 c 128,-1,43
 724 908 724 908 758.5 878.5 c 128,-1,44
 793 849 793 849 807.5 812 c 128,-1,45
 822 775 822 775 812 737 c 0,0,1
EndSplineSet
Substitution2: "<17016,16016> Urdu Swash lookup 75 subtable" c
PairPos2: "'kern' Horizontal Kerning in Arabic lookup 0 subtable" afii57509 dx=0 dy=0 dh=0 dv=0 dx=0 dy=0 dh=260 dv=0
PairPos2: "'kern' Horizontal Kerning in Arabic lookup 0 subtable" uni06AB dx=0 dy=0 dh=0 dv=0 dx=0 dy=0 dh=260 dv=0
PairPos2: "'kern' Horizontal Kerning in Arabic lookup 0 subtable" uni06A9 dx=0 dy=0 dh=0 dv=0 dx=0 dy=0 dh=260 dv=0
PairPos2: "'kern' Horizontal Kerning in Arabic lookup 0 subtable" uniFB94 dx=0 dy=0 dh=0 dv=0 dx=0 dy=0 dh=260 dv=0
PairPos2: "'kern' Horizontal Kerning in Arabic lookup 0 subtable" uniFBD5 dx=0 dy=0 dh=0 dv=0 dx=0 dy=0 dh=260 dv=0
PairPos2: "'kern' Horizontal Kerning in Arabic lookup 0 subtable" uni06AB.ini dx=0 dy=0 dh=0 dv=0 dx=0 dy=0 dh=260 dv=0
PairPos2: "'kern' Horizontal Kerning in Arabic lookup 0 subtable" uniFB90 dx=0 dy=0 dh=0 dv=0 dx=0 dy=0 dh=260 dv=0
PairPos2: "'kern' Horizontal Kerning in Arabic lookup 0 subtable" uniFEDB dx=0 dy=0 dh=0 dv=0 dx=0 dy=0 dh=260 dv=0
PairPos2: "'kern' Horizontal Kerning in Arabic lookup 0 subtable" uni0671 dx=0 dy=0 dh=0 dv=0 dx=0 dy=0 dh=208 dv=0
PairPos2: "'kern' Horizontal Kerning in Arabic lookup 0 subtable" afii57410 dx=0 dy=0 dh=0 dv=0 dx=0 dy=0 dh=208 dv=0
PairPos2: "'kern' Horizontal Kerning in Arabic lookup 0 subtable" afii57415 dx=0 dy=0 dh=0 dv=0 dx=0 dy=0 dh=52 dv=0
EndChar

StartChar: d
Encoding: 100 100 71
AltUni2: 00217e.ffffffff.0
Width: 1024
GlyphClass: 2
Flags: W
LayerCount: 2
Fore
SplineSet
669 651 m 2,0,1
 704 780 704 780 648 833 c 0,2,3
 619 860 619 860 590.5 873.5 c 128,-1,4
 562 887 562 887 528 887 c 0,5,6
 465 887 465 887 408 857 c 128,-1,7
 351 827 351 827 303 774.5 c 128,-1,8
 255 722 255 722 218 652 c 128,-1,9
 181 582 181 582 160 502 c 0,10,11
 118 342 118 342 158 217 c 0,12,13
 199 91 199 91 346 91 c 0,14,15
 385 91 385 91 420.5 104.5 c 128,-1,16
 456 118 456 118 484 138 c 128,-1,17
 512 158 512 158 530.5 181 c 128,-1,18
 549 204 549 204 554 223 c 2,19,-1
 669 651 l 2,0,1
663 914 m 0,20,21
 682 903 682 903 696.5 889 c 128,-1,22
 711 875 711 875 724 858 c 1,23,-1
 809 1172 l 2,24,25
 817 1201 817 1201 819.5 1221.5 c 128,-1,26
 822 1242 822 1242 817 1254.5 c 128,-1,27
 812 1267 812 1267 798.5 1272.5 c 128,-1,28
 785 1278 785 1278 760 1278 c 0,29,30
 754 1278 754 1278 749.5 1278 c 128,-1,31
 745 1278 745 1278 738.5 1277 c 128,-1,32
 732 1276 732 1276 722.5 1275.5 c 128,-1,33
 713 1275 713 1275 697 1273 c 1,34,-1
 706 1308 l 1,35,-1
 795 1329 l 2,36,37
 832 1338 832 1338 868 1348 c 128,-1,38
 904 1358 904 1358 936 1367.5 c 128,-1,39
 968 1377 968 1377 993.5 1385 c 128,-1,40
 1019 1393 1019 1393 1035 1398 c 1,41,-1
 1042 1396 l 1,42,-1
 1011 1290 l 2,43,44
 996 1233 996 1233 978.5 1173 c 128,-1,45
 961 1113 961 1113 945 1054 c 2,46,-1
 724 238 l 2,47,48
 716 207 716 207 712.5 185 c 128,-1,49
 709 163 709 163 715 149 c 128,-1,50
 721 135 721 135 739.5 128.5 c 128,-1,51
 758 122 758 122 792 122 c 0,52,53
 804 122 804 122 815 122.5 c 128,-1,54
 826 123 826 123 838 125 c 1,55,-1
 829 90 l 2,56,57
 830 90 830 90 799.5 80.5 c 128,-1,58
 769 71 769 71 720.5 55.5 c 128,-1,59
 672 40 672 40 612.5 20.5 c 128,-1,60
 553 1 553 1 496 -19 c 1,61,-1
 492 -10 l 1,62,-1
 524 111 l 1,63,64
 478 73 478 73 440.5 48 c 128,-1,65
 403 23 403 23 368.5 8 c 128,-1,66
 334 -7 334 -7 299.5 -13 c 128,-1,67
 265 -19 265 -19 224 -19 c 0,68,69
 53 -19 53 -19 -16 112 c 0,70,71
 -87 244 -87 244 -40 417 c 0,72,73
 18 634 18 634 185 790 c 0,74,75
 353 946 353 946 538 946 c 0,76,77
 610 946 610 946 663 914 c 0,20,21
EndSplineSet
Substitution2: "<17016,16016> Urdu Swash lookup 75 subtable" d
PairPos2: "'kern' Horizontal Kerning in Arabic lookup 0 subtable" afii57509 dx=0 dy=0 dh=0 dv=0 dx=0 dy=0 dh=260 dv=0
PairPos2: "'kern' Horizontal Kerning in Arabic lookup 0 subtable" uni06AB dx=0 dy=0 dh=0 dv=0 dx=0 dy=0 dh=260 dv=0
PairPos2: "'kern' Horizontal Kerning in Arabic lookup 0 subtable" uni06A9 dx=0 dy=0 dh=0 dv=0 dx=0 dy=0 dh=260 dv=0
PairPos2: "'kern' Horizontal Kerning in Arabic lookup 0 subtable" uniFB94 dx=0 dy=0 dh=0 dv=0 dx=0 dy=0 dh=260 dv=0
PairPos2: "'kern' Horizontal Kerning in Arabic lookup 0 subtable" uniFBD5 dx=0 dy=0 dh=0 dv=0 dx=0 dy=0 dh=260 dv=0
PairPos2: "'kern' Horizontal Kerning in Arabic lookup 0 subtable" uni06AB.ini dx=0 dy=0 dh=0 dv=0 dx=0 dy=0 dh=260 dv=0
PairPos2: "'kern' Horizontal Kerning in Arabic lookup 0 subtable" uniFB90 dx=0 dy=0 dh=0 dv=0 dx=0 dy=0 dh=260 dv=0
PairPos2: "'kern' Horizontal Kerning in Arabic lookup 0 subtable" uniFEDB dx=0 dy=0 dh=0 dv=0 dx=0 dy=0 dh=260 dv=0
PairPos2: "'kern' Horizontal Kerning in Arabic lookup 0 subtable" uni0671 dx=0 dy=0 dh=0 dv=0 dx=0 dy=0 dh=208 dv=0
PairPos2: "'kern' Horizontal Kerning in Arabic lookup 0 subtable" afii57410 dx=0 dy=0 dh=0 dv=0 dx=0 dy=0 dh=208 dv=0
PairPos2: "'kern' Horizontal Kerning in Arabic lookup 0 subtable" afii57415 dx=0 dy=0 dh=0 dv=0 dx=0 dy=0 dh=52 dv=0
EndChar

StartChar: e
Encoding: 101 101 72
Width: 909
GlyphClass: 2
Flags: W
LayerCount: 2
Fore
SplineSet
242 763 m 0,0,1
 220 737 220 737 198.5 702.5 c 128,-1,2
 177 668 177 668 160 629 c 1,3,-1
 580 629 l 1,4,5
 600 754 600 754 567.5 809 c 128,-1,6
 535 864 535 864 442 864 c 0,7,8
 329 864 329 864 242 763 c 0,0,1
138 563 m 1,9,10
 115 453 115 453 118.5 366.5 c 128,-1,11
 122 280 122 280 154 228 c 0,12,13
 187 178 187 178 236.5 150 c 128,-1,14
 286 122 286 122 349 122 c 0,15,16
 453 122 453 122 540 177 c 128,-1,17
 627 232 627 232 714 333 c 1,18,-1
 748 321 l 1,19,20
 671 193 671 193 531 84 c 0,21,22
 390 -24 390 -24 226 -24 c 0,23,24
 38 -24 38 -24 -28 118 c 0,25,26
 -60 190 -60 190 -62.5 271.5 c 128,-1,27
 -65 353 -65 353 -41 445 c 0,28,29
 13 646 13 646 170 793 c 0,30,31
 328 939 328 939 520 939 c 0,32,33
 661 939 661 939 742 841 c 0,34,35
 822 743 822 743 772 563 c 1,36,-1
 138 563 l 1,9,10
EndSplineSet
Substitution2: "<17016,16016> Urdu Swash lookup 75 subtable" e
PairPos2: "'kern' Horizontal Kerning in Arabic lookup 0 subtable" afii57509 dx=0 dy=0 dh=0 dv=0 dx=0 dy=0 dh=260 dv=0
PairPos2: "'kern' Horizontal Kerning in Arabic lookup 0 subtable" uni06AB dx=0 dy=0 dh=0 dv=0 dx=0 dy=0 dh=260 dv=0
PairPos2: "'kern' Horizontal Kerning in Arabic lookup 0 subtable" uni06A9 dx=0 dy=0 dh=0 dv=0 dx=0 dy=0 dh=260 dv=0
PairPos2: "'kern' Horizontal Kerning in Arabic lookup 0 subtable" uniFB94 dx=0 dy=0 dh=0 dv=0 dx=0 dy=0 dh=260 dv=0
PairPos2: "'kern' Horizontal Kerning in Arabic lookup 0 subtable" uniFBD5 dx=0 dy=0 dh=0 dv=0 dx=0 dy=0 dh=260 dv=0
PairPos2: "'kern' Horizontal Kerning in Arabic lookup 0 subtable" uni06AB.ini dx=0 dy=0 dh=0 dv=0 dx=0 dy=0 dh=260 dv=0
PairPos2: "'kern' Horizontal Kerning in Arabic lookup 0 subtable" uniFB90 dx=0 dy=0 dh=0 dv=0 dx=0 dy=0 dh=260 dv=0
PairPos2: "'kern' Horizontal Kerning in Arabic lookup 0 subtable" uniFEDB dx=0 dy=0 dh=0 dv=0 dx=0 dy=0 dh=260 dv=0
PairPos2: "'kern' Horizontal Kerning in Arabic lookup 0 subtable" uni0671 dx=0 dy=0 dh=0 dv=0 dx=0 dy=0 dh=208 dv=0
PairPos2: "'kern' Horizontal Kerning in Arabic lookup 0 subtable" afii57410 dx=0 dy=0 dh=0 dv=0 dx=0 dy=0 dh=208 dv=0
PairPos2: "'kern' Horizontal Kerning in Arabic lookup 0 subtable" afii57415 dx=0 dy=0 dh=0 dv=0 dx=0 dy=0 dh=52 dv=0
EndChar

StartChar: f
Encoding: 102 102 73
Width: 682
GlyphClass: 2
Flags: W
LayerCount: 2
Fore
SplineSet
-152 30 m 1,0,1
 -98 32 -98 32 -62 40.5 c 128,-1,2
 -26 49 -26 49 -2 69.5 c 128,-1,3
 22 90 22 90 38 124.5 c 128,-1,4
 54 159 54 159 69 214 c 2,5,-1
 240 854 l 1,6,-1
 70 854 l 1,7,-1
 89 923 l 1,8,-1
 259 923 l 1,9,10
 323 1154 323 1154 443.5 1276 c 128,-1,11
 564 1398 564 1398 731 1398 c 0,12,13
 773 1398 773 1398 811 1389 c 128,-1,14
 849 1380 849 1380 876.5 1363 c 128,-1,15
 904 1346 904 1346 917.5 1322 c 128,-1,16
 931 1298 931 1298 923 1268 c 0,17,18
 919 1251 919 1251 908.5 1235.5 c 128,-1,19
 898 1220 898 1220 883.5 1208 c 128,-1,20
 869 1196 869 1196 852 1189 c 128,-1,21
 835 1182 835 1182 818 1182 c 0,22,23
 788 1182 788 1182 772 1199.5 c 128,-1,24
 756 1217 756 1217 738 1261 c 2,25,-1
 728 1287 l 2,26,27
 720 1308 720 1308 705 1322.5 c 128,-1,28
 690 1337 690 1337 657 1337 c 0,29,30
 540 1337 540 1337 492 1158 c 2,31,-1
 429 923 l 1,32,-1
 680 923 l 1,33,-1
 661 854 l 1,34,-1
 412 854 l 1,35,-1
 241 214 l 2,36,37
 211 102 211 102 232 70 c 0,38,39
 256 39 256 39 382 30 c 1,40,-1
 374 0 l 1,41,-1
 -160 0 l 1,42,-1
 -152 30 l 1,0,1
EndSplineSet
Substitution2: "<17016,16016> Urdu Swash lookup 75 subtable" f
PairPos2: "'kern' Horizontal Kerning in Arabic lookup 0 subtable" afii57509 dx=0 dy=0 dh=0 dv=0 dx=0 dy=0 dh=260 dv=0
PairPos2: "'kern' Horizontal Kerning in Arabic lookup 0 subtable" uni06AB dx=0 dy=0 dh=0 dv=0 dx=0 dy=0 dh=260 dv=0
PairPos2: "'kern' Horizontal Kerning in Arabic lookup 0 subtable" uni06A9 dx=0 dy=0 dh=0 dv=0 dx=0 dy=0 dh=260 dv=0
PairPos2: "'kern' Horizontal Kerning in Arabic lookup 0 subtable" uniFB94 dx=0 dy=0 dh=0 dv=0 dx=0 dy=0 dh=260 dv=0
PairPos2: "'kern' Horizontal Kerning in Arabic lookup 0 subtable" uniFBD5 dx=0 dy=0 dh=0 dv=0 dx=0 dy=0 dh=260 dv=0
PairPos2: "'kern' Horizontal Kerning in Arabic lookup 0 subtable" uni06AB.ini dx=0 dy=0 dh=0 dv=0 dx=0 dy=0 dh=260 dv=0
PairPos2: "'kern' Horizontal Kerning in Arabic lookup 0 subtable" uniFB90 dx=0 dy=0 dh=0 dv=0 dx=0 dy=0 dh=260 dv=0
PairPos2: "'kern' Horizontal Kerning in Arabic lookup 0 subtable" uniFEDB dx=0 dy=0 dh=0 dv=0 dx=0 dy=0 dh=260 dv=0
PairPos2: "'kern' Horizontal Kerning in Arabic lookup 0 subtable" uni0671 dx=0 dy=0 dh=0 dv=0 dx=0 dy=0 dh=208 dv=0
PairPos2: "'kern' Horizontal Kerning in Arabic lookup 0 subtable" afii57410 dx=0 dy=0 dh=0 dv=0 dx=0 dy=0 dh=208 dv=0
PairPos2: "'kern' Horizontal Kerning in Arabic lookup 0 subtable" afii57415 dx=0 dy=0 dh=0 dv=0 dx=0 dy=0 dh=52 dv=0
EndChar

StartChar: g
Encoding: 103 103 74
Width: 1024
GlyphClass: 2
Flags: W
LayerCount: 2
Fore
SplineSet
515 387 m 0,0,1
 588 435 588 435 620 553 c 0,2,3
 646 649 646 649 628 767 c 0,4,5
 611 885 611 885 500 885 c 0,6,7
 425 885 425 885 371 829.5 c 128,-1,8
 317 774 317 774 290 672 c 0,9,10
 258 554 258 554 290 454 c 0,11,12
 322 358 322 358 416 358 c 0,13,14
 472 358 472 358 515 387 c 0,0,1
223 -331 m 0,15,16
 304 -331 304 -331 376.5 -316 c 128,-1,17
 449 -301 449 -301 505.5 -274 c 128,-1,18
 562 -247 562 -247 599.5 -211 c 128,-1,19
 637 -175 637 -175 648 -133 c 0,20,21
 656 -101 656 -101 641 -78.5 c 128,-1,22
 626 -56 626 -56 589 -45 c 0,23,24
 565 -38 565 -38 516.5 -35 c 128,-1,25
 468 -32 468 -32 396 -30 c 0,26,27
 360 -29 360 -29 327.5 -28 c 128,-1,28
 295 -27 295 -27 260.5 -24.5 c 128,-1,29
 226 -22 226 -22 188.5 -17.5 c 128,-1,30
 151 -13 151 -13 106 -4 c 0,31,32
 100 -6 100 -6 81 -21.5 c 128,-1,33
 62 -37 62 -37 32 -67 c 0,34,35
 -33 -130 -33 -130 -48 -184 c 0,36,37
 -71 -267 -71 -267 14 -299 c 0,38,39
 102 -331 102 -331 223 -331 c 0,15,16
104 616 m 0,40,41
 119 675 119 675 157.5 731 c 128,-1,42
 196 787 196 787 255 839 c 0,43,44
 315 890 315 890 389 917 c 128,-1,45
 463 944 463 944 547 944 c 0,46,47
 618 944 618 944 699 909 c 0,48,49
 777 875 777 875 859 875 c 0,50,51
 867 875 867 875 881.5 875.5 c 128,-1,52
 896 876 896 876 913.5 876.5 c 128,-1,53
 931 877 931 877 949.5 877.5 c 128,-1,54
 968 878 968 878 984 878 c 2,55,-1
 997 878 l 1,56,-1
 975 795 l 1,57,-1
 804 795 l 1,58,59
 813 741 813 741 811.5 698 c 128,-1,60
 810 655 810 655 799 613 c 0,61,62
 784 558 784 558 746 503.5 c 128,-1,63
 708 449 708 449 651.5 405.5 c 128,-1,64
 595 362 595 362 522.5 335 c 128,-1,65
 450 308 450 308 367 308 c 0,66,67
 339 308 339 308 279 317 c 0,68,69
 264 316 264 316 239 301 c 128,-1,70
 214 286 214 286 189.5 266 c 128,-1,71
 165 246 165 246 145.5 225 c 128,-1,72
 126 204 126 204 122 189 c 0,73,74
 119 177 119 177 129 166.5 c 128,-1,75
 139 156 139 156 160 148.5 c 128,-1,76
 181 141 181 141 211.5 137 c 128,-1,77
 242 133 242 133 278 133 c 0,78,79
 404 133 404 133 490 125.5 c 128,-1,80
 576 118 576 118 619 104 c 0,81,82
 687 80 687 80 711.5 29 c 128,-1,83
 736 -22 736 -22 716 -99 c 0,84,85
 674 -257 674 -257 471 -352 c 0,86,87
 272 -445 272 -445 90 -445 c 0,88,89
 10 -445 10 -445 -50.5 -426.5 c 128,-1,90
 -111 -408 -111 -408 -149.5 -379 c 128,-1,91
 -188 -350 -188 -350 -204 -313 c 128,-1,92
 -220 -276 -220 -276 -210 -239 c 0,93,94
 -205 -220 -205 -220 -195.5 -203 c 128,-1,95
 -186 -186 -186 -186 -167 -167 c 128,-1,96
 -148 -148 -148 -148 -117 -124 c 128,-1,97
 -86 -100 -86 -100 -39 -65 c 2,98,-1
 57 5 l 1,99,100
 1 29 1 29 -15 53.5 c 128,-1,101
 -31 78 -31 78 -22 111 c 0,102,103
 -16 132 -16 132 -2.5 152 c 128,-1,104
 11 172 11 172 38.5 197 c 128,-1,105
 66 222 66 222 109.5 255.5 c 128,-1,106
 153 289 153 289 219 337 c 1,107,108
 177 352 177 352 149 379 c 128,-1,109
 121 406 121 406 106.5 442.5 c 128,-1,110
 92 479 92 479 91.5 523 c 128,-1,111
 91 567 91 567 104 616 c 0,40,41
EndSplineSet
Substitution2: "<17016,16016> Urdu Swash lookup 75 subtable" g
PairPos2: "'kern' Horizontal Kerning in Arabic lookup 0 subtable" afii57509 dx=0 dy=0 dh=0 dv=0 dx=0 dy=0 dh=260 dv=0
PairPos2: "'kern' Horizontal Kerning in Arabic lookup 0 subtable" uni06AB dx=0 dy=0 dh=0 dv=0 dx=0 dy=0 dh=260 dv=0
PairPos2: "'kern' Horizontal Kerning in Arabic lookup 0 subtable" uni06A9 dx=0 dy=0 dh=0 dv=0 dx=0 dy=0 dh=260 dv=0
PairPos2: "'kern' Horizontal Kerning in Arabic lookup 0 subtable" uniFB94 dx=0 dy=0 dh=0 dv=0 dx=0 dy=0 dh=260 dv=0
PairPos2: "'kern' Horizontal Kerning in Arabic lookup 0 subtable" uniFBD5 dx=0 dy=0 dh=0 dv=0 dx=0 dy=0 dh=260 dv=0
PairPos2: "'kern' Horizontal Kerning in Arabic lookup 0 subtable" uni06AB.ini dx=0 dy=0 dh=0 dv=0 dx=0 dy=0 dh=260 dv=0
PairPos2: "'kern' Horizontal Kerning in Arabic lookup 0 subtable" uniFB90 dx=0 dy=0 dh=0 dv=0 dx=0 dy=0 dh=260 dv=0
PairPos2: "'kern' Horizontal Kerning in Arabic lookup 0 subtable" uniFEDB dx=0 dy=0 dh=0 dv=0 dx=0 dy=0 dh=260 dv=0
PairPos2: "'kern' Horizontal Kerning in Arabic lookup 0 subtable" uni0671 dx=0 dy=0 dh=0 dv=0 dx=0 dy=0 dh=208 dv=0
PairPos2: "'kern' Horizontal Kerning in Arabic lookup 0 subtable" afii57410 dx=0 dy=0 dh=0 dv=0 dx=0 dy=0 dh=208 dv=0
PairPos2: "'kern' Horizontal Kerning in Arabic lookup 0 subtable" afii57415 dx=0 dy=0 dh=0 dv=0 dx=0 dy=0 dh=52 dv=0
EndChar

StartChar: h
Encoding: 104 104 75
Width: 1024
GlyphClass: 2
Flags: W
LayerCount: 2
Fore
SplineSet
-174 30 m 1,0,1
 -130 36 -130 36 -102 45 c 128,-1,2
 -74 54 -74 54 -54.5 73 c 128,-1,3
 -35 92 -35 92 -21.5 124.5 c 128,-1,4
 -8 157 -8 157 6 209 c 2,5,-1
 262 1167 l 2,6,7
 269 1194 269 1194 272 1214.5 c 128,-1,8
 275 1235 275 1235 270.5 1248.5 c 128,-1,9
 266 1262 266 1262 251.5 1268.5 c 128,-1,10
 237 1275 237 1275 208 1275 c 0,11,12
 196 1275 196 1275 185.5 1273.5 c 128,-1,13
 175 1272 175 1272 161 1270 c 1,14,-1
 171 1308 l 1,15,16
 284 1340 284 1340 360 1360.5 c 128,-1,17
 436 1381 436 1381 490 1396 c 1,18,-1
 489 1388 l 1,19,-1
 326 779 l 1,20,21
 378 824 378 824 422.5 855.5 c 128,-1,22
 467 887 467 887 508.5 906 c 128,-1,23
 550 925 550 925 589.5 933.5 c 128,-1,24
 629 942 629 942 671 942 c 0,25,26
 796 942 796 942 838.5 861.5 c 128,-1,27
 881 781 881 781 837 616 c 2,28,-1
 728 209 l 2,29,30
 714 157 714 157 710 124 c 128,-1,31
 706 91 706 91 715 72 c 128,-1,32
 724 53 724 53 746 44 c 128,-1,33
 768 35 768 35 805 30 c 1,34,-1
 797 0 l 1,35,-1
 363 0 l 1,36,-1
 371 30 l 1,37,38
 416 36 416 36 446.5 46.5 c 128,-1,39
 477 57 477 57 494 71 c 256,40,41
 511 85 511 85 526 120 c 128,-1,42
 541 155 541 155 556 209 c 2,43,-1
 664 613 l 2,44,45
 676 660 676 660 680 699.5 c 128,-1,46
 684 739 684 739 674.5 767.5 c 128,-1,47
 665 796 665 796 639.5 812.5 c 128,-1,48
 614 829 614 829 568 829 c 0,49,50
 530 829 530 829 488 814.5 c 128,-1,51
 446 800 446 800 403 773 c 0,52,53
 360 747 360 747 336 728 c 128,-1,54
 312 709 312 709 310 701 c 2,55,-1
 179 209 l 2,56,57
 149 98 149 98 167 70 c 256,58,59
 185 42 185 42 268 30 c 1,60,-1
 260 0 l 1,61,-1
 -182 0 l 1,62,-1
 -174 30 l 1,0,1
EndSplineSet
Substitution2: "<17016,16016> Urdu Swash lookup 75 subtable" h
PairPos2: "'kern' Horizontal Kerning in Arabic lookup 0 subtable" afii57509 dx=0 dy=0 dh=0 dv=0 dx=0 dy=0 dh=260 dv=0
PairPos2: "'kern' Horizontal Kerning in Arabic lookup 0 subtable" uni06AB dx=0 dy=0 dh=0 dv=0 dx=0 dy=0 dh=260 dv=0
PairPos2: "'kern' Horizontal Kerning in Arabic lookup 0 subtable" uni06A9 dx=0 dy=0 dh=0 dv=0 dx=0 dy=0 dh=260 dv=0
PairPos2: "'kern' Horizontal Kerning in Arabic lookup 0 subtable" uniFB94 dx=0 dy=0 dh=0 dv=0 dx=0 dy=0 dh=260 dv=0
PairPos2: "'kern' Horizontal Kerning in Arabic lookup 0 subtable" uniFBD5 dx=0 dy=0 dh=0 dv=0 dx=0 dy=0 dh=260 dv=0
PairPos2: "'kern' Horizontal Kerning in Arabic lookup 0 subtable" uni06AB.ini dx=0 dy=0 dh=0 dv=0 dx=0 dy=0 dh=260 dv=0
PairPos2: "'kern' Horizontal Kerning in Arabic lookup 0 subtable" uniFB90 dx=0 dy=0 dh=0 dv=0 dx=0 dy=0 dh=260 dv=0
PairPos2: "'kern' Horizontal Kerning in Arabic lookup 0 subtable" uniFEDB dx=0 dy=0 dh=0 dv=0 dx=0 dy=0 dh=260 dv=0
PairPos2: "'kern' Horizontal Kerning in Arabic lookup 0 subtable" uni0671 dx=0 dy=0 dh=0 dv=0 dx=0 dy=0 dh=208 dv=0
PairPos2: "'kern' Horizontal Kerning in Arabic lookup 0 subtable" afii57410 dx=0 dy=0 dh=0 dv=0 dx=0 dy=0 dh=208 dv=0
PairPos2: "'kern' Horizontal Kerning in Arabic lookup 0 subtable" afii57415 dx=0 dy=0 dh=0 dv=0 dx=0 dy=0 dh=52 dv=0
EndChar

